<svg width="400" height="900" viewBox="0 0 400 900" fill="none" xmlns="http://www.w3.org/2000/svg">
<path d="M175 700C175 703.283 175.647 706.534 176.903 709.567C178.16 712.6 180.001 715.356 182.322 717.678C184.644 719.999 187.4 721.84 190.433 723.097C193.466 724.353 196.717 725 200 725V750C193.434 750 186.932 748.707 180.866 746.194C174.8 743.682 169.287 739.998 164.645 735.355C160.002 730.713 156.318 725.2 153.806 719.134C151.293 713.068 150 706.566 150 700H175Z" fill="#00FF00"/>
<path d="M200 775C196.717 775 193.466 775.647 190.433 776.903C187.4 778.16 184.644 780.001 182.322 782.322C180.001 784.644 178.16 787.4 176.903 790.433C175.647 793.466 175 796.717 175 800H150C150 793.434 151.293 786.932 153.806 780.866C156.318 774.8 160.002 769.287 164.645 764.645C169.287 760.002 174.8 756.318 180.866 753.806C186.932 751.293 193.434 750 200 750V775Z" fill="#00FF00"/>
<path d="M125 800C125 796.717 124.353 793.466 123.097 790.433C121.84 787.4 119.999 784.644 117.678 782.322C115.356 780.001 112.6 778.16 109.567 776.903C106.534 775.647 103.283 775 100 775V750C106.566 750 113.068 751.293 119.134 753.806C125.2 756.318 130.713 760.002 135.355 764.645C139.998 769.287 143.682 774.8 146.194 780.866C148.707 786.932 150 793.434 150 800H125Z" fill="#00FF00"/>
<path d="M100 725C103.283 725 106.534 724.353 109.567 723.097C112.6 721.84 115.356 719.999 117.678 717.678C119.999 715.356 121.84 712.6 123.097 709.567C124.353 706.534 125 703.283 125 700H150C150 706.566 148.707 713.068 146.194 719.134C143.682 725.2 139.998 730.713 135.355 735.355C130.713 739.998 125.2 743.682 119.134 746.194C113.068 748.707 106.566 750 100 750V725Z" fill="#00FF00"/>
<path d="M274 600C274 603.283 274.647 606.534 275.903 609.567C277.16 612.6 279.001 615.356 281.322 617.678C283.644 619.999 286.4 621.84 289.433 623.097C292.466 624.353 295.717 625 299 625V650C292.434 650 285.932 648.707 279.866 646.194C273.8 643.682 268.287 639.998 263.645 635.355C259.002 630.713 255.318 625.2 252.806 619.134C250.293 613.068 249 606.566 249 600H274Z" fill="#00FF00"/>
<path d="M299 675C295.717 675 292.466 675.647 289.433 676.903C286.4 678.16 283.644 680.001 281.322 682.322C279.001 684.644 277.16 687.4 275.903 690.433C274.647 693.466 274 696.717 274 700H249C249 693.434 250.293 686.932 252.806 680.866C255.318 674.8 259.002 669.287 263.645 664.645C268.287 660.002 273.8 656.318 279.866 653.806C285.932 651.293 292.434 650 299 650V675Z" fill="#00FF00"/>
<path d="M224 700C224 696.717 223.353 693.466 222.097 690.433C220.84 687.4 218.999 684.644 216.678 682.322C214.356 680.001 211.6 678.16 208.567 676.903C205.534 675.647 202.283 675 199 675V650C205.566 650 212.068 651.293 218.134 653.806C224.2 656.318 229.713 660.002 234.355 664.645C238.998 669.287 242.682 674.8 245.194 680.866C247.707 686.932 249 693.434 249 700H224Z" fill="#00FF00"/>
<path d="M199 625C202.283 625 205.534 624.353 208.567 623.097C211.6 621.84 214.356 619.999 216.678 617.678C218.999 615.356 220.84 612.6 222.097 609.567C223.353 606.534 224 603.283 224 600H249C249 606.566 247.707 613.068 245.194 619.134C242.682 625.2 238.998 630.713 234.355 635.355C229.713 639.998 224.2 643.682 218.134 646.194C212.068 648.707 205.566 650 199 650V625Z" fill="#00FF00"/>
<path d="M175 800C175 803.283 175.647 806.534 176.903 809.567C178.16 812.6 180.001 815.356 182.322 817.678C184.644 819.999 187.4 821.84 190.433 823.097C193.466 824.353 196.717 825 200 825V850C193.434 850 186.932 848.707 180.866 846.194C174.8 843.682 169.287 839.998 164.645 835.355C160.002 830.713 156.318 825.2 153.806 819.134C151.293 813.068 150 806.566 150 800H175Z" fill="#00FF00"/>
<path d="M200 875C196.717 875 193.466 875.647 190.433 876.903C187.4 878.16 184.644 880.001 182.322 882.322C180.001 884.644 178.16 887.4 176.903 890.433C175.647 893.466 175 896.717 175 900H150C150 893.434 151.293 886.932 153.806 880.866C156.318 874.8 160.002 869.287 164.645 864.645C169.287 860.002 174.8 856.318 180.866 853.806C186.932 851.293 193.434 850 200 850V875Z" fill="#00FF00"/>
<path d="M125 900C125 896.717 124.353 893.466 123.097 890.433C121.84 887.4 119.999 884.644 117.678 882.322C115.356 880.001 112.6 878.16 109.567 876.903C106.534 875.647 103.283 875 100 875V850C106.566 850 113.068 851.293 119.134 853.806C125.2 856.318 130.713 860.002 135.355 864.645C139.998 869.287 143.682 874.8 146.194 880.866C148.707 886.932 150 893.434 150 900H125Z" fill="#00FF00"/>
<path d="M100 825C103.283 825 106.534 824.353 109.567 823.097C112.6 821.84 115.356 819.999 117.678 817.678C119.999 815.356 121.84 812.6 123.097 809.567C124.353 806.534 125 803.283 125 800H150C150 806.566 148.707 813.068 146.194 819.134C143.682 825.2 139.998 830.713 135.355 835.355C130.713 839.998 125.2 843.682 119.134 846.194C113.068 848.707 106.566 850 100 850V825Z" fill="#00FF00"/>
<path d="M374 700C374 703.283 374.647 706.534 375.903 709.567C377.16 712.6 379.001 715.356 381.322 717.678C383.644 719.999 386.4 721.84 389.433 723.097C392.466 724.353 395.717 725 399 725V750C392.434 750 385.932 748.707 379.866 746.194C373.8 743.682 368.287 739.998 363.645 735.355C359.002 730.713 355.318 725.2 352.806 719.134C350.293 713.068 349 706.566 349 700H374Z" fill="#00FF00"/>
<path d="M399 775C395.717 775 392.466 775.647 389.433 776.903C386.4 778.16 383.644 780.001 381.322 782.322C379.001 784.644 377.16 787.4 375.903 790.433C374.647 793.466 374 796.717 374 800H349C349 793.434 350.293 786.932 352.806 780.866C355.318 774.8 359.002 769.287 363.645 764.645C368.287 760.002 373.8 756.318 379.866 753.806C385.932 751.293 392.434 750 399 750V775Z" fill="#00FF00"/>
<path d="M324 800C324 796.717 323.353 793.466 322.097 790.433C320.84 787.4 318.999 784.644 316.678 782.322C314.356 780.001 311.6 778.16 308.567 776.903C305.534 775.647 302.283 775 299 775V750C305.566 750 312.068 751.293 318.134 753.806C324.2 756.318 329.713 760.002 334.355 764.645C338.998 769.287 342.682 774.8 345.194 780.866C347.707 786.932 349 793.434 349 800H324Z" fill="#00FF00"/>
<path d="M299 725C302.283 725 305.534 724.353 308.567 723.097C311.6 721.84 314.356 719.999 316.678 717.678C318.999 715.356 320.84 712.6 322.097 709.567C323.353 706.534 324 703.283 324 700H349C349 706.566 347.707 713.068 345.194 719.134C342.682 725.2 338.998 730.713 334.355 735.355C329.713 739.998 324.2 743.682 318.134 746.194C312.068 748.707 305.566 750 299 750V725Z" fill="#00FF00"/>
<path d="M374 600C374 603.283 374.647 606.534 375.903 609.567C377.16 612.6 379.001 615.356 381.322 617.678C383.644 619.999 386.4 621.84 389.433 623.097C392.466 624.353 395.717 625 399 625V650C392.434 650 385.932 648.707 379.866 646.194C373.8 643.682 368.287 639.998 363.645 635.355C359.002 630.713 355.318 625.2 352.806 619.134C350.293 613.068 349 606.566 349 600H374Z" fill="#00FF00"/>
<path d="M399 675C395.717 675 392.466 675.647 389.433 676.903C386.4 678.16 383.644 680.001 381.322 682.322C379.001 684.644 377.16 687.4 375.903 690.433C374.647 693.466 374 696.717 374 700H349C349 693.434 350.293 686.932 352.806 680.866C355.318 674.8 359.002 669.287 363.645 664.645C368.287 660.002 373.8 656.318 379.866 653.806C385.932 651.293 392.434 650 399 650V675Z" fill="#00FF00"/>
<path d="M324 700C324 696.717 323.353 693.466 322.097 690.433C320.84 687.4 318.999 684.644 316.678 682.322C314.356 680.001 311.6 678.16 308.567 676.903C305.534 675.647 302.283 675 299 675V650C305.566 650 312.068 651.293 318.134 653.806C324.2 656.318 329.713 660.002 334.355 664.645C338.998 669.287 342.682 674.8 345.194 680.866C347.707 686.932 349 693.434 349 700H324Z" fill="#00FF00"/>
<path d="M299 625C302.283 625 305.534 624.353 308.567 623.097C311.6 621.84 314.356 619.999 316.678 617.678C318.999 615.356 320.84 612.6 322.097 609.567C323.353 606.534 324 603.283 324 600H349C349 606.566 347.707 613.068 345.194 619.134C342.682 625.2 338.998 630.713 334.355 635.355C329.713 639.998 324.2 643.682 318.134 646.194C312.068 648.707 305.566 650 299 650V625Z" fill="#00FF00"/>
<path d="M75 800C75 803.283 75.647 806.534 76.9033 809.567C78.1597 812.6 80.0009 815.356 82.3223 817.678C84.6436 819.999 87.3996 821.84 90.4326 823.097C93.4658 824.353 96.717 825 100 825V850C93.4341 850 86.9324 848.707 80.8662 846.194C74.7999 843.682 69.2875 839.998 64.6445 835.355C60.0016 830.713 56.3184 825.2 53.8057 819.134C51.2931 813.068 50 806.566 50 800H75Z" fill="#00FF00"/>
<path d="M100 875C96.717 875 93.4658 875.647 90.4326 876.903C87.3996 878.16 84.6436 880.001 82.3223 882.322C80.0009 884.644 78.1597 887.4 76.9033 890.433C75.647 893.466 75 896.717 75 900H50C50 893.434 51.2931 886.932 53.8057 880.866C56.3184 874.8 60.0016 869.287 64.6445 864.645C69.2875 860.002 74.7999 856.318 80.8662 853.806C86.9324 851.293 93.4341 850 100 850V875Z" fill="#00FF00"/>
<path d="M25 900C25 896.717 24.353 893.466 23.0967 890.433C21.8403 887.4 19.9991 884.644 17.6777 882.322C15.3564 880.001 12.6004 878.16 9.56738 876.903C6.53424 875.647 3.28305 875 0 875V850C6.56593 850 13.0676 851.293 19.1338 853.806C25.2001 856.318 30.7125 860.002 35.3555 864.645C39.9984 869.287 43.6816 874.8 46.1943 880.866C48.7069 886.932 50 893.434 50 900H25Z" fill="#00FF00"/>
<path d="M0 825C3.28305 825 6.53424 824.353 9.56738 823.097C12.6004 821.84 15.3564 819.999 17.6777 817.678C19.9991 815.356 21.8403 812.6 23.0967 809.567C24.353 806.534 25 803.283 25 800H50C50 806.566 48.7069 813.068 46.1943 819.134C43.6816 825.2 39.9984 830.713 35.3555 835.355C30.7125 839.998 25.2001 843.682 19.1338 846.194C13.0676 848.707 6.56593 850 0 850V825Z" fill="#00FF00"/>
<path d="M75 600C75 603.283 75.647 606.534 76.9033 609.567C78.1597 612.6 80.0009 615.356 82.3223 617.678C84.6436 619.999 87.3996 621.84 90.4326 623.097C93.4658 624.353 96.717 625 100 625V650C93.4341 650 86.9324 648.707 80.8662 646.194C74.7999 643.682 69.2875 639.998 64.6445 635.355C60.0016 630.713 56.3184 625.2 53.8057 619.134C51.2931 613.068 50 606.566 50 600H75Z" fill="#00FF00"/>
<path d="M100 675C96.717 675 93.4658 675.647 90.4326 676.903C87.3996 678.16 84.6436 680.001 82.3223 682.322C80.0009 684.644 78.1597 687.4 76.9033 690.433C75.647 693.466 75 696.717 75 700H50C50 693.434 51.2931 686.932 53.8057 680.866C56.3184 674.8 60.0016 669.287 64.6445 664.645C69.2875 660.002 74.7999 656.318 80.8662 653.806C86.9324 651.293 93.4341 650 100 650V675Z" fill="#00FF00"/>
<path d="M25 700C25 696.717 24.353 693.466 23.0967 690.433C21.8403 687.4 19.9991 684.644 17.6777 682.322C15.3564 680.001 12.6004 678.16 9.56738 676.903C6.53424 675.647 3.28305 675 0 675V650C6.56593 650 13.0676 651.293 19.1338 653.806C25.2001 656.318 30.7125 660.002 35.3555 664.645C39.9984 669.287 43.6816 674.8 46.1943 680.866C48.7069 686.932 50 693.434 50 700H25Z" fill="#00FF00"/>
<path d="M0 625C3.28305 625 6.53424 624.353 9.56738 623.097C12.6004 621.84 15.3564 619.999 17.6777 617.678C19.9991 615.356 21.8403 612.6 23.0967 609.567C24.353 606.534 25 603.283 25 600H50C50 606.566 48.7069 613.068 46.1943 619.134C43.6816 625.2 39.9984 630.713 35.3555 635.355C30.7125 639.998 25.2001 643.682 19.1338 646.194C13.0676 648.707 6.56593 650 0 650V625Z" fill="#00FF00"/>
<path d="M75 0C75 3.28305 75.647 6.53424 76.9033 9.56738C78.1597 12.6004 80.0009 15.3564 82.3223 17.6777C84.6436 19.9991 87.3996 21.8403 90.4326 23.0967C93.4658 24.353 96.717 25 100 25V50C93.4341 50 86.9324 48.7069 80.8662 46.1943C74.7999 43.6816 69.2875 39.9984 64.6445 35.3555C60.0016 30.7125 56.3184 25.2001 53.8057 19.1338C51.2931 13.0676 50 6.56593 50 0H75Z" fill="#00FF00"/>
<path d="M100 75C96.717 75 93.4658 75.647 90.4326 76.9033C87.3996 78.1597 84.6436 80.0009 82.3223 82.3223C80.0009 84.6436 78.1597 87.3996 76.9033 90.4326C75.647 93.4658 75 96.717 75 100H50C50 93.4341 51.2931 86.9324 53.8057 80.8662C56.3184 74.7999 60.0016 69.2875 64.6445 64.6445C69.2875 60.0016 74.7999 56.3184 80.8662 53.8057C86.9324 51.2931 93.4341 50 100 50V75Z" fill="#00FF00"/>
<path d="M25 100C25 96.717 24.353 93.4658 23.0967 90.4326C21.8403 87.3996 19.9991 84.6436 17.6777 82.3223C15.3564 80.0009 12.6004 78.1597 9.56738 76.9033C6.53424 75.647 3.28305 75 0 75V50C6.56593 50 13.0676 51.2931 19.1338 53.8057C25.2001 56.3184 30.7125 60.0016 35.3555 64.6445C39.9984 69.2875 43.6816 74.7999 46.1943 80.8662C48.7069 86.9324 50 93.4341 50 100H25Z" fill="#00FF00"/>
<path d="M0 25C3.28305 25 6.53424 24.353 9.56738 23.0967C12.6004 21.8403 15.3564 19.9991 17.6777 17.6777C19.9991 15.3564 21.8403 12.6004 23.0967 9.56738C24.353 6.53424 25 3.28305 25 0H50C50 6.56593 48.7069 13.0676 46.1943 19.1338C43.6816 25.2001 39.9984 30.7125 35.3555 35.3555C30.7125 39.9984 25.2001 43.6816 19.1338 46.1943C13.0676 48.7069 6.56593 50 0 50V25Z" fill="#00FF00"/>
<path d="M175 100C175 103.283 175.647 106.534 176.903 109.567C178.16 112.6 180.001 115.356 182.322 117.678C184.644 119.999 187.4 121.84 190.433 123.097C193.466 124.353 196.717 125 200 125V150C193.434 150 186.932 148.707 180.866 146.194C174.8 143.682 169.287 139.998 164.645 135.355C160.002 130.713 156.318 125.2 153.806 119.134C151.293 113.068 150 106.566 150 100H175Z" fill="#00FF00"/>
<path d="M200 175C196.717 175 193.466 175.647 190.433 176.903C187.4 178.16 184.644 180.001 182.322 182.322C180.001 184.644 178.16 187.4 176.903 190.433C175.647 193.466 175 196.717 175 200H150C150 193.434 151.293 186.932 153.806 180.866C156.318 174.8 160.002 169.287 164.645 164.645C169.287 160.002 174.8 156.318 180.866 153.806C186.932 151.293 193.434 150 200 150V175Z" fill="#00FF00"/>
<path d="M125 200C125 196.717 124.353 193.466 123.097 190.433C121.84 187.4 119.999 184.644 117.678 182.322C115.356 180.001 112.6 178.16 109.567 176.903C106.534 175.647 103.283 175 100 175V150C106.566 150 113.068 151.293 119.134 153.806C125.2 156.318 130.713 160.002 135.355 164.645C139.998 169.287 143.682 174.8 146.194 180.866C148.707 186.932 150 193.434 150 200H125Z" fill="#00FF00"/>
<path d="M100 125C103.283 125 106.534 124.353 109.567 123.097C112.6 121.84 115.356 119.999 117.678 117.678C119.999 115.356 121.84 112.6 123.097 109.567C124.353 106.534 125 103.283 125 100H150C150 106.566 148.707 113.068 146.194 119.134C143.682 125.2 139.998 130.713 135.355 135.355C130.713 139.998 125.2 143.682 119.134 146.194C113.068 148.707 106.566 150 100 150V125Z" fill="#00FF00"/>
<path d="M75 200C75 203.283 75.647 206.534 76.9033 209.567C78.1597 212.6 80.0009 215.356 82.3223 217.678C84.6436 219.999 87.3996 221.84 90.4326 223.097C93.4658 224.353 96.717 225 100 225V250C93.4341 250 86.9324 248.707 80.8662 246.194C74.7999 243.682 69.2875 239.998 64.6445 235.355C60.0016 230.713 56.3184 225.2 53.8057 219.134C51.2931 213.068 50 206.566 50 200H75Z" fill="#00FF00"/>
<path d="M100 275C96.717 275 93.4658 275.647 90.4326 276.903C87.3996 278.16 84.6436 280.001 82.3223 282.322C80.0009 284.644 78.1597 287.4 76.9033 290.433C75.647 293.466 75 296.717 75 300H50C50 293.434 51.2931 286.932 53.8057 280.866C56.3184 274.8 60.0016 269.287 64.6445 264.645C69.2875 260.002 74.7999 256.318 80.8662 253.806C86.9324 251.293 93.4341 250 100 250V275Z" fill="#00FF00"/>
<path d="M25 300C25 296.717 24.353 293.466 23.0967 290.433C21.8403 287.4 19.9991 284.644 17.6777 282.322C15.3564 280.001 12.6004 278.16 9.56738 276.903C6.53424 275.647 3.28305 275 0 275V250C6.56593 250 13.0676 251.293 19.1338 253.806C25.2001 256.318 30.7125 260.002 35.3555 264.645C39.9984 269.287 43.6816 274.8 46.1943 280.866C48.7069 286.932 50 293.434 50 300H25Z" fill="#00FF00"/>
<path d="M0 225C3.28305 225 6.53424 224.353 9.56738 223.097C12.6004 221.84 15.3564 219.999 17.6777 217.678C19.9991 215.356 21.8403 212.6 23.0967 209.567C24.353 206.534 25 203.283 25 200H50C50 206.566 48.7069 213.068 46.1943 219.134C43.6816 225.2 39.9984 230.713 35.3555 235.355C30.7125 239.998 25.2001 243.682 19.1338 246.194C13.0676 248.707 6.56593 250 0 250V225Z" fill="#00FF00"/>
<path d="M350 0C350 6.56593 351.293 13.0676 353.806 19.1338C356.318 25.2001 360.002 30.7125 364.645 35.3555C369.287 39.9984 374.8 43.6816 380.866 46.1943C386.932 48.7069 393.434 50 400 50V100C386.868 100 373.864 97.4132 361.731 92.3877C349.599 87.3622 338.575 79.9967 329.289 70.7109C320.003 61.4251 312.638 50.401 307.612 38.2686C302.587 26.136 300 13.1322 300 0H350Z" fill="#00FF00"/>
<path d="M400 150C393.434 150 386.932 151.293 380.866 153.806C374.8 156.318 369.287 160.002 364.645 164.645C360.002 169.287 356.318 174.8 353.806 180.866C351.293 186.932 350 193.434 350 200H300C300 186.868 302.587 173.864 307.612 161.731C312.638 149.599 320.003 138.575 329.289 129.289C338.575 120.003 349.599 112.638 361.731 107.612C373.864 102.587 386.868 100 400 100V150Z" fill="#00FF00"/>
<path d="M250 200C250 193.434 248.707 186.932 246.194 180.866C243.682 174.8 239.998 169.287 235.355 164.645C230.713 160.002 225.2 156.318 219.134 153.806C213.068 151.293 206.566 150 200 150V100C213.132 100 226.136 102.587 238.269 107.612C250.401 112.638 261.425 120.003 270.711 129.289C279.997 138.575 287.362 149.599 292.388 161.731C297.413 173.864 300 186.868 300 200H250Z" fill="#00FF00"/>
<path d="M200 50C206.566 50 213.068 48.7069 219.134 46.1943C225.2 43.6816 230.713 39.9984 235.355 35.3555C239.998 30.7125 243.682 25.2001 246.194 19.1338C248.707 13.0676 250 6.56593 250 0H300C300 13.1322 297.413 26.136 292.388 38.2686C287.362 50.401 279.997 61.4251 270.711 70.7109C261.425 79.9967 250.401 87.3622 238.269 92.3877C226.136 97.4132 213.132 100 200 100V50Z" fill="#00FF00"/>
<path d="M375 200C375 203.283 375.647 206.534 376.903 209.567C378.16 212.6 380.001 215.356 382.322 217.678C384.644 219.999 387.4 221.84 390.433 223.097C393.466 224.353 396.717 225 400 225V250C393.434 250 386.932 248.707 380.866 246.194C374.8 243.682 369.287 239.998 364.645 235.355C360.002 230.713 356.318 225.2 353.806 219.134C351.293 213.068 350 206.566 350 200H375Z" fill="#00FF00"/>
<path d="M400 275C396.717 275 393.466 275.647 390.433 276.903C387.4 278.16 384.644 280.001 382.322 282.322C380.001 284.644 378.16 287.4 376.903 290.433C375.647 293.466 375 296.717 375 300H350C350 293.434 351.293 286.932 353.806 280.866C356.318 274.8 360.002 269.287 364.645 264.645C369.287 260.002 374.8 256.318 380.866 253.806C386.932 251.293 393.434 250 400 250V275Z" fill="#00FF00"/>
<path d="M325 300C325 296.717 324.353 293.466 323.097 290.433C321.84 287.4 319.999 284.644 317.678 282.322C315.356 280.001 312.6 278.16 309.567 276.903C306.534 275.647 303.283 275 300 275V250C306.566 250 313.068 251.293 319.134 253.806C325.2 256.318 330.713 260.002 335.355 264.645C339.998 269.287 343.682 274.8 346.194 280.866C348.707 286.932 350 293.434 350 300H325Z" fill="#00FF00"/>
<path d="M300 225C303.283 225 306.534 224.353 309.567 223.097C312.6 221.84 315.356 219.999 317.678 217.678C319.999 215.356 321.84 212.6 323.097 209.567C324.353 206.534 325 203.283 325 200H350C350 206.566 348.707 213.068 346.194 219.134C343.682 225.2 339.998 230.713 335.355 235.355C330.713 239.998 325.2 243.682 319.134 246.194C313.068 248.707 306.566 250 300 250V225Z" fill="#00FF00"/>
</svg>
