<svg width="1000" height="400" viewBox="0 0 1000 400" fill="none" xmlns="http://www.w3.org/2000/svg">
<path d="M500 250C493.434 250 486.932 248.707 480.866 246.194C474.8 243.682 469.287 239.998 464.645 235.355C460.002 230.713 456.318 225.2 453.806 219.134C451.293 213.068 450 206.566 450 200H400C400 213.132 402.587 226.136 407.612 238.269C412.638 250.401 420.003 261.425 429.289 270.711C438.575 279.997 449.599 287.362 461.731 292.388C473.864 297.413 486.868 300 500 300V250Z" fill="#0077FF"/>
<path d="M300 250C306.566 250 313.068 248.707 319.134 246.194C325.2 243.682 330.713 239.998 335.355 235.355C339.998 230.713 343.682 225.2 346.194 219.134C348.707 213.068 350 206.566 350 200H400C400 213.132 397.413 226.136 392.388 238.269C387.362 250.401 379.997 261.425 370.711 270.711C361.425 279.997 350.401 287.362 338.269 292.388C326.136 297.413 313.132 300 300 300V250Z" fill="#0077FF"/>
<path d="M300 350C306.566 350 313.068 348.707 319.134 346.194C325.2 343.682 330.713 339.998 335.355 335.355C339.998 330.713 343.682 325.2 346.194 319.134C348.707 313.068 350 306.566 350 300H400C400 313.132 397.413 326.136 392.388 338.269C387.362 350.401 379.997 361.425 370.711 370.711C361.425 379.997 350.401 387.362 338.269 392.388C326.136 397.413 313.132 400 300 400V350Z" fill="#0077FF"/>
<path d="M500 350C493.434 350 486.932 348.707 480.866 346.194C474.8 343.682 469.287 339.998 464.645 335.355C460.002 330.713 456.318 325.2 453.806 319.134C451.293 313.068 450 306.566 450 300H400C400 313.132 402.587 326.136 407.612 338.269C412.638 350.401 420.003 361.425 429.289 370.711C438.575 379.997 449.599 387.362 461.731 392.388C473.864 397.413 486.868 400 500 400V350Z" fill="#0077FF"/>
<path d="M400 125C396.717 125 393.466 124.353 390.433 123.097C387.4 121.84 384.644 119.999 382.322 117.678C380.001 115.356 378.16 112.6 376.903 109.567C375.647 106.534 375 103.283 375 100H350C350 106.566 351.293 113.068 353.806 119.134C356.318 125.2 360.002 130.713 364.645 135.355C369.287 139.998 374.8 143.682 380.866 146.194C386.932 148.707 393.434 150 400 150V125Z" fill="#0077FF"/>
<path d="M300 125C303.283 125 306.534 124.353 309.567 123.097C312.6 121.84 315.356 119.999 317.678 117.678C319.999 115.356 321.84 112.6 323.097 109.567C324.353 106.534 325 103.283 325 100H350C350 106.566 348.707 113.068 346.194 119.134C343.682 125.2 339.998 130.713 335.355 135.355C330.713 139.998 325.2 143.682 319.134 146.194C313.068 148.707 306.566 150 300 150V125Z" fill="#0077FF"/>
<path d="M300 175C303.283 175 306.534 174.353 309.567 173.097C312.6 171.84 315.356 169.999 317.678 167.678C319.999 165.356 321.84 162.6 323.097 159.567C324.353 156.534 325 153.283 325 150H350C350 156.566 348.707 163.068 346.194 169.134C343.682 175.2 339.998 180.713 335.355 185.355C330.713 189.998 325.2 193.682 319.134 196.194C313.068 198.707 306.566 200 300 200V175Z" fill="#0077FF"/>
<path d="M400 175C396.717 175 393.466 174.353 390.433 173.097C387.4 171.84 384.644 169.999 382.322 167.678C380.001 165.356 378.16 162.6 376.903 159.567C375.647 156.534 375 153.283 375 150H350C350 156.566 351.293 163.068 353.806 169.134C356.318 175.2 360.002 180.713 364.645 185.355C369.287 189.998 374.8 193.682 380.866 196.194C386.932 198.707 393.434 200 400 200V175Z" fill="#0077FF"/>
<path d="M600 225C596.717 225 593.466 224.353 590.433 223.097C587.4 221.84 584.644 219.999 582.322 217.678C580.001 215.356 578.16 212.6 576.903 209.567C575.647 206.534 575 203.283 575 200H550C550 206.566 551.293 213.068 553.806 219.134C556.318 225.2 560.002 230.713 564.645 235.355C569.287 239.998 574.8 243.682 580.866 246.194C586.932 248.707 593.434 250 600 250V225Z" fill="#0077FF"/>
<path d="M500 225C503.283 225 506.534 224.353 509.567 223.097C512.6 221.84 515.356 219.999 517.678 217.678C519.999 215.356 521.84 212.6 523.097 209.567C524.353 206.534 525 203.283 525 200H550C550 206.566 548.707 213.068 546.194 219.134C543.682 225.2 539.998 230.713 535.355 235.355C530.713 239.998 525.2 243.682 519.134 246.194C513.068 248.707 506.566 250 500 250V225Z" fill="#0077FF"/>
<path d="M500 275C503.283 275 506.534 274.353 509.567 273.097C512.6 271.84 515.356 269.999 517.678 267.678C519.999 265.356 521.84 262.6 523.097 259.567C524.353 256.534 525 253.283 525 250H550C550 256.566 548.707 263.068 546.194 269.134C543.682 275.2 539.998 280.713 535.355 285.355C530.713 289.998 525.2 293.682 519.134 296.194C513.068 298.707 506.566 300 500 300V275Z" fill="#0077FF"/>
<path d="M600 275C596.717 275 593.466 274.353 590.433 273.097C587.4 271.84 584.644 269.999 582.322 267.678C580.001 265.356 578.16 262.6 576.903 259.567C575.647 256.534 575 253.283 575 250H550C550 256.566 551.293 263.068 553.806 269.134C556.318 275.2 560.002 280.713 564.645 285.355C569.287 289.998 574.8 293.682 580.866 296.194C586.932 298.707 593.434 300 600 300V275Z" fill="#0077FF"/>
<path d="M700 125C696.717 125 693.466 124.353 690.433 123.097C687.4 121.84 684.644 119.999 682.322 117.678C680.001 115.356 678.16 112.6 676.903 109.567C675.647 106.534 675 103.283 675 100H650C650 106.566 651.293 113.068 653.806 119.134C656.318 125.2 660.002 130.713 664.645 135.355C669.287 139.998 674.8 143.682 680.866 146.194C686.932 148.707 693.434 150 700 150V125Z" fill="#0077FF"/>
<path d="M600 125C603.283 125 606.534 124.353 609.567 123.097C612.6 121.84 615.356 119.999 617.678 117.678C619.999 115.356 621.84 112.6 623.097 109.567C624.353 106.534 625 103.283 625 100H650C650 106.566 648.707 113.068 646.194 119.134C643.682 125.2 639.998 130.713 635.355 135.355C630.713 139.998 625.2 143.682 619.134 146.194C613.068 148.707 606.566 150 600 150V125Z" fill="#0077FF"/>
<path d="M600 175C603.283 175 606.534 174.353 609.567 173.097C612.6 171.84 615.356 169.999 617.678 167.678C619.999 165.356 621.84 162.6 623.097 159.567C624.353 156.534 625 153.283 625 150H650C650 156.566 648.707 163.068 646.194 169.134C643.682 175.2 639.998 180.713 635.355 185.355C630.713 189.998 625.2 193.682 619.134 196.194C613.068 198.707 606.566 200 600 200V175Z" fill="#0077FF"/>
<path d="M700 175C696.717 175 693.466 174.353 690.433 173.097C687.4 171.84 684.644 169.999 682.322 167.678C680.001 165.356 678.16 162.6 676.903 159.567C675.647 156.534 675 153.283 675 150H650C650 156.566 651.293 163.068 653.806 169.134C656.318 175.2 660.002 180.713 664.645 185.355C669.287 189.998 674.8 193.682 680.866 196.194C686.932 198.707 693.434 200 700 200V175Z" fill="#0077FF"/>
<path d="M700 325C696.717 325 693.466 324.353 690.433 323.097C687.4 321.84 684.644 319.999 682.322 317.678C680.001 315.356 678.16 312.6 676.903 309.567C675.647 306.534 675 303.283 675 300H650C650 306.566 651.293 313.068 653.806 319.134C656.318 325.2 660.002 330.713 664.645 335.355C669.287 339.998 674.8 343.682 680.866 346.194C686.932 348.707 693.434 350 700 350V325Z" fill="#0077FF"/>
<path d="M600 325C603.283 325 606.534 324.353 609.567 323.097C612.6 321.84 615.356 319.999 617.678 317.678C619.999 315.356 621.84 312.6 623.097 309.567C624.353 306.534 625 303.283 625 300H650C650 306.566 648.707 313.068 646.194 319.134C643.682 325.2 639.998 330.713 635.355 335.355C630.713 339.998 625.2 343.682 619.134 346.194C613.068 348.707 606.566 350 600 350V325Z" fill="#0077FF"/>
<path d="M600 375C603.283 375 606.534 374.353 609.567 373.097C612.6 371.84 615.356 369.999 617.678 367.678C619.999 365.356 621.84 362.6 623.097 359.567C624.353 356.534 625 353.283 625 350H650C650 356.566 648.707 363.068 646.194 369.134C643.682 375.2 639.998 380.713 635.355 385.355C630.713 389.998 625.2 393.682 619.134 396.194C613.068 398.707 606.566 400 600 400V375Z" fill="#0077FF"/>
<path d="M700 375C696.717 375 693.466 374.353 690.433 373.097C687.4 371.84 684.644 369.999 682.322 367.678C680.001 365.356 678.16 362.6 676.903 359.567C675.647 356.534 675 353.283 675 350H650C650 356.566 651.293 363.068 653.806 369.134C656.318 375.2 660.002 380.713 664.645 385.355C669.287 389.998 674.8 393.682 680.866 396.194C686.932 398.707 693.434 400 700 400V375Z" fill="#0077FF"/>
<path d="M300 325C296.717 325 293.466 324.353 290.433 323.097C287.4 321.84 284.644 319.999 282.322 317.678C280.001 315.356 278.16 312.6 276.903 309.567C275.647 306.534 275 303.283 275 300H250C250 306.566 251.293 313.068 253.806 319.134C256.318 325.2 260.002 330.713 264.645 335.355C269.287 339.998 274.8 343.682 280.866 346.194C286.932 348.707 293.434 350 300 350V325Z" fill="url(#paint0_linear_168_1172)"/>
<path d="M200 325C203.283 325 206.534 324.353 209.567 323.097C212.6 321.84 215.356 319.999 217.678 317.678C219.999 315.356 221.84 312.6 223.097 309.567C224.353 306.534 225 303.283 225 300H250C250 306.566 248.707 313.068 246.194 319.134C243.682 325.2 239.998 330.713 235.355 335.355C230.713 339.998 225.2 343.682 219.134 346.194C213.068 348.707 206.566 350 200 350V325Z" fill="#DEEEFF"/>
<path d="M200 375C203.283 375 206.534 374.353 209.567 373.097C212.6 371.84 215.356 369.999 217.678 367.678C219.999 365.356 221.84 362.6 223.097 359.567C224.353 356.534 225 353.283 225 350H250C250 356.566 248.707 363.068 246.194 369.134C243.682 375.2 239.998 380.713 235.355 385.355C230.713 389.998 225.2 393.682 219.134 396.194C213.068 398.707 206.566 400 200 400V375Z" fill="#DEEEFF"/>
<path d="M300 375C296.717 375 293.466 374.353 290.433 373.097C287.4 371.84 284.644 369.999 282.322 367.678C280.001 365.356 278.16 362.6 276.903 359.567C275.647 356.534 275 353.283 275 350H250C250 356.566 251.293 363.068 253.806 369.134C256.318 375.2 260.002 380.713 264.645 385.355C269.287 389.998 274.8 393.682 280.866 396.194C286.932 398.707 293.434 400 300 400V375Z" fill="url(#paint1_linear_168_1172)"/>
<path d="M700 225C703.283 225 706.534 224.353 709.567 223.097C712.6 221.84 715.356 219.999 717.678 217.678C719.999 215.356 721.84 212.6 723.097 209.567C724.353 206.534 725 203.283 725 200H750C750 206.566 748.707 213.068 746.194 219.134C743.682 225.2 739.998 230.713 735.355 235.355C730.713 239.998 725.2 243.682 719.134 246.194C713.068 248.707 706.566 250 700 250V225Z" fill="url(#paint2_linear_168_1172)"/>
<path d="M800 225C796.717 225 793.466 224.353 790.433 223.097C787.4 221.84 784.644 219.999 782.322 217.678C780.001 215.356 778.16 212.6 776.903 209.567C775.647 206.534 775 203.283 775 200H750C750 206.566 751.293 213.068 753.806 219.134C756.318 225.2 760.002 230.713 764.645 235.355C769.287 239.998 774.8 243.682 780.866 246.194C786.932 248.707 793.434 250 800 250V225Z" fill="#DEEEFF"/>
<path d="M800 275C796.717 275 793.466 274.353 790.433 273.097C787.4 271.84 784.644 269.999 782.322 267.678C780.001 265.356 778.16 262.6 776.903 259.567C775.647 256.534 775 253.283 775 250H750C750 256.566 751.293 263.068 753.806 269.134C756.318 275.2 760.002 280.713 764.645 285.355C769.287 289.998 774.8 293.682 780.866 296.194C786.932 298.707 793.434 300 800 300V275Z" fill="#DEEEFF"/>
<path d="M700 275C703.283 275 706.534 274.353 709.567 273.097C712.6 271.84 715.356 269.999 717.678 267.678C719.999 265.356 721.84 262.6 723.097 259.567C724.353 256.534 725 253.283 725 250H750C750 256.566 748.707 263.068 746.194 269.134C743.682 275.2 739.998 280.713 735.355 285.355C730.713 289.998 725.2 293.682 719.134 296.194C713.068 298.707 706.566 300 700 300V275Z" fill="url(#paint3_linear_168_1172)"/>
<path d="M900 225C896.717 225 893.466 224.353 890.433 223.097C887.4 221.84 884.644 219.999 882.322 217.678C880.001 215.356 878.16 212.6 876.903 209.567C875.647 206.534 875 203.283 875 200H850C850 206.566 851.293 213.068 853.806 219.134C856.318 225.2 860.002 230.713 864.645 235.355C869.287 239.998 874.8 243.682 880.866 246.194C886.932 248.707 893.434 250 900 250V225Z" fill="#DEEEFF"/>
<path d="M800 225C803.283 225 806.534 224.353 809.567 223.097C812.6 221.84 815.356 219.999 817.678 217.678C819.999 215.356 821.84 212.6 823.097 209.567C824.353 206.534 825 203.283 825 200H850C850 206.566 848.707 213.068 846.194 219.134C843.682 225.2 839.998 230.713 835.355 235.355C830.713 239.998 825.2 243.682 819.134 246.194C813.068 248.707 806.566 250 800 250V225Z" fill="#DEEEFF"/>
<path d="M800 275C803.283 275 806.534 274.353 809.567 273.097C812.6 271.84 815.356 269.999 817.678 267.678C819.999 265.356 821.84 262.6 823.097 259.567C824.353 256.534 825 253.283 825 250H850C850 256.566 848.707 263.068 846.194 269.134C843.682 275.2 839.998 280.713 835.355 285.355C830.713 289.998 825.2 293.682 819.134 296.194C813.068 298.707 806.566 300 800 300V275Z" fill="#DEEEFF"/>
<path d="M900 275C896.717 275 893.466 274.353 890.433 273.097C887.4 271.84 884.644 269.999 882.322 267.678C880.001 265.356 878.16 262.6 876.903 259.567C875.647 256.534 875 253.283 875 250H850C850 256.566 851.293 263.068 853.806 269.134C856.318 275.2 860.002 280.713 864.645 285.355C869.287 289.998 874.8 293.682 880.866 296.194C886.932 298.707 893.434 300 900 300V275Z" fill="#DEEEFF"/>
<path d="M100 125C96.717 125 93.4658 124.353 90.4326 123.097C87.3996 121.84 84.6436 119.999 82.3223 117.678C80.0009 115.356 78.1597 112.6 76.9033 109.567C75.647 106.534 75 103.283 75 100H50C50 106.566 51.2931 113.068 53.8057 119.134C56.3184 125.2 60.0016 130.713 64.6445 135.355C69.2875 139.998 74.7999 143.682 80.8662 146.194C86.9324 148.707 93.4341 150 100 150V125Z" fill="#DEEEFF"/>
<path d="M0 125C3.28305 125 6.53424 124.353 9.56738 123.097C12.6004 121.84 15.3564 119.999 17.6777 117.678C19.9991 115.356 21.8403 112.6 23.0967 109.567C24.353 106.534 25 103.283 25 100H50C50 106.566 48.7069 113.068 46.1943 119.134C43.6816 125.2 39.9984 130.713 35.3555 135.355C30.7125 139.998 25.2001 143.682 19.1338 146.194C13.0676 148.707 6.56593 150 0 150V125Z" fill="#DEEEFF"/>
<path d="M0 175C3.28305 175 6.53424 174.353 9.56738 173.097C12.6004 171.84 15.3564 169.999 17.6777 167.678C19.9991 165.356 21.8403 162.6 23.0967 159.567C24.353 156.534 25 153.283 25 150H50C50 156.566 48.7069 163.068 46.1943 169.134C43.6816 175.2 39.9984 180.713 35.3555 185.355C30.7125 189.998 25.2001 193.682 19.1338 196.194C13.0676 198.707 6.56593 200 0 200V175Z" fill="#DEEEFF"/>
<path d="M100 175C96.717 175 93.4658 174.353 90.4326 173.097C87.3996 171.84 84.6436 169.999 82.3223 167.678C80.0009 165.356 78.1597 162.6 76.9033 159.567C75.647 156.534 75 153.283 75 150H50C50 156.566 51.2931 163.068 53.8057 169.134C56.3184 175.2 60.0016 180.713 64.6445 185.355C69.2875 189.998 74.7999 193.682 80.8662 196.194C86.9324 198.707 93.4341 200 100 200V175Z" fill="#DEEEFF"/>
<path d="M1000 25C996.717 25 993.466 24.353 990.433 23.0967C987.4 21.8403 984.644 19.9991 982.322 17.6777C980.001 15.3564 978.16 12.6004 976.903 9.56738C975.647 6.53424 975 3.28305 975 0H950C950 6.56593 951.293 13.0676 953.806 19.1338C956.318 25.2001 960.002 30.7125 964.645 35.3555C969.287 39.9984 974.8 43.6816 980.866 46.1943C986.932 48.7069 993.434 50 1000 50V25Z" fill="#DEEEFF"/>
<path d="M900 25C903.283 25 906.534 24.353 909.567 23.0967C912.6 21.8403 915.356 19.9991 917.678 17.6777C919.999 15.3564 921.84 12.6004 923.097 9.56738C924.353 6.53424 925 3.28305 925 0H950C950 6.56593 948.707 13.0676 946.194 19.1338C943.682 25.2001 939.998 30.7125 935.355 35.3555C930.713 39.9984 925.2 43.6816 919.134 46.1943C913.068 48.7069 906.566 50 900 50V25Z" fill="#DEEEFF"/>
<path d="M900 75C903.283 75 906.534 74.353 909.567 73.0967C912.6 71.8403 915.356 69.9991 917.678 67.6777C919.999 65.3564 921.84 62.6004 923.097 59.5674C924.353 56.5342 925 53.283 925 50H950C950 56.5659 948.707 63.0676 946.194 69.1338C943.682 75.2001 939.998 80.7125 935.355 85.3555C930.713 89.9984 925.2 93.6816 919.134 96.1943C913.068 98.7069 906.566 100 900 100V75Z" fill="#DEEEFF"/>
<path d="M1000 75C996.717 75 993.466 74.353 990.433 73.0967C987.4 71.8403 984.644 69.9991 982.322 67.6777C980.001 65.3564 978.16 62.6004 976.903 59.5674C975.647 56.5342 975 53.283 975 50H950C950 56.5659 951.293 63.0676 953.806 69.1338C956.318 75.2001 960.002 80.7125 964.645 85.3555C969.287 89.9984 974.8 93.6816 980.866 96.1943C986.932 98.7069 993.434 100 1000 100V75Z" fill="#DEEEFF"/>
<path d="M100 25C96.717 25 93.4658 24.353 90.4326 23.0967C87.3996 21.8403 84.6436 19.9991 82.3223 17.6777C80.0009 15.3564 78.1597 12.6004 76.9033 9.56738C75.647 6.53424 75 3.28305 75 0H50C50 6.56593 51.2931 13.0676 53.8057 19.1338C56.3184 25.2001 60.0016 30.7125 64.6445 35.3555C69.2875 39.9984 74.7999 43.6816 80.8662 46.1943C86.9324 48.7069 93.4341 50 100 50V25Z" fill="#DEEEFF"/>
<path d="M0 25C3.28305 25 6.53424 24.353 9.56738 23.0967C12.6004 21.8403 15.3564 19.9991 17.6777 17.6777C19.9991 15.3564 21.8403 12.6004 23.0967 9.56738C24.353 6.53424 25 3.28305 25 0H50C50 6.56593 48.7069 13.0676 46.1943 19.1338C43.6816 25.2001 39.9984 30.7125 35.3555 35.3555C30.7125 39.9984 25.2001 43.6816 19.1338 46.1943C13.0676 48.7069 6.56593 50 0 50V25Z" fill="#DEEEFF"/>
<path d="M0 75C3.28305 75 6.53424 74.353 9.56738 73.0967C12.6004 71.8403 15.3564 69.9991 17.6777 67.6777C19.9991 65.3564 21.8403 62.6004 23.0967 59.5674C24.353 56.5342 25 53.283 25 50H50C50 56.5659 48.7069 63.0676 46.1943 69.1338C43.6816 75.2001 39.9984 80.7125 35.3555 85.3555C30.7125 89.9984 25.2001 93.6816 19.1338 96.1943C13.0676 98.7069 6.56593 100 0 100V75Z" fill="#DEEEFF"/>
<path d="M100 75C96.717 75 93.4658 74.353 90.4326 73.0967C87.3996 71.8403 84.6436 69.9991 82.3223 67.6777C80.0009 65.3564 78.1597 62.6004 76.9033 59.5674C75.647 56.5342 75 53.283 75 50H50C50 56.5659 51.2931 63.0676 53.8057 69.1338C56.3184 75.2001 60.0016 80.7125 64.6445 85.3555C69.2875 89.9984 74.7999 93.6816 80.8662 96.1943C86.9324 98.7069 93.4341 100 100 100V75Z" fill="#DEEEFF"/>
<defs>
<linearGradient id="paint0_linear_168_1172" x1="250" y1="300" x2="300" y2="325" gradientUnits="userSpaceOnUse">
<stop stop-color="#DEEEFF"/>
<stop offset="1" stop-color="#0077FF"/>
</linearGradient>
<linearGradient id="paint1_linear_168_1172" x1="250" y1="350" x2="300" y2="375" gradientUnits="userSpaceOnUse">
<stop stop-color="#DEEEFF"/>
<stop offset="1" stop-color="#0077FF"/>
</linearGradient>
<linearGradient id="paint2_linear_168_1172" x1="750" y1="200" x2="700" y2="225" gradientUnits="userSpaceOnUse">
<stop stop-color="#DEEEFF"/>
<stop offset="1" stop-color="#0077FF"/>
</linearGradient>
<linearGradient id="paint3_linear_168_1172" x1="750" y1="250" x2="700" y2="275" gradientUnits="userSpaceOnUse">
<stop stop-color="#DEEEFF"/>
<stop offset="1" stop-color="#0077FF"/>
</linearGradient>
</defs>
</svg>
