<svg width="400" height="900" viewBox="0 0 400 900" fill="none" xmlns="http://www.w3.org/2000/svg">
<path d="M200 750C193.434 750 186.932 748.707 180.866 746.194C174.8 743.682 169.287 739.998 164.645 735.355C160.002 730.713 156.318 725.2 153.806 719.134C151.293 713.068 150 706.566 150 700H100C100 713.132 102.587 726.136 107.612 738.269C112.638 750.401 120.003 761.425 129.289 770.711C138.575 779.997 149.599 787.362 161.731 792.388C173.864 797.413 186.868 800 200 800V750Z" fill="#0077FF"/>
<path d="M0 750C6.56593 750 13.0676 748.707 19.1338 746.194C25.2001 743.682 30.7125 739.998 35.3555 735.355C39.9984 730.713 43.6816 725.2 46.1943 719.134C48.7069 713.068 50 706.566 50 700H100C100 713.132 97.4132 726.136 92.3877 738.269C87.3622 750.401 79.9967 761.425 70.7109 770.711C61.4251 779.997 50.401 787.362 38.2686 792.388C26.136 797.413 13.1322 800 0 800V750Z" fill="#0077FF"/>
<path d="M0 850C6.56593 850 13.0676 848.707 19.1338 846.194C25.2001 843.682 30.7125 839.998 35.3555 835.355C39.9984 830.713 43.6816 825.2 46.1943 819.134C48.7069 813.068 50 806.566 50 800H100C100 813.132 97.4132 826.136 92.3877 838.269C87.3622 850.401 79.9967 861.425 70.7109 870.711C61.4251 879.997 50.401 887.362 38.2686 892.388C26.136 897.413 13.1322 900 0 900V850Z" fill="#0077FF"/>
<path d="M200 850C193.434 850 186.932 848.707 180.866 846.194C174.8 843.682 169.287 839.998 164.645 835.355C160.002 830.713 156.318 825.2 153.806 819.134C151.293 813.068 150 806.566 150 800H100C100 813.132 102.587 826.136 107.612 838.269C112.638 850.401 120.003 861.425 129.289 870.711C138.575 879.997 149.599 887.362 161.731 892.388C173.864 897.413 186.868 900 200 900V850Z" fill="#0077FF"/>
<path d="M100 625C96.717 625 93.4658 624.353 90.4326 623.097C87.3996 621.84 84.6436 619.999 82.3223 617.678C80.0009 615.356 78.1597 612.6 76.9033 609.567C75.647 606.534 75 603.283 75 600H50C50 606.566 51.2931 613.068 53.8057 619.134C56.3184 625.2 60.0016 630.713 64.6445 635.355C69.2875 639.998 74.7999 643.682 80.8662 646.194C86.9324 648.707 93.4341 650 100 650V625Z" fill="#0077FF"/>
<path d="M0 625C3.28305 625 6.53424 624.353 9.56738 623.097C12.6004 621.84 15.3564 619.999 17.6777 617.678C19.9991 615.356 21.8403 612.6 23.0967 609.567C24.353 606.534 25 603.283 25 600H50C50 606.566 48.7069 613.068 46.1943 619.134C43.6816 625.2 39.9984 630.713 35.3555 635.355C30.7125 639.998 25.2001 643.682 19.1338 646.194C13.0676 648.707 6.56593 650 0 650V625Z" fill="#0077FF"/>
<path d="M0 675C3.28305 675 6.53424 674.353 9.56738 673.097C12.6004 671.84 15.3564 669.999 17.6777 667.678C19.9991 665.356 21.8403 662.6 23.0967 659.567C24.353 656.534 25 653.283 25 650H50C50 656.566 48.7069 663.068 46.1943 669.134C43.6816 675.2 39.9984 680.713 35.3555 685.355C30.7125 689.998 25.2001 693.682 19.1338 696.194C13.0676 698.707 6.56593 700 0 700V675Z" fill="#0077FF"/>
<path d="M100 675C96.717 675 93.4658 674.353 90.4326 673.097C87.3996 671.84 84.6436 669.999 82.3223 667.678C80.0009 665.356 78.1597 662.6 76.9033 659.567C75.647 656.534 75 653.283 75 650H50C50 656.566 51.2931 663.068 53.8057 669.134C56.3184 675.2 60.0016 680.713 64.6445 685.355C69.2875 689.998 74.7999 693.682 80.8662 696.194C86.9324 698.707 93.4341 700 100 700V675Z" fill="#0077FF"/>
<path d="M300 725C296.717 725 293.466 724.353 290.433 723.097C287.4 721.84 284.644 719.999 282.322 717.678C280.001 715.356 278.16 712.6 276.903 709.567C275.647 706.534 275 703.283 275 700H250C250 706.566 251.293 713.068 253.806 719.134C256.318 725.2 260.002 730.713 264.645 735.355C269.287 739.998 274.8 743.682 280.866 746.194C286.932 748.707 293.434 750 300 750V725Z" fill="#0077FF"/>
<path d="M200 725C203.283 725 206.534 724.353 209.567 723.097C212.6 721.84 215.356 719.999 217.678 717.678C219.999 715.356 221.84 712.6 223.097 709.567C224.353 706.534 225 703.283 225 700H250C250 706.566 248.707 713.068 246.194 719.134C243.682 725.2 239.998 730.713 235.355 735.355C230.713 739.998 225.2 743.682 219.134 746.194C213.068 748.707 206.566 750 200 750V725Z" fill="#0077FF"/>
<path d="M200 775C203.283 775 206.534 774.353 209.567 773.097C212.6 771.84 215.356 769.999 217.678 767.678C219.999 765.356 221.84 762.6 223.097 759.567C224.353 756.534 225 753.283 225 750H250C250 756.566 248.707 763.068 246.194 769.134C243.682 775.2 239.998 780.713 235.355 785.355C230.713 789.998 225.2 793.682 219.134 796.194C213.068 798.707 206.566 800 200 800V775Z" fill="#0077FF"/>
<path d="M300 775C296.717 775 293.466 774.353 290.433 773.097C287.4 771.84 284.644 769.999 282.322 767.678C280.001 765.356 278.16 762.6 276.903 759.567C275.647 756.534 275 753.283 275 750H250C250 756.566 251.293 763.068 253.806 769.134C256.318 775.2 260.002 780.713 264.645 785.355C269.287 789.998 274.8 793.682 280.866 796.194C286.932 798.707 293.434 800 300 800V775Z" fill="#0077FF"/>
<path d="M400 625C396.717 625 393.466 624.353 390.433 623.097C387.4 621.84 384.644 619.999 382.322 617.678C380.001 615.356 378.16 612.6 376.903 609.567C375.647 606.534 375 603.283 375 600H350C350 606.566 351.293 613.068 353.806 619.134C356.318 625.2 360.002 630.713 364.645 635.355C369.287 639.998 374.8 643.682 380.866 646.194C386.932 648.707 393.434 650 400 650V625Z" fill="#0077FF"/>
<path d="M300 625C303.283 625 306.534 624.353 309.567 623.097C312.6 621.84 315.356 619.999 317.678 617.678C319.999 615.356 321.84 612.6 323.097 609.567C324.353 606.534 325 603.283 325 600H350C350 606.566 348.707 613.068 346.194 619.134C343.682 625.2 339.998 630.713 335.355 635.355C330.713 639.998 325.2 643.682 319.134 646.194C313.068 648.707 306.566 650 300 650V625Z" fill="#0077FF"/>
<path d="M300 675C303.283 675 306.534 674.353 309.567 673.097C312.6 671.84 315.356 669.999 317.678 667.678C319.999 665.356 321.84 662.6 323.097 659.567C324.353 656.534 325 653.283 325 650H350C350 656.566 348.707 663.068 346.194 669.134C343.682 675.2 339.998 680.713 335.355 685.355C330.713 689.998 325.2 693.682 319.134 696.194C313.068 698.707 306.566 700 300 700V675Z" fill="#0077FF"/>
<path d="M400 675C396.717 675 393.466 674.353 390.433 673.097C387.4 671.84 384.644 669.999 382.322 667.678C380.001 665.356 378.16 662.6 376.903 659.567C375.647 656.534 375 653.283 375 650H350C350 656.566 351.293 663.068 353.806 669.134C356.318 675.2 360.002 680.713 364.645 685.355C369.287 689.998 374.8 693.682 380.866 696.194C386.932 698.707 393.434 700 400 700V675Z" fill="#0077FF"/>
<path d="M400 825C396.717 825 393.466 824.353 390.433 823.097C387.4 821.84 384.644 819.999 382.322 817.678C380.001 815.356 378.16 812.6 376.903 809.567C375.647 806.534 375 803.283 375 800H350C350 806.566 351.293 813.068 353.806 819.134C356.318 825.2 360.002 830.713 364.645 835.355C369.287 839.998 374.8 843.682 380.866 846.194C386.932 848.707 393.434 850 400 850V825Z" fill="#0077FF"/>
<path d="M300 825C303.283 825 306.534 824.353 309.567 823.097C312.6 821.84 315.356 819.999 317.678 817.678C319.999 815.356 321.84 812.6 323.097 809.567C324.353 806.534 325 803.283 325 800H350C350 806.566 348.707 813.068 346.194 819.134C343.682 825.2 339.998 830.713 335.355 835.355C330.713 839.998 325.2 843.682 319.134 846.194C313.068 848.707 306.566 850 300 850V825Z" fill="#0077FF"/>
<path d="M300 875C303.283 875 306.534 874.353 309.567 873.097C312.6 871.84 315.356 869.999 317.678 867.678C319.999 865.356 321.84 862.6 323.097 859.567C324.353 856.534 325 853.283 325 850H350C350 856.566 348.707 863.068 346.194 869.134C343.682 875.2 339.998 880.713 335.355 885.355C330.713 889.998 325.2 893.682 319.134 896.194C313.068 898.707 306.566 900 300 900V875Z" fill="#0077FF"/>
<path d="M400 875C396.717 875 393.466 874.353 390.433 873.097C387.4 871.84 384.644 869.999 382.322 867.678C380.001 865.356 378.16 862.6 376.903 859.567C375.647 856.534 375 853.283 375 850H350C350 856.566 351.293 863.068 353.806 869.134C356.318 875.2 360.002 880.713 364.645 885.355C369.287 889.998 374.8 893.682 380.866 896.194C386.932 898.707 393.434 900 400 900V875Z" fill="#0077FF"/>
<path d="M200 25C196.717 25 193.466 24.353 190.433 23.0967C187.4 21.8403 184.644 19.9991 182.322 17.6777C180.001 15.3564 178.16 12.6004 176.903 9.56738C175.647 6.53424 175 3.28305 175 0H150C150 6.56593 151.293 13.0676 153.806 19.1338C156.318 25.2001 160.002 30.7125 164.645 35.3555C169.287 39.9984 174.8 43.6816 180.866 46.1943C186.932 48.7069 193.434 50 200 50V25Z" fill="#0077FF"/>
<path d="M100 25C103.283 25 106.534 24.353 109.567 23.0967C112.6 21.8403 115.356 19.9991 117.678 17.6777C119.999 15.3564 121.84 12.6004 123.097 9.56738C124.353 6.53424 125 3.28305 125 0H150C150 6.56593 148.707 13.0676 146.194 19.1338C143.682 25.2001 139.998 30.7125 135.355 35.3555C130.713 39.9984 125.2 43.6816 119.134 46.1943C113.068 48.7069 106.566 50 100 50V25Z" fill="#0077FF"/>
<path d="M100 75C103.283 75 106.534 74.353 109.567 73.0967C112.6 71.8403 115.356 69.9991 117.678 67.6777C119.999 65.3564 121.84 62.6004 123.097 59.5674C124.353 56.5342 125 53.283 125 50H150C150 56.5659 148.707 63.0676 146.194 69.1338C143.682 75.2001 139.998 80.7125 135.355 85.3555C130.713 89.9984 125.2 93.6816 119.134 96.1943C113.068 98.7069 106.566 100 100 100V75Z" fill="#0077FF"/>
<path d="M200 75C196.717 75 193.466 74.353 190.433 73.0967C187.4 71.8403 184.644 69.9991 182.322 67.6777C180.001 65.3564 178.16 62.6004 176.903 59.5674C175.647 56.5342 175 53.283 175 50H150C150 56.5659 151.293 63.0676 153.806 69.1338C156.318 75.2001 160.002 80.7125 164.645 85.3555C169.287 89.9984 174.8 93.6816 180.866 96.1943C186.932 98.7069 193.434 100 200 100V75Z" fill="#0077FF"/>
<path d="M300 125C296.717 125 293.466 124.353 290.433 123.097C287.4 121.84 284.644 119.999 282.322 117.678C280.001 115.356 278.16 112.6 276.903 109.567C275.647 106.534 275 103.283 275 100H250C250 106.566 251.293 113.068 253.806 119.134C256.318 125.2 260.002 130.713 264.645 135.355C269.287 139.998 274.8 143.682 280.866 146.194C286.932 148.707 293.434 150 300 150V125Z" fill="#0077FF"/>
<path d="M200 125C203.283 125 206.534 124.353 209.567 123.097C212.6 121.84 215.356 119.999 217.678 117.678C219.999 115.356 221.84 112.6 223.097 109.567C224.353 106.534 225 103.283 225 100H250C250 106.566 248.707 113.068 246.194 119.134C243.682 125.2 239.998 130.713 235.355 135.355C230.713 139.998 225.2 143.682 219.134 146.194C213.068 148.707 206.566 150 200 150V125Z" fill="#0077FF"/>
<path d="M200 175C203.283 175 206.534 174.353 209.567 173.097C212.6 171.84 215.356 169.999 217.678 167.678C219.999 165.356 221.84 162.6 223.097 159.567C224.353 156.534 225 153.283 225 150H250C250 156.566 248.707 163.068 246.194 169.134C243.682 175.2 239.998 180.713 235.355 185.355C230.713 189.998 225.2 193.682 219.134 196.194C213.068 198.707 206.566 200 200 200V175Z" fill="#0077FF"/>
<path d="M300 175C296.717 175 293.466 174.353 290.433 173.097C287.4 171.84 284.644 169.999 282.322 167.678C280.001 165.356 278.16 162.6 276.903 159.567C275.647 156.534 275 153.283 275 150H250C250 156.566 251.293 163.068 253.806 169.134C256.318 175.2 260.002 180.713 264.645 185.355C269.287 189.998 274.8 193.682 280.866 196.194C286.932 198.707 293.434 200 300 200V175Z" fill="#0077FF"/>
<path d="M100 25C96.717 25 93.4658 24.353 90.4326 23.0967C87.3996 21.8403 84.6436 19.9991 82.3223 17.6777C80.0009 15.3564 78.1597 12.6004 76.9033 9.56738C75.647 6.53424 75 3.28305 75 0H50C50 6.56593 51.2931 13.0676 53.8057 19.1338C56.3184 25.2001 60.0016 30.7125 64.6445 35.3555C69.2875 39.9984 74.7999 43.6816 80.8662 46.1943C86.9324 48.7069 93.4341 50 100 50V25Z" fill="#0077FF"/>
<path d="M0 25C3.28305 25 6.53424 24.353 9.56738 23.0967C12.6004 21.8403 15.3564 19.9991 17.6777 17.6777C19.9991 15.3564 21.8403 12.6004 23.0967 9.56738C24.353 6.53424 25 3.28305 25 0H50C50 6.56593 48.7069 13.0676 46.1943 19.1338C43.6816 25.2001 39.9984 30.7125 35.3555 35.3555C30.7125 39.9984 25.2001 43.6816 19.1338 46.1943C13.0676 48.7069 6.56593 50 0 50V25Z" fill="#0077FF"/>
<path d="M0 75C3.28305 75 6.53424 74.353 9.56738 73.0967C12.6004 71.8403 15.3564 69.9991 17.6777 67.6777C19.9991 65.3564 21.8403 62.6004 23.0967 59.5674C24.353 56.5342 25 53.283 25 50H50C50 56.5659 48.7069 63.0676 46.1943 69.1338C43.6816 75.2001 39.9984 80.7125 35.3555 85.3555C30.7125 89.9984 25.2001 93.6816 19.1338 96.1943C13.0676 98.7069 6.56593 100 0 100V75Z" fill="#0077FF"/>
<path d="M100 75C96.717 75 93.4658 74.353 90.4326 73.0967C87.3996 71.8403 84.6436 69.9991 82.3223 67.6777C80.0009 65.3564 78.1597 62.6004 76.9033 59.5674C75.647 56.5342 75 53.283 75 50H50C50 56.5659 51.2931 63.0676 53.8057 69.1338C56.3184 75.2001 60.0016 80.7125 64.6445 85.3555C69.2875 89.9984 74.7999 93.6816 80.8662 96.1943C86.9324 98.7069 93.4341 100 100 100V75Z" fill="#0077FF"/>
<path d="M300 225C296.717 225 293.466 224.353 290.433 223.097C287.4 221.84 284.644 219.999 282.322 217.678C280.001 215.356 278.16 212.6 276.903 209.567C275.647 206.534 275 203.283 275 200H250C250 206.566 251.293 213.068 253.806 219.134C256.318 225.2 260.002 230.713 264.645 235.355C269.287 239.998 274.8 243.682 280.866 246.194C286.932 248.707 293.434 250 300 250V225Z" fill="#0077FF"/>
<path d="M200 225C203.283 225 206.534 224.353 209.567 223.097C212.6 221.84 215.356 219.999 217.678 217.678C219.999 215.356 221.84 212.6 223.097 209.567C224.353 206.534 225 203.283 225 200H250C250 206.566 248.707 213.068 246.194 219.134C243.682 225.2 239.998 230.713 235.355 235.355C230.713 239.998 225.2 243.682 219.134 246.194C213.068 248.707 206.566 250 200 250V225Z" fill="#0077FF"/>
<path d="M200 275C203.283 275 206.534 274.353 209.567 273.097C212.6 271.84 215.356 269.999 217.678 267.678C219.999 265.356 221.84 262.6 223.097 259.567C224.353 256.534 225 253.283 225 250H250C250 256.566 248.707 263.068 246.194 269.134C243.682 275.2 239.998 280.713 235.355 285.355C230.713 289.998 225.2 293.682 219.134 296.194C213.068 298.707 206.566 300 200 300V275Z" fill="#0077FF"/>
<path d="M300 275C296.717 275 293.466 274.353 290.433 273.097C287.4 271.84 284.644 269.999 282.322 267.678C280.001 265.356 278.16 262.6 276.903 259.567C275.647 256.534 275 253.283 275 250H250C250 256.566 251.293 263.068 253.806 269.134C256.318 275.2 260.002 280.713 264.645 285.355C269.287 289.998 274.8 293.682 280.866 296.194C286.932 298.707 293.434 300 300 300V275Z" fill="#0077FF"/>
<path d="M400 125C396.717 125 393.466 124.353 390.433 123.097C387.4 121.84 384.644 119.999 382.322 117.678C380.001 115.356 378.16 112.6 376.903 109.567C375.647 106.534 375 103.283 375 100H350C350 106.566 351.293 113.068 353.806 119.134C356.318 125.2 360.002 130.713 364.645 135.355C369.287 139.998 374.8 143.682 380.866 146.194C386.932 148.707 393.434 150 400 150V125Z" fill="#0077FF"/>
<path d="M300 125C303.283 125 306.534 124.353 309.567 123.097C312.6 121.84 315.356 119.999 317.678 117.678C319.999 115.356 321.84 112.6 323.097 109.567C324.353 106.534 325 103.283 325 100H350C350 106.566 348.707 113.068 346.194 119.134C343.682 125.2 339.998 130.713 335.355 135.355C330.713 139.998 325.2 143.682 319.134 146.194C313.068 148.707 306.566 150 300 150V125Z" fill="#0077FF"/>
<path d="M300 175C303.283 175 306.534 174.353 309.567 173.097C312.6 171.84 315.356 169.999 317.678 167.678C319.999 165.356 321.84 162.6 323.097 159.567C324.353 156.534 325 153.283 325 150H350C350 156.566 348.707 163.068 346.194 169.134C343.682 175.2 339.998 180.713 335.355 185.355C330.713 189.998 325.2 193.682 319.134 196.194C313.068 198.707 306.566 200 300 200V175Z" fill="#0077FF"/>
<path d="M400 175C396.717 175 393.466 174.353 390.433 173.097C387.4 171.84 384.644 169.999 382.322 167.678C380.001 165.356 378.16 162.6 376.903 159.567C375.647 156.534 375 153.283 375 150H350C350 156.566 351.293 163.068 353.806 169.134C356.318 175.2 360.002 180.713 364.645 185.355C369.287 189.998 374.8 193.682 380.866 196.194C386.932 198.707 393.434 200 400 200V175Z" fill="#0077FF"/>
<path d="M100 125C96.717 125 93.4658 124.353 90.4326 123.097C87.3996 121.84 84.6436 119.999 82.3223 117.678C80.0009 115.356 78.1597 112.6 76.9033 109.567C75.647 106.534 75 103.283 75 100H50C50 106.566 51.2931 113.068 53.8057 119.134C56.3184 125.2 60.0016 130.713 64.6445 135.355C69.2875 139.998 74.7999 143.682 80.8662 146.194C86.9324 148.707 93.4341 150 100 150V125Z" fill="#0077FF"/>
<path d="M0 125C3.28305 125 6.53424 124.353 9.56738 123.097C12.6004 121.84 15.3564 119.999 17.6777 117.678C19.9991 115.356 21.8403 112.6 23.0967 109.567C24.353 106.534 25 103.283 25 100H50C50 106.566 48.7069 113.068 46.1943 119.134C43.6816 125.2 39.9984 130.713 35.3555 135.355C30.7125 139.998 25.2001 143.682 19.1338 146.194C13.0676 148.707 6.56593 150 0 150V125Z" fill="#0077FF"/>
<path d="M0 175C3.28305 175 6.53424 174.353 9.56738 173.097C12.6004 171.84 15.3564 169.999 17.6777 167.678C19.9991 165.356 21.8403 162.6 23.0967 159.567C24.353 156.534 25 153.283 25 150H50C50 156.566 48.7069 163.068 46.1943 169.134C43.6816 175.2 39.9984 180.713 35.3555 185.355C30.7125 189.998 25.2001 193.682 19.1338 196.194C13.0676 198.707 6.56593 200 0 200V175Z" fill="#0077FF"/>
<path d="M100 175C96.717 175 93.4658 174.353 90.4326 173.097C87.3996 171.84 84.6436 169.999 82.3223 167.678C80.0009 165.356 78.1597 162.6 76.9033 159.567C75.647 156.534 75 153.283 75 150H50C50 156.566 51.2931 163.068 53.8057 169.134C56.3184 175.2 60.0016 180.713 64.6445 185.355C69.2875 189.998 74.7999 193.682 80.8662 196.194C86.9324 198.707 93.4341 200 100 200V175Z" fill="#0077FF"/>
<path d="M400 25C396.717 25 393.466 24.353 390.433 23.0967C387.4 21.8403 384.644 19.9991 382.322 17.6777C380.001 15.3564 378.16 12.6004 376.903 9.56738C375.647 6.53424 375 3.28305 375 0H350C350 6.56593 351.293 13.0676 353.806 19.1338C356.318 25.2001 360.002 30.7125 364.645 35.3555C369.287 39.9984 374.8 43.6816 380.866 46.1943C386.932 48.7069 393.434 50 400 50V25Z" fill="#0077FF"/>
<path d="M300 25C303.283 25 306.534 24.353 309.567 23.0967C312.6 21.8403 315.356 19.9991 317.678 17.6777C319.999 15.3564 321.84 12.6004 323.097 9.56738C324.353 6.53424 325 3.28305 325 0H350C350 6.56593 348.707 13.0676 346.194 19.1338C343.682 25.2001 339.998 30.7125 335.355 35.3555C330.713 39.9984 325.2 43.6816 319.134 46.1943C313.068 48.7069 306.566 50 300 50V25Z" fill="#0077FF"/>
<path d="M300 75C303.283 75 306.534 74.353 309.567 73.0967C312.6 71.8403 315.356 69.9991 317.678 67.6777C319.999 65.3564 321.84 62.6004 323.097 59.5674C324.353 56.5342 325 53.283 325 50H350C350 56.5659 348.707 63.0676 346.194 69.1338C343.682 75.2001 339.998 80.7125 335.355 85.3555C330.713 89.9984 325.2 93.6816 319.134 96.1943C313.068 98.7069 306.566 100 300 100V75Z" fill="#0077FF"/>
<path d="M400 75C396.717 75 393.466 74.353 390.433 73.0967C387.4 71.8403 384.644 69.9991 382.322 67.6777C380.001 65.3564 378.16 62.6004 376.903 59.5674C375.647 56.5342 375 53.283 375 50H350C350 56.5659 351.293 63.0676 353.806 69.1338C356.318 75.2001 360.002 80.7125 364.645 85.3555C369.287 89.9984 374.8 93.6816 380.866 96.1943C386.932 98.7069 393.434 100 400 100V75Z" fill="#0077FF"/>
</svg>
