<svg width="400" height="900" viewBox="0 0 400 900" fill="none" xmlns="http://www.w3.org/2000/svg">
<path d="M0 875C3.28305 875 6.53424 875.647 9.56738 876.903C12.6004 878.16 15.3564 880.001 17.6777 882.322C19.9991 884.644 21.8403 887.4 23.0967 890.433C24.353 893.466 25 896.717 25 900H50C50 893.434 48.7069 886.932 46.1943 880.866C43.6816 874.8 39.9984 869.287 35.3555 864.645C30.7125 860.002 25.2001 856.318 19.1338 853.806C13.0676 851.293 6.56593 850 0 850V875Z" fill="white"/>
<path d="M50 875C53.283 875 56.5342 874.353 59.5674 873.097C62.6004 871.84 65.3564 869.999 67.6777 867.678C69.9991 865.356 71.8403 862.6 73.0967 859.567C74.353 856.534 75 853.283 75 850H100C100 856.566 98.7069 863.068 96.1943 869.134C93.6816 875.2 89.9984 880.713 85.3555 885.355C80.7125 889.998 75.2001 893.682 69.1338 896.194C63.0676 898.707 56.5659 900 50 900V875Z" fill="white"/>
<path d="M50 825C46.717 825 43.4658 825.647 40.4326 826.903C37.3996 828.16 34.6436 830.001 32.3223 832.322C30.0009 834.644 28.1597 837.4 26.9033 840.433C25.647 843.466 25 846.717 25 850H0C2.87006e-07 843.434 1.29305 836.932 3.80566 830.866C6.3184 824.8 10.0016 819.287 14.6445 814.645C19.2875 810.002 24.7999 806.318 30.8662 803.806C36.9324 801.293 43.4341 800 50 800V825Z" fill="white"/>
<path d="M100 825C96.717 825 93.4658 824.353 90.4326 823.097C87.3996 821.84 84.6436 819.999 82.3223 817.678C80.0009 815.356 78.1597 812.6 76.9033 809.567C75.647 806.534 75 803.283 75 800H50C50 806.566 51.2931 813.068 53.8057 819.134C56.3184 825.2 60.0016 830.713 64.6445 835.355C69.2875 839.998 74.7999 843.682 80.8662 846.194C86.9324 848.707 93.4341 850 100 850V825Z" fill="white"/>
<path d="M100 775C103.283 775 106.534 775.647 109.567 776.903C112.6 778.16 115.356 780.001 117.678 782.322C119.999 784.644 121.84 787.4 123.097 790.433C124.353 793.466 125 796.717 125 800H150C150 793.434 148.707 786.932 146.194 780.866C143.682 774.8 139.998 769.287 135.355 764.645C130.713 760.002 125.2 756.318 119.134 753.806C113.068 751.293 106.566 750 100 750V775Z" fill="white"/>
<path d="M150 775C153.283 775 156.534 774.353 159.567 773.097C162.6 771.84 165.356 769.999 167.678 767.678C169.999 765.356 171.84 762.6 173.097 759.567C174.353 756.534 175 753.283 175 750H200C200 756.566 198.707 763.068 196.194 769.134C193.682 775.2 189.998 780.713 185.355 785.355C180.713 789.998 175.2 793.682 169.134 796.194C163.068 798.707 156.566 800 150 800V775Z" fill="white"/>
<path d="M150 725C146.717 725 143.466 725.647 140.433 726.903C137.4 728.16 134.644 730.001 132.322 732.322C130.001 734.644 128.16 737.4 126.903 740.433C125.647 743.466 125 746.717 125 750H100C100 743.434 101.293 736.932 103.806 730.866C106.318 724.8 110.002 719.287 114.645 714.645C119.287 710.002 124.8 706.318 130.866 703.806C136.932 701.293 143.434 700 150 700V725Z" fill="white"/>
<path d="M200 725C196.717 725 193.466 724.353 190.433 723.097C187.4 721.84 184.644 719.999 182.322 717.678C180.001 715.356 178.16 712.6 176.903 709.567C175.647 706.534 175 703.283 175 700H150C150 706.566 151.293 713.068 153.806 719.134C156.318 725.2 160.002 730.713 164.645 735.355C169.287 739.998 174.8 743.682 180.866 746.194C186.932 748.707 193.434 750 200 750V725Z" fill="white"/>
<path d="M200 675C203.283 675 206.534 675.647 209.567 676.903C212.6 678.16 215.356 680.001 217.678 682.322C219.999 684.644 221.84 687.4 223.097 690.433C224.353 693.466 225 696.717 225 700H250C250 693.434 248.707 686.932 246.194 680.866C243.682 674.8 239.998 669.287 235.355 664.645C230.713 660.002 225.2 656.318 219.134 653.806C213.068 651.293 206.566 650 200 650V675Z" fill="white"/>
<path d="M250 675C253.283 675 256.534 674.353 259.567 673.097C262.6 671.84 265.356 669.999 267.678 667.678C269.999 665.356 271.84 662.6 273.097 659.567C274.353 656.534 275 653.283 275 650H300C300 656.566 298.707 663.068 296.194 669.134C293.682 675.2 289.998 680.713 285.355 685.355C280.713 689.998 275.2 693.682 269.134 696.194C263.068 698.707 256.566 700 250 700V675Z" fill="white"/>
<path d="M250 625C246.717 625 243.466 625.647 240.433 626.903C237.4 628.16 234.644 630.001 232.322 632.322C230.001 634.644 228.16 637.4 226.903 640.433C225.647 643.466 225 646.717 225 650H200C200 643.434 201.293 636.932 203.806 630.866C206.318 624.8 210.002 619.287 214.645 614.645C219.287 610.002 224.8 606.318 230.866 603.806C236.932 601.293 243.434 600 250 600V625Z" fill="white"/>
<path d="M300 625C296.717 625 293.466 624.353 290.433 623.097C287.4 621.84 284.644 619.999 282.322 617.678C280.001 615.356 278.16 612.6 276.903 609.567C275.647 606.534 275 603.283 275 600H250C250 606.566 251.293 613.068 253.806 619.134C256.318 625.2 260.002 630.713 264.645 635.355C269.287 639.998 274.8 643.682 280.866 646.194C286.932 648.707 293.434 650 300 650V625Z" fill="white"/>
<path d="M100 675C103.283 675 106.534 675.647 109.567 676.903C112.6 678.16 115.356 680.001 117.678 682.322C119.999 684.644 121.84 687.4 123.097 690.433C124.353 693.466 125 696.717 125 700H150C150 693.434 148.707 686.932 146.194 680.866C143.682 674.8 139.998 669.287 135.355 664.645C130.713 660.002 125.2 656.318 119.134 653.806C113.068 651.293 106.566 650 100 650V675Z" fill="white"/>
<path d="M150 675C153.283 675 156.534 674.353 159.567 673.097C162.6 671.84 165.356 669.999 167.678 667.678C169.999 665.356 171.84 662.6 173.097 659.567C174.353 656.534 175 653.283 175 650H200C200 656.566 198.707 663.068 196.194 669.134C193.682 675.2 189.998 680.713 185.355 685.355C180.713 689.998 175.2 693.682 169.134 696.194C163.068 698.707 156.566 700 150 700V675Z" fill="white"/>
<path d="M150 625C146.717 625 143.466 625.647 140.433 626.903C137.4 628.16 134.644 630.001 132.322 632.322C130.001 634.644 128.16 637.4 126.903 640.433C125.647 643.466 125 646.717 125 650H100C100 643.434 101.293 636.932 103.806 630.866C106.318 624.8 110.002 619.287 114.645 614.645C119.287 610.002 124.8 606.318 130.866 603.806C136.932 601.293 143.434 600 150 600V625Z" fill="white"/>
<path d="M200 625C196.717 625 193.466 624.353 190.433 623.097C187.4 621.84 184.644 619.999 182.322 617.678C180.001 615.356 178.16 612.6 176.903 609.567C175.647 606.534 175 603.283 175 600H150C150 606.566 151.293 613.068 153.806 619.134C156.318 625.2 160.002 630.713 164.645 635.355C169.287 639.998 174.8 643.682 180.866 646.194C186.932 648.707 193.434 650 200 650V625Z" fill="white"/>
<path d="M300 775C303.283 775 306.534 775.647 309.567 776.903C312.6 778.16 315.356 780.001 317.678 782.322C319.999 784.644 321.84 787.4 323.097 790.433C324.353 793.466 325 796.717 325 800H350C350 793.434 348.707 786.932 346.194 780.866C343.682 774.8 339.998 769.287 335.355 764.645C330.713 760.002 325.2 756.318 319.134 753.806C313.068 751.293 306.566 750 300 750V775Z" fill="white"/>
<path d="M350 775C353.283 775 356.534 774.353 359.567 773.097C362.6 771.84 365.356 769.999 367.678 767.678C369.999 765.356 371.84 762.6 373.097 759.567C374.353 756.534 375 753.283 375 750H400C400 756.566 398.707 763.068 396.194 769.134C393.682 775.2 389.998 780.713 385.355 785.355C380.713 789.998 375.2 793.682 369.134 796.194C363.068 798.707 356.566 800 350 800V775Z" fill="white"/>
<path d="M350 725C346.717 725 343.466 725.647 340.433 726.903C337.4 728.16 334.644 730.001 332.322 732.322C330.001 734.644 328.16 737.4 326.903 740.433C325.647 743.466 325 746.717 325 750H300C300 743.434 301.293 736.932 303.806 730.866C306.318 724.8 310.002 719.287 314.645 714.645C319.287 710.002 324.8 706.318 330.866 703.806C336.932 701.293 343.434 700 350 700V725Z" fill="white"/>
<path d="M400 725C396.717 725 393.466 724.353 390.433 723.097C387.4 721.84 384.644 719.999 382.322 717.678C380.001 715.356 378.16 712.6 376.903 709.567C375.647 706.534 375 703.283 375 700H350C350 706.566 351.293 713.068 353.806 719.134C356.318 725.2 360.002 730.713 364.645 735.355C369.287 739.998 374.8 743.682 380.866 746.194C386.932 748.707 393.434 750 400 750V725Z" fill="white"/>
<path d="M200 875C203.283 875 206.534 875.647 209.567 876.903C212.6 878.16 215.356 880.001 217.678 882.322C219.999 884.644 221.84 887.4 223.097 890.433C224.353 893.466 225 896.717 225 900H250C250 893.434 248.707 886.932 246.194 880.866C243.682 874.8 239.998 869.287 235.355 864.645C230.713 860.002 225.2 856.318 219.134 853.806C213.068 851.293 206.566 850 200 850V875Z" fill="white"/>
<path d="M250 875C253.283 875 256.534 874.353 259.567 873.097C262.6 871.84 265.356 869.999 267.678 867.678C269.999 865.356 271.84 862.6 273.097 859.567C274.353 856.534 275 853.283 275 850H300C300 856.566 298.707 863.068 296.194 869.134C293.682 875.2 289.998 880.713 285.355 885.355C280.713 889.998 275.2 893.682 269.134 896.194C263.068 898.707 256.566 900 250 900V875Z" fill="white"/>
<path d="M250 825C246.717 825 243.466 825.647 240.433 826.903C237.4 828.16 234.644 830.001 232.322 832.322C230.001 834.644 228.16 837.4 226.903 840.433C225.647 843.466 225 846.717 225 850H200C200 843.434 201.293 836.932 203.806 830.866C206.318 824.8 210.002 819.287 214.645 814.645C219.287 810.002 224.8 806.318 230.866 803.806C236.932 801.293 243.434 800 250 800V825Z" fill="white"/>
<path d="M300 825C296.717 825 293.466 824.353 290.433 823.097C287.4 821.84 284.644 819.999 282.322 817.678C280.001 815.356 278.16 812.6 276.903 809.567C275.647 806.534 275 803.283 275 800H250C250 806.566 251.293 813.068 253.806 819.134C256.318 825.2 260.002 830.713 264.645 835.355C269.287 839.998 274.8 843.682 280.866 846.194C286.932 848.707 293.434 850 300 850V825Z" fill="white"/>
<path d="M0 675C3.28305 675 6.53424 675.647 9.56738 676.903C12.6004 678.16 15.3564 680.001 17.6777 682.322C19.9991 684.644 21.8403 687.4 23.0967 690.433C24.353 693.466 25 696.717 25 700H50C50 693.434 48.7069 686.932 46.1943 680.866C43.6816 674.8 39.9984 669.287 35.3555 664.645C30.7125 660.002 25.2001 656.318 19.1338 653.806C13.0676 651.293 6.56593 650 0 650V675Z" fill="white"/>
<path d="M50 675C53.283 675 56.5342 674.353 59.5674 673.097C62.6004 671.84 65.3564 669.999 67.6777 667.678C69.9991 665.356 71.8403 662.6 73.0967 659.567C74.353 656.534 75 653.283 75 650H100C100 656.566 98.7069 663.068 96.1943 669.134C93.6816 675.2 89.9984 680.713 85.3555 685.355C80.7125 689.998 75.2001 693.682 69.1338 696.194C63.0676 698.707 56.5659 700 50 700V675Z" fill="white"/>
<path d="M50 625C46.717 625 43.4658 625.647 40.4326 626.903C37.3996 628.16 34.6436 630.001 32.3223 632.322C30.0009 634.644 28.1597 637.4 26.9033 640.433C25.647 643.466 25 646.717 25 650H0C2.87006e-07 643.434 1.29305 636.932 3.80566 630.866C6.3184 624.8 10.0016 619.287 14.6445 614.645C19.2875 610.002 24.7999 606.318 30.8662 603.806C36.9324 601.293 43.4341 600 50 600V625Z" fill="white"/>
<path d="M100 625C96.717 625 93.4658 624.353 90.4326 623.097C87.3996 621.84 84.6436 619.999 82.3223 617.678C80.0009 615.356 78.1597 612.6 76.9033 609.567C75.647 606.534 75 603.283 75 600H50C50 606.566 51.2931 613.068 53.8057 619.134C56.3184 625.2 60.0016 630.713 64.6445 635.355C69.2875 639.998 74.7999 643.682 80.8662 646.194C86.9324 648.707 93.4341 650 100 650V625Z" fill="white"/>
<path d="M0 175C3.28305 175 6.53424 175.647 9.56738 176.903C12.6004 178.16 15.3564 180.001 17.6777 182.322C19.9991 184.644 21.8403 187.4 23.0967 190.433C24.353 193.466 25 196.717 25 200H50C50 193.434 48.7069 186.932 46.1943 180.866C43.6816 174.8 39.9984 169.287 35.3555 164.645C30.7125 160.002 25.2001 156.318 19.1338 153.806C13.0676 151.293 6.56593 150 0 150V175Z" fill="white"/>
<path d="M50 175C53.283 175 56.5342 174.353 59.5674 173.097C62.6004 171.84 65.3564 169.999 67.6777 167.678C69.9991 165.356 71.8403 162.6 73.0967 159.567C74.353 156.534 75 153.283 75 150H100C100 156.566 98.7069 163.068 96.1943 169.134C93.6816 175.2 89.9984 180.713 85.3555 185.355C80.7125 189.998 75.2001 193.682 69.1338 196.194C63.0676 198.707 56.5659 200 50 200V175Z" fill="white"/>
<path d="M50 125C46.717 125 43.4658 125.647 40.4326 126.903C37.3996 128.16 34.6436 130.001 32.3223 132.322C30.0009 134.644 28.1597 137.4 26.9033 140.433C25.647 143.466 25 146.717 25 150H0C2.87006e-07 143.434 1.29305 136.932 3.80566 130.866C6.3184 124.8 10.0016 119.287 14.6445 114.645C19.2875 110.002 24.7999 106.318 30.8662 103.806C36.9324 101.293 43.4341 100 50 100V125Z" fill="white"/>
<path d="M100 125C96.717 125 93.4658 124.353 90.4326 123.097C87.3996 121.84 84.6436 119.999 82.3223 117.678C80.0009 115.356 78.1597 112.6 76.9033 109.567C75.647 106.534 75 103.283 75 100H50C50 106.566 51.2931 113.068 53.8057 119.134C56.3184 125.2 60.0016 130.713 64.6445 135.355C69.2875 139.998 74.7999 143.682 80.8662 146.194C86.9324 148.707 93.4341 150 100 150V125Z" fill="white"/>
<path d="M100 150C106.566 150 113.068 151.293 119.134 153.806C125.2 156.318 130.713 160.002 135.355 164.645C139.998 169.287 143.682 174.8 146.194 180.866C148.707 186.932 150 193.434 150 200H200C200 186.868 197.413 173.864 192.388 161.731C187.362 149.599 179.997 138.575 170.711 129.289C161.425 120.003 150.401 112.638 138.269 107.612C126.136 102.587 113.132 100 100 100V150Z" fill="white"/>
<path d="M200 150C206.566 150 213.068 148.707 219.134 146.194C225.2 143.682 230.713 139.998 235.355 135.355C239.998 130.713 243.682 125.2 246.194 119.134C248.707 113.068 250 106.566 250 100H300C300 113.132 297.413 126.136 292.388 138.269C287.362 150.401 279.997 161.425 270.711 170.711C261.425 179.997 250.401 187.362 238.269 192.388C226.136 197.413 213.132 200 200 200V150Z" fill="white"/>
<path d="M200 50C193.434 50 186.932 51.2931 180.866 53.8057C174.8 56.3184 169.287 60.0016 164.645 64.6445C160.002 69.2875 156.318 74.7999 153.806 80.8662C151.293 86.9324 150 93.4341 150 100H100C100 86.8678 102.587 73.864 107.612 61.7314C112.638 49.599 120.003 38.5749 129.289 29.2891C138.575 20.0033 149.599 12.6378 161.731 7.6123C173.864 2.58684 186.868 -1.03925e-10 200 0V50Z" fill="white"/>
<path d="M300 50C293.434 50 286.932 48.7069 280.866 46.1943C274.8 43.6816 269.287 39.9984 264.645 35.3555C260.002 30.7125 256.318 25.2001 253.806 19.1338C251.293 13.0676 250 6.56593 250 0H200C200 13.1322 202.587 26.136 207.612 38.2686C212.638 50.401 220.003 61.4251 229.289 70.7109C238.575 79.9967 249.599 87.3622 261.731 92.3877C273.864 97.4132 286.868 100 300 100V50Z" fill="white"/>
<path d="M100 275C103.283 275 106.534 275.647 109.567 276.903C112.6 278.16 115.356 280.001 117.678 282.322C119.999 284.644 121.84 287.4 123.097 290.433C124.353 293.466 125 296.717 125 300H150C150 293.434 148.707 286.932 146.194 280.866C143.682 274.8 139.998 269.287 135.355 264.645C130.713 260.002 125.2 256.318 119.134 253.806C113.068 251.293 106.566 250 100 250V275Z" fill="white"/>
<path d="M150 275C153.283 275 156.534 274.353 159.567 273.097C162.6 271.84 165.356 269.999 167.678 267.678C169.999 265.356 171.84 262.6 173.097 259.567C174.353 256.534 175 253.283 175 250H200C200 256.566 198.707 263.068 196.194 269.134C193.682 275.2 189.998 280.713 185.355 285.355C180.713 289.998 175.2 293.682 169.134 296.194C163.068 298.707 156.566 300 150 300V275Z" fill="white"/>
<path d="M150 225C146.717 225 143.466 225.647 140.433 226.903C137.4 228.16 134.644 230.001 132.322 232.322C130.001 234.644 128.16 237.4 126.903 240.433C125.647 243.466 125 246.717 125 250H100C100 243.434 101.293 236.932 103.806 230.866C106.318 224.8 110.002 219.287 114.645 214.645C119.287 210.002 124.8 206.318 130.866 203.806C136.932 201.293 143.434 200 150 200V225Z" fill="white"/>
<path d="M200 225C196.717 225 193.466 224.353 190.433 223.097C187.4 221.84 184.644 219.999 182.322 217.678C180.001 215.356 178.16 212.6 176.903 209.567C175.647 206.534 175 203.283 175 200H150C150 206.566 151.293 213.068 153.806 219.134C156.318 225.2 160.002 230.713 164.645 235.355C169.287 239.998 174.8 243.682 180.866 246.194C186.932 248.707 193.434 250 200 250V225Z" fill="white"/>
<path d="M300 275C303.283 275 306.534 275.647 309.567 276.903C312.6 278.16 315.356 280.001 317.678 282.322C319.999 284.644 321.84 287.4 323.097 290.433C324.353 293.466 325 296.717 325 300H350C350 293.434 348.707 286.932 346.194 280.866C343.682 274.8 339.998 269.287 335.355 264.645C330.713 260.002 325.2 256.318 319.134 253.806C313.068 251.293 306.566 250 300 250V275Z" fill="white"/>
<path d="M350 275C353.283 275 356.534 274.353 359.567 273.097C362.6 271.84 365.356 269.999 367.678 267.678C369.999 265.356 371.84 262.6 373.097 259.567C374.353 256.534 375 253.283 375 250H400C400 256.566 398.707 263.068 396.194 269.134C393.682 275.2 389.998 280.713 385.355 285.355C380.713 289.998 375.2 293.682 369.134 296.194C363.068 298.707 356.566 300 350 300V275Z" fill="white"/>
<path d="M350 225C346.717 225 343.466 225.647 340.433 226.903C337.4 228.16 334.644 230.001 332.322 232.322C330.001 234.644 328.16 237.4 326.903 240.433C325.647 243.466 325 246.717 325 250H300C300 243.434 301.293 236.932 303.806 230.866C306.318 224.8 310.002 219.287 314.645 214.645C319.287 210.002 324.8 206.318 330.866 203.806C336.932 201.293 343.434 200 350 200V225Z" fill="white"/>
<path d="M400 225C396.717 225 393.466 224.353 390.433 223.097C387.4 221.84 384.644 219.999 382.322 217.678C380.001 215.356 378.16 212.6 376.903 209.567C375.647 206.534 375 203.283 375 200H350C350 206.566 351.293 213.068 353.806 219.134C356.318 225.2 360.002 230.713 364.645 235.355C369.287 239.998 374.8 243.682 380.866 246.194C386.932 248.707 393.434 250 400 250V225Z" fill="white"/>
<path d="M300 75C303.283 75 306.534 75.647 309.567 76.9033C312.6 78.1597 315.356 80.0009 317.678 82.3223C319.999 84.6436 321.84 87.3996 323.097 90.4326C324.353 93.4658 325 96.717 325 100H350C350 93.4341 348.707 86.9324 346.194 80.8662C343.682 74.7999 339.998 69.2875 335.355 64.6445C330.713 60.0016 325.2 56.3184 319.134 53.8057C313.068 51.2931 306.566 50 300 50V75Z" fill="white"/>
<path d="M350 75C353.283 75 356.534 74.353 359.567 73.0967C362.6 71.8403 365.356 69.9991 367.678 67.6777C369.999 65.3564 371.84 62.6004 373.097 59.5674C374.353 56.5342 375 53.283 375 50H400C400 56.5659 398.707 63.0676 396.194 69.1338C393.682 75.2001 389.998 80.7125 385.355 85.3555C380.713 89.9984 375.2 93.6816 369.134 96.1943C363.068 98.7069 356.566 100 350 100V75Z" fill="white"/>
<path d="M350 25C346.717 25 343.466 25.647 340.433 26.9033C337.4 28.1597 334.644 30.0009 332.322 32.3223C330.001 34.6436 328.16 37.3996 326.903 40.4326C325.647 43.4658 325 46.717 325 50H300C300 43.4341 301.293 36.9324 303.806 30.8662C306.318 24.7999 310.002 19.2875 314.645 14.6445C319.287 10.0016 324.8 6.3184 330.866 3.80566C336.932 1.29305 343.434 0 350 0V25Z" fill="white"/>
<path d="M400 25C396.717 25 393.466 24.353 390.433 23.0967C387.4 21.8403 384.644 19.9991 382.322 17.6777C380.001 15.3564 378.16 12.6004 376.903 9.56738C375.647 6.53424 375 3.28305 375 0H350C350 6.56593 351.293 13.0676 353.806 19.1338C356.318 25.2001 360.002 30.7125 364.645 35.3555C369.287 39.9984 374.8 43.6816 380.866 46.1943C386.932 48.7069 393.434 50 400 50V25Z" fill="white"/>
</svg>
