<svg width="238" height="36" viewBox="0 0 238 36" fill="none" xmlns="http://www.w3.org/2000/svg">
<path d="M0.751971 5.91999V4.63999H8.43197V5.91999H0.751971ZM7.51997 0.159985H8.87997V11.36H7.51997V0.159985ZM-2.92063e-05 0.159985H1.35997V11.36H-2.92063e-05V0.159985ZM11.5335 7.99999V6.91198H16.4455C16.4028 6.52799 16.2961 6.19199 16.1255 5.90399C15.9655 5.60532 15.7361 5.37599 15.4375 5.21599C15.1495 5.04532 14.7921 4.95999 14.3655 4.95999C13.9388 4.95999 13.5495 5.05065 13.1975 5.23199C12.8455 5.41332 12.5628 5.67465 12.3495 6.01599C12.1468 6.34665 12.0455 6.74132 12.0455 7.19999L12.0135 7.67999C12.0135 8.24532 12.1095 8.72532 12.3015 9.11999C12.4935 9.51465 12.7655 9.81332 13.1175 10.016C13.4695 10.2187 13.8855 10.32 14.3655 10.32C14.7281 10.32 15.0481 10.2667 15.3255 10.16C15.6135 10.0427 15.8695 9.88799 16.0935 9.69599C16.3175 9.49332 16.5095 9.25865 16.6695 8.99199L17.7095 9.64799C17.4641 10.0213 17.1921 10.352 16.8935 10.64C16.5948 10.9173 16.2321 11.136 15.8055 11.296C15.3788 11.4453 14.8455 11.52 14.2055 11.52C13.5441 11.52 12.9468 11.3547 12.4135 11.024C11.8908 10.6933 11.4748 10.24 11.1655 9.66399C10.8668 9.07732 10.7175 8.41599 10.7175 7.67999C10.7175 7.54132 10.7228 7.40799 10.7335 7.27998C10.7441 7.15199 10.7601 7.02399 10.7815 6.89599C10.8881 6.28799 11.1015 5.75465 11.4215 5.29599C11.7415 4.83732 12.1521 4.47999 12.6535 4.22399C13.1655 3.96798 13.7361 3.83998 14.3655 3.83998C15.0588 3.83998 15.6668 3.99465 16.1895 4.30399C16.7121 4.61332 17.1175 5.05065 17.4055 5.61598C17.6935 6.17065 17.8375 6.83732 17.8375 7.61599C17.8375 7.67999 17.8375 7.74399 17.8375 7.80799C17.8375 7.87199 17.8321 7.93599 17.8215 7.99999H11.5335ZM18.4718 3.99999H22.7918V5.19999H18.4718V3.99999ZM19.9918 4.31998H21.2718V11.36H19.9918V4.31998ZM29.4491 9.19999C29.4491 9.45599 29.5184 9.67465 29.6571 9.85599C29.7958 10.0267 29.9824 10.16 30.2171 10.256C30.4518 10.3413 30.7131 10.384 31.0011 10.384C31.4278 10.384 31.8064 10.32 32.1371 10.192C32.4678 10.064 32.7238 9.86132 32.9051 9.58399C33.0971 9.30665 33.1931 8.93865 33.1931 8.47999L33.4491 9.27999C33.4491 9.74932 33.3211 10.1547 33.0651 10.496C32.8198 10.8267 32.4891 11.0827 32.0731 11.264C31.6571 11.4347 31.1931 11.52 30.6811 11.52C30.2224 11.52 29.8011 11.4347 29.4171 11.264C29.0331 11.0933 28.7238 10.8427 28.4891 10.512C28.2651 10.1707 28.1531 9.74932 28.1531 9.24799C28.1531 8.72532 28.2811 8.28265 28.5371 7.91999C28.7931 7.55732 29.1558 7.27999 29.6251 7.08799C30.0944 6.88532 30.6491 6.78399 31.2891 6.78399C31.7584 6.78399 32.1584 6.84799 32.4891 6.97599C32.8304 7.09332 33.1024 7.23199 33.3051 7.39199C33.5078 7.54132 33.6464 7.66399 33.7211 7.75999V8.51199C33.3584 8.25599 32.9904 8.06932 32.6171 7.95199C32.2438 7.82399 31.8224 7.75999 31.3531 7.75999C30.9264 7.75999 30.5691 7.81865 30.2811 7.93599C30.0038 8.05332 29.7958 8.21865 29.6571 8.43199C29.5184 8.64532 29.4491 8.90132 29.4491 9.19999ZM29.4491 5.72798L28.8251 4.75199C29.1024 4.54932 29.4758 4.34665 29.9451 4.14398C30.4144 3.94132 30.9798 3.83998 31.6411 3.83998C32.2064 3.83998 32.6971 3.93065 33.1131 4.11199C33.5398 4.28265 33.8704 4.53332 34.1051 4.86399C34.3504 5.19465 34.4731 5.59998 34.4731 6.07999V11.36H33.1931V6.07999C33.1931 5.70665 33.0331 5.42932 32.7131 5.24798C32.4038 5.05599 32.0464 4.95999 31.6411 4.95999C31.2891 4.95999 30.9691 5.00799 30.6811 5.10398C30.3931 5.18932 30.1424 5.29599 29.9291 5.42399C29.7264 5.54132 29.5664 5.64265 29.4491 5.72798ZM36.5587 3.99999H37.8387V11.36H36.5587V3.99999ZM40.5587 3.99999H42.1587L38.9587 7.03999L42.4787 11.36H40.8787L37.3587 7.03999L40.5587 3.99999ZM43.6056 3.99999H44.8856V11.36H43.6056V3.99999ZM47.6056 3.99999H49.2056L46.0056 7.03999L49.5256 11.36H47.9256L44.4056 7.03999L47.6056 3.99999ZM51.3085 9.19999C51.3085 9.45599 51.3778 9.67465 51.5165 9.85599C51.6551 10.0267 51.8418 10.16 52.0765 10.256C52.3111 10.3413 52.5725 10.384 52.8605 10.384C53.2871 10.384 53.6658 10.32 53.9965 10.192C54.3271 10.064 54.5831 9.86132 54.7645 9.58399C54.9565 9.30665 55.0525 8.93865 55.0525 8.47999L55.3085 9.27999C55.3085 9.74932 55.1805 10.1547 54.9245 10.496C54.6791 10.8267 54.3485 11.0827 53.9325 11.264C53.5165 11.4347 53.0525 11.52 52.5405 11.52C52.0818 11.52 51.6605 11.4347 51.2765 11.264C50.8925 11.0933 50.5831 10.8427 50.3485 10.512C50.1245 10.1707 50.0125 9.74932 50.0125 9.24799C50.0125 8.72532 50.1405 8.28265 50.3965 7.91999C50.6525 7.55732 51.0151 7.27999 51.4845 7.08799C51.9538 6.88532 52.5085 6.78399 53.1485 6.78399C53.6178 6.78399 54.0178 6.84799 54.3485 6.97599C54.6898 7.09332 54.9618 7.23199 55.1645 7.39199C55.3671 7.54132 55.5058 7.66399 55.5805 7.75999V8.51199C55.2178 8.25599 54.8498 8.06932 54.4765 7.95199C54.1031 7.82399 53.6818 7.75999 53.2125 7.75999C52.7858 7.75999 52.4285 7.81865 52.1405 7.93599C51.8631 8.05332 51.6551 8.21865 51.5165 8.43199C51.3778 8.64532 51.3085 8.90132 51.3085 9.19999ZM51.3085 5.72798L50.6845 4.75199C50.9618 4.54932 51.3351 4.34665 51.8045 4.14398C52.2738 3.94132 52.8391 3.83998 53.5005 3.83998C54.0658 3.83998 54.5565 3.93065 54.9725 4.11199C55.3991 4.28265 55.7298 4.53332 55.9645 4.86399C56.2098 5.19465 56.3325 5.59998 56.3325 6.07999V11.36H55.0525V6.07999C55.0525 5.70665 54.8925 5.42932 54.5725 5.24798C54.2631 5.05599 53.9058 4.95999 53.5005 4.95999C53.1485 4.95999 52.8285 5.00799 52.5405 5.10398C52.2525 5.18932 52.0018 5.29599 51.7885 5.42399C51.5858 5.54132 51.4258 5.64265 51.3085 5.72798ZM64.26 3.99999L59.46 14.88H58.02L60.036 10.32L57.22 3.99999H58.74L61.076 9.75999L60.548 9.69599L62.82 3.99999H64.26ZM66.2188 8.07999V6.87999H71.6588V8.07999H66.2188ZM70.8268 3.99999H72.1068V11.36H70.8268V3.99999ZM65.4668 3.99999H66.7468V11.36H65.4668V3.99999ZM73.3937 3.99999H77.7137V5.19999H73.3937V3.99999ZM74.9137 4.31998H76.1937V11.36H74.9137V4.31998ZM79.5741 9.19999C79.5741 9.45599 79.6434 9.67465 79.7821 9.85599C79.9208 10.0267 80.1074 10.16 80.3421 10.256C80.5768 10.3413 80.8381 10.384 81.1261 10.384C81.5528 10.384 81.9314 10.32 82.2621 10.192C82.5928 10.064 82.8488 9.86132 83.0301 9.58399C83.2221 9.30665 83.3181 8.93865 83.3181 8.47999L83.5741 9.27999C83.5741 9.74932 83.4461 10.1547 83.1901 10.496C82.9448 10.8267 82.6141 11.0827 82.1981 11.264C81.7821 11.4347 81.3181 11.52 80.8061 11.52C80.3474 11.52 79.9261 11.4347 79.5421 11.264C79.1581 11.0933 78.8488 10.8427 78.6141 10.512C78.3901 10.1707 78.2781 9.74932 78.2781 9.24799C78.2781 8.72532 78.4061 8.28265 78.6621 7.91999C78.9181 7.55732 79.2808 7.27999 79.7501 7.08799C80.2194 6.88532 80.7741 6.78399 81.4141 6.78399C81.8834 6.78399 82.2834 6.84799 82.6141 6.97599C82.9554 7.09332 83.2274 7.23199 83.4301 7.39199C83.6328 7.54132 83.7714 7.66399 83.8461 7.75999V8.51199C83.4834 8.25599 83.1154 8.06932 82.7421 7.95199C82.3688 7.82399 81.9474 7.75999 81.4781 7.75999C81.0514 7.75999 80.6941 7.81865 80.4061 7.93599C80.1288 8.05332 79.9208 8.21865 79.7821 8.43199C79.6434 8.64532 79.5741 8.90132 79.5741 9.19999ZM79.5741 5.72798L78.9501 4.75199C79.2274 4.54932 79.6008 4.34665 80.0701 4.14398C80.5394 3.94132 81.1048 3.83998 81.7661 3.83998C82.3314 3.83998 82.8221 3.93065 83.2381 4.11199C83.6648 4.28265 83.9954 4.53332 84.2301 4.86399C84.4754 5.19465 84.5981 5.59998 84.5981 6.07999V11.36H83.3181V6.07999C83.3181 5.70665 83.1581 5.42932 82.8381 5.24798C82.5288 5.05599 82.1714 4.95999 81.7661 4.95999C81.4141 4.95999 81.0941 5.00799 80.8061 5.10398C80.5181 5.18932 80.2674 5.29599 80.0541 5.42399C79.8514 5.54132 79.6914 5.64265 79.5741 5.72798ZM92.2197 3.35999C92.2197 2.90132 92.1237 2.51198 91.9317 2.19199C91.7397 1.87198 91.4677 1.62665 91.1157 1.45599C90.7637 1.28532 90.3477 1.19998 89.8677 1.19998C89.3344 1.19998 88.8757 1.32265 88.4917 1.56798C88.1184 1.80265 87.8091 2.12265 87.5637 2.52798L86.5237 1.87198C86.7691 1.49865 87.0411 1.17332 87.3397 0.895985C87.6384 0.607985 88.0011 0.389318 88.4277 0.239985C88.8651 0.0799847 89.3984 -1.52588e-05 90.0277 -1.52588e-05C90.5291 -1.52588e-05 90.9877 0.0853182 91.4037 0.255985C91.8304 0.426652 92.1984 0.666651 92.5077 0.975985C92.8277 1.27465 93.0731 1.62665 93.2437 2.03199C93.4251 2.43732 93.5157 2.87999 93.5157 3.35999C93.5157 3.96799 93.3557 4.52265 93.0357 5.02398C92.7157 5.51465 92.2997 5.91465 91.7877 6.22399C91.2757 6.52265 90.7211 6.68799 90.1237 6.71999L90.0117 8.63999H89.0517L88.7317 5.83998H89.1477C89.7877 5.83998 90.3371 5.71732 90.7957 5.47198C91.2544 5.22665 91.6064 4.91732 91.8517 4.54398C92.0971 4.15999 92.2197 3.76532 92.2197 3.35999ZM88.6837 10.72C88.6837 10.4747 88.7691 10.2667 88.9397 10.096C89.1211 9.92532 89.3291 9.83999 89.5637 9.83999C89.8091 9.83999 90.0171 9.92532 90.1877 10.096C90.3584 10.2667 90.4437 10.4747 90.4437 10.72C90.4437 10.9547 90.3584 11.1627 90.1877 11.344C90.0171 11.5147 89.8091 11.6 89.5637 11.6C89.3291 11.6 89.1211 11.5147 88.9397 11.344C88.7691 11.1627 88.6837 10.9547 88.6837 10.72ZM60.1818 24.68L50.4218 34.92L50.5018 32.84L60.2618 22.6L60.1818 24.68ZM51.7818 23.16V33.16L50.4218 34.92V23.16H51.7818ZM60.2618 22.6V34.36H58.9018V24.36L60.2618 22.6ZM69.1961 27V34.36H67.9161V28.2H64.1561V31.8C64.1561 32.376 64.0654 32.856 63.8841 33.24C63.7134 33.6133 63.4468 33.896 63.0841 34.088C62.7214 34.2693 62.2628 34.36 61.7081 34.36V33.192C62.0281 33.192 62.3001 33.0907 62.5241 32.888C62.7588 32.6853 62.8761 32.3227 62.8761 31.8V27H69.1961ZM77.83 28.28L71.75 34.92L71.83 33.08L77.91 26.44L77.83 28.28ZM73.03 27V33.16L71.75 34.92V27H73.03ZM77.91 26.44V34.36H76.63V28.2L77.91 26.44ZM87.7936 30.68V29.88C88.2843 29.88 88.6363 29.7893 88.8496 29.608C89.0629 29.416 89.1696 29.1867 89.1696 28.92C89.1696 28.632 89.0629 28.408 88.8496 28.248C88.6363 28.0773 88.3376 27.992 87.9536 27.992C87.6336 27.992 87.3669 28.056 87.1536 28.184C86.9509 28.3013 86.8016 28.4507 86.7056 28.632C86.6096 28.8027 86.5616 28.9733 86.5616 29.144H85.2656C85.2656 28.728 85.3829 28.344 85.6176 27.992C85.8523 27.64 86.1723 27.3627 86.5776 27.16C86.9829 26.9467 87.4416 26.84 87.9536 26.84C88.4336 26.84 88.8656 26.9307 89.2496 27.112C89.6336 27.2933 89.9323 27.5333 90.1456 27.832C90.3696 28.1307 90.4816 28.4613 90.4816 28.824C90.4816 29.3573 90.2416 29.8 89.7616 30.152C89.2923 30.504 88.6363 30.68 87.7936 30.68ZM87.9216 34.52C87.0576 34.52 86.3643 34.2853 85.8416 33.816C85.3296 33.3467 85.0309 32.7547 84.9456 32.04H86.2416C86.3163 32.392 86.4763 32.7067 86.7216 32.984C86.9669 33.2613 87.3669 33.4 87.9216 33.4C88.2629 33.4 88.5509 33.352 88.7856 33.256C89.0309 33.16 89.2176 33.0213 89.3456 32.84C89.4736 32.6587 89.5376 32.4507 89.5376 32.216C89.5376 31.96 89.4683 31.7413 89.3296 31.56C89.2016 31.3787 89.0043 31.24 88.7376 31.144C88.4816 31.048 88.1669 31 87.7936 31V30.2C88.7109 30.2 89.4416 30.36 89.9856 30.68C90.5296 31 90.8016 31.5067 90.8016 32.2C90.8016 32.68 90.6683 33.096 90.4016 33.448C90.1456 33.7893 89.7989 34.056 89.3616 34.248C88.9243 34.4293 88.4443 34.52 87.9216 34.52ZM93.2928 32.2C93.2928 32.456 93.3622 32.6747 93.5008 32.856C93.6395 33.0267 93.8262 33.16 94.0608 33.256C94.2955 33.3413 94.5568 33.384 94.8448 33.384C95.2715 33.384 95.6502 33.32 95.9808 33.192C96.3115 33.064 96.5675 32.8613 96.7488 32.584C96.9408 32.3067 97.0368 31.9387 97.0368 31.48L97.2928 32.28C97.2928 32.7493 97.1648 33.1547 96.9088 33.496C96.6635 33.8267 96.3328 34.0827 95.9168 34.264C95.5008 34.4347 95.0368 34.52 94.5248 34.52C94.0662 34.52 93.6448 34.4347 93.2608 34.264C92.8768 34.0933 92.5675 33.8427 92.3328 33.512C92.1088 33.1707 91.9968 32.7493 91.9968 32.248C91.9968 31.7253 92.1248 31.2827 92.3808 30.92C92.6368 30.5573 92.9995 30.28 93.4688 30.088C93.9382 29.8853 94.4928 29.784 95.1328 29.784C95.6022 29.784 96.0022 29.848 96.3328 29.976C96.6742 30.0933 96.9462 30.232 97.1488 30.392C97.3515 30.5413 97.4902 30.664 97.5648 30.76V31.512C97.2022 31.256 96.8342 31.0693 96.4608 30.952C96.0875 30.824 95.6662 30.76 95.1968 30.76C94.7702 30.76 94.4128 30.8187 94.1248 30.936C93.8475 31.0533 93.6395 31.2187 93.5008 31.432C93.3622 31.6453 93.2928 31.9013 93.2928 32.2ZM93.2928 28.728L92.6688 27.752C92.9462 27.5493 93.3195 27.3467 93.7888 27.144C94.2582 26.9413 94.8235 26.84 95.4848 26.84C96.0502 26.84 96.5408 26.9307 96.9568 27.112C97.3835 27.2827 97.7142 27.5333 97.9488 27.864C98.1942 28.1947 98.3168 28.6 98.3168 29.08V34.36H97.0368V29.08C97.0368 28.7067 96.8768 28.4293 96.5568 28.248C96.2475 28.056 95.8902 27.96 95.4848 27.96C95.1328 27.96 94.8128 28.008 94.5248 28.104C94.2368 28.1893 93.9862 28.296 93.7728 28.424C93.5702 28.5413 93.4102 28.6427 93.2928 28.728ZM106.642 28.28L100.562 34.92L100.642 33.08L106.722 26.44L106.642 28.28ZM101.842 27V33.16L100.562 34.92V27H101.842ZM106.722 26.44V34.36H105.442V28.2L106.722 26.44ZM101.154 23.24H102.29C102.29 23.3787 102.328 23.544 102.402 23.736C102.477 23.9173 102.616 24.0827 102.818 24.232C103.021 24.3707 103.309 24.44 103.682 24.44C104.056 24.44 104.344 24.3707 104.546 24.232C104.749 24.0827 104.888 23.9173 104.962 23.736C105.037 23.544 105.074 23.3787 105.074 23.24H106.21C106.21 23.6027 106.114 23.96 105.922 24.312C105.741 24.6533 105.464 24.936 105.09 25.16C104.717 25.3733 104.248 25.48 103.682 25.48C103.128 25.48 102.658 25.3733 102.274 25.16C101.901 24.936 101.618 24.6533 101.426 24.312C101.245 23.96 101.154 23.6027 101.154 23.24ZM113.201 29.208L111.041 33.88H109.601L113.201 26.44L116.801 33.88H115.361L113.201 29.208ZM116.481 34.36H110.001V35.8H108.641V33.16H117.761V35.8H116.481V34.36ZM125.846 28.28L119.766 34.92L119.846 33.08L125.926 26.44L125.846 28.28ZM121.046 27V33.16L119.766 34.92V27H121.046ZM125.926 26.44V34.36H124.646V28.2L125.926 26.44ZM127.284 27H131.604V28.2H127.284V27ZM128.804 27.32H130.084V34.36H128.804V27.32ZM132.83 31V29.912H137.742C137.7 29.528 137.593 29.192 137.422 28.904C137.262 28.6053 137.033 28.376 136.734 28.216C136.446 28.0453 136.089 27.96 135.662 27.96C135.236 27.96 134.846 28.0507 134.494 28.232C134.142 28.4133 133.86 28.6747 133.646 29.016C133.444 29.3467 133.342 29.7413 133.342 30.2L133.31 30.68C133.31 31.2453 133.406 31.7253 133.598 32.12C133.79 32.5147 134.062 32.8133 134.414 33.016C134.766 33.2187 135.182 33.32 135.662 33.32C136.025 33.32 136.345 33.2667 136.622 33.16C136.91 33.0427 137.166 32.888 137.39 32.696C137.614 32.4933 137.806 32.2587 137.966 31.992L139.006 32.648C138.761 33.0213 138.489 33.352 138.19 33.64C137.892 33.9173 137.529 34.136 137.102 34.296C136.676 34.4453 136.142 34.52 135.502 34.52C134.841 34.52 134.244 34.3547 133.71 34.024C133.188 33.6933 132.772 33.24 132.462 32.664C132.164 32.0773 132.014 31.416 132.014 30.68C132.014 30.5413 132.02 30.408 132.03 30.28C132.041 30.152 132.057 30.024 132.078 29.896C132.185 29.288 132.398 28.7547 132.718 28.296C133.038 27.8373 133.449 27.48 133.95 27.224C134.462 26.968 135.033 26.84 135.662 26.84C136.356 26.84 136.964 26.9947 137.486 27.304C138.009 27.6133 138.414 28.0507 138.702 28.616C138.99 29.1707 139.134 29.8373 139.134 30.616C139.134 30.68 139.134 30.744 139.134 30.808C139.134 30.872 139.129 30.936 139.118 31H132.83Z" fill="white"/>
<path d="M103.795 5.83998V4.95999C104.382 4.95999 104.878 4.87465 105.283 4.70399C105.688 4.52265 105.998 4.28799 106.211 3.99999C106.424 3.70132 106.531 3.37598 106.531 3.02398C106.531 2.67198 106.451 2.36265 106.291 2.09598C106.131 1.81865 105.886 1.60532 105.555 1.45599C105.235 1.30665 104.835 1.23199 104.355 1.23199C103.907 1.23199 103.502 1.30665 103.139 1.45599C102.787 1.60532 102.51 1.80798 102.307 2.06398C102.104 2.31998 102.003 2.61332 102.003 2.94398H100.707C100.707 2.35732 100.856 1.84532 101.155 1.40798C101.464 0.970651 101.891 0.629318 102.435 0.383985C102.99 0.127985 103.624 -1.52588e-05 104.339 -1.52588e-05C105.086 -1.52588e-05 105.726 0.138652 106.259 0.415985C106.792 0.693318 107.203 1.05598 107.491 1.50398C107.779 1.95199 107.923 2.44265 107.923 2.97598C107.923 3.37065 107.822 3.74399 107.619 4.09598C107.427 4.43732 107.15 4.74132 106.787 5.00799C106.424 5.26398 105.987 5.46665 105.475 5.61598C104.974 5.76532 104.414 5.83998 103.795 5.83998ZM104.275 11.52C103.614 11.52 103.032 11.44 102.531 11.28C102.03 11.12 101.608 10.9013 101.267 10.624C100.926 10.336 100.664 10.0053 100.483 9.63199C100.312 9.24799 100.227 8.83732 100.227 8.39999H101.603C101.646 8.75199 101.763 9.06665 101.955 9.34399C102.158 9.62132 102.446 9.83999 102.819 9.99999C103.203 10.16 103.688 10.24 104.275 10.24C105.16 10.24 105.811 10.0587 106.227 9.69599C106.643 9.33332 106.851 8.84799 106.851 8.23999C106.851 7.78132 106.718 7.39732 106.451 7.08799C106.184 6.77865 105.822 6.54932 105.363 6.39999C104.904 6.23999 104.382 6.15999 103.795 6.15999V5.27998C104.627 5.27998 105.379 5.38665 106.051 5.59999C106.723 5.81332 107.256 6.14932 107.651 6.60799C108.046 7.05598 108.243 7.65332 108.243 8.39999C108.243 9.02932 108.083 9.57865 107.763 10.048C107.454 10.5173 107 10.88 106.403 11.136C105.816 11.392 105.107 11.52 104.275 11.52ZM110.746 9.19999C110.746 9.45599 110.815 9.67465 110.954 9.85599C111.093 10.0267 111.279 10.16 111.514 10.256C111.749 10.3413 112.01 10.384 112.298 10.384C112.725 10.384 113.103 10.32 113.434 10.192C113.765 10.064 114.021 9.86132 114.202 9.58399C114.394 9.30665 114.49 8.93865 114.49 8.47999L114.746 9.27999C114.746 9.74932 114.618 10.1547 114.362 10.496C114.117 10.8267 113.786 11.0827 113.37 11.264C112.954 11.4347 112.49 11.52 111.978 11.52C111.519 11.52 111.098 11.4347 110.714 11.264C110.33 11.0933 110.021 10.8427 109.786 10.512C109.562 10.1707 109.45 9.74932 109.45 9.24799C109.45 8.72532 109.578 8.28265 109.834 7.91999C110.09 7.55732 110.453 7.27999 110.922 7.08799C111.391 6.88532 111.946 6.78399 112.586 6.78399C113.055 6.78399 113.455 6.84799 113.786 6.97599C114.127 7.09332 114.399 7.23199 114.602 7.39199C114.805 7.54132 114.943 7.66399 115.018 7.75999V8.51199C114.655 8.25599 114.287 8.06932 113.914 7.95199C113.541 7.82399 113.119 7.75999 112.65 7.75999C112.223 7.75999 111.866 7.81865 111.578 7.93599C111.301 8.05332 111.093 8.21865 110.954 8.43199C110.815 8.64532 110.746 8.90132 110.746 9.19999ZM110.746 5.72798L110.122 4.75199C110.399 4.54932 110.773 4.34665 111.242 4.14398C111.711 3.94132 112.277 3.83998 112.938 3.83998C113.503 3.83998 113.994 3.93065 114.41 4.11199C114.837 4.28265 115.167 4.53332 115.402 4.86399C115.647 5.19465 115.77 5.59998 115.77 6.07999V11.36H114.49V6.07999C114.49 5.70665 114.33 5.42932 114.01 5.24798C113.701 5.05599 113.343 4.95999 112.938 4.95999C112.586 4.95999 112.266 5.00799 111.978 5.10398C111.69 5.18932 111.439 5.29599 111.226 5.42399C111.023 5.54132 110.863 5.64265 110.746 5.72798ZM119.136 14.88H117.856V3.99999H119.136V14.88ZM125.296 7.67999C125.296 8.46932 125.13 9.15199 124.8 9.72799C124.469 10.304 124.026 10.7467 123.472 11.056C122.928 11.3653 122.32 11.52 121.648 11.52C121.04 11.52 120.501 11.3653 120.032 11.056C119.573 10.7467 119.21 10.304 118.944 9.72799C118.688 9.15199 118.56 8.46932 118.56 7.67999C118.56 6.87999 118.688 6.19732 118.944 5.63199C119.21 5.05598 119.573 4.61332 120.032 4.30399C120.501 3.99465 121.04 3.83998 121.648 3.83998C122.32 3.83998 122.928 3.99465 123.472 4.30399C124.026 4.61332 124.469 5.05598 124.8 5.63199C125.13 6.19732 125.296 6.87999 125.296 7.67999ZM124 7.67999C124 7.11465 123.882 6.63465 123.648 6.23998C123.424 5.84532 123.12 5.54665 122.736 5.34399C122.362 5.14132 121.946 5.03999 121.488 5.03999C121.114 5.03999 120.746 5.14132 120.384 5.34399C120.021 5.54665 119.722 5.84532 119.488 6.23998C119.253 6.63465 119.136 7.11465 119.136 7.67999C119.136 8.24532 119.253 8.72532 119.488 9.11999C119.722 9.51465 120.021 9.81332 120.384 10.016C120.746 10.2187 121.114 10.32 121.488 10.32C121.946 10.32 122.362 10.2187 122.736 10.016C123.12 9.81332 123.424 9.51465 123.648 9.11999C123.882 8.72532 124 8.24532 124 7.67999ZM127.237 7.99999V6.91198H132.149C132.106 6.52799 131.999 6.19199 131.829 5.90399C131.669 5.60532 131.439 5.37599 131.141 5.21599C130.853 5.04532 130.495 4.95999 130.069 4.95999C129.642 4.95999 129.253 5.05065 128.901 5.23199C128.549 5.41332 128.266 5.67465 128.053 6.01599C127.85 6.34665 127.749 6.74132 127.749 7.19999L127.717 7.67999C127.717 8.24532 127.813 8.72532 128.005 9.11999C128.197 9.51465 128.469 9.81332 128.821 10.016C129.173 10.2187 129.589 10.32 130.069 10.32C130.431 10.32 130.751 10.2667 131.029 10.16C131.317 10.0427 131.573 9.88799 131.797 9.69599C132.021 9.49332 132.213 9.25865 132.373 8.99199L133.413 9.64799C133.167 10.0213 132.895 10.352 132.597 10.64C132.298 10.9173 131.935 11.136 131.509 11.296C131.082 11.4453 130.549 11.52 129.909 11.52C129.247 11.52 128.65 11.3547 128.117 11.024C127.594 10.6933 127.178 10.24 126.869 9.66399C126.57 9.07732 126.421 8.41599 126.421 7.67999C126.421 7.54132 126.426 7.40799 126.437 7.27998C126.447 7.15199 126.463 7.02399 126.485 6.89599C126.591 6.28799 126.805 5.75465 127.125 5.29599C127.445 4.83732 127.855 4.47999 128.357 4.22399C128.869 3.96798 129.439 3.83998 130.069 3.83998C130.762 3.83998 131.37 3.99465 131.893 4.30399C132.415 4.61332 132.821 5.05065 133.109 5.61598C133.397 6.17065 133.541 6.83732 133.541 7.61599C133.541 7.67999 133.541 7.74399 133.541 7.80799C133.541 7.87199 133.535 7.93599 133.525 7.99999H127.237ZM135.375 3.99999H139.295V5.19999H136.655V11.36H135.375V3.99999ZM146.736 5.27998L140.656 11.92L140.736 10.08L146.816 3.43998L146.736 5.27998ZM141.936 3.99999V10.16L140.656 11.92V3.99999H141.936ZM146.816 3.43998V11.36H145.536V5.19999L146.816 3.43998ZM149.871 7.67999C149.871 8.19199 149.978 8.64532 150.191 9.03999C150.415 9.43465 150.714 9.74932 151.087 9.98399C151.471 10.208 151.903 10.32 152.383 10.32C152.778 10.32 153.146 10.2613 153.487 10.144C153.839 10.016 154.143 9.85065 154.399 9.64799C154.655 9.43465 154.836 9.21065 154.943 8.97599V10.576C154.687 10.8747 154.319 11.1093 153.839 11.28C153.37 11.44 152.884 11.52 152.383 11.52C151.668 11.52 151.023 11.3547 150.447 11.024C149.871 10.6933 149.412 10.24 149.071 9.66399C148.74 9.07732 148.575 8.41599 148.575 7.67999C148.575 6.93332 148.74 6.27199 149.071 5.69599C149.412 5.11999 149.871 4.66665 150.447 4.33599C151.023 4.00532 151.668 3.83998 152.383 3.83998C152.884 3.83998 153.37 3.92532 153.839 4.09598C154.319 4.25599 154.687 4.48532 154.943 4.78399V6.38399C154.836 6.13865 154.655 5.91465 154.399 5.71199C154.143 5.50932 153.839 5.34932 153.487 5.23199C153.146 5.10399 152.778 5.03999 152.383 5.03999C151.903 5.03999 151.471 5.15199 151.087 5.37599C150.714 5.59999 150.415 5.91465 150.191 6.31998C149.978 6.71465 149.871 7.16799 149.871 7.67999ZM155.816 3.99999H160.136V5.19999H155.816V3.99999ZM157.336 4.31998H158.616V11.36H157.336V4.31998ZM162.62 14.88H161.34V3.99999H162.62V14.88ZM168.78 7.67999C168.78 8.46932 168.615 9.15199 168.284 9.72799C167.953 10.304 167.511 10.7467 166.956 11.056C166.412 11.3653 165.804 11.52 165.132 11.52C164.524 11.52 163.985 11.3653 163.516 11.056C163.057 10.7467 162.695 10.304 162.428 9.72799C162.172 9.15199 162.044 8.46932 162.044 7.67999C162.044 6.87999 162.172 6.19732 162.428 5.63199C162.695 5.05598 163.057 4.61332 163.516 4.30399C163.985 3.99465 164.524 3.83998 165.132 3.83998C165.804 3.83998 166.412 3.99465 166.956 4.30399C167.511 4.61332 167.953 5.05598 168.284 5.63199C168.615 6.19732 168.78 6.87999 168.78 7.67999ZM167.484 7.67999C167.484 7.11465 167.367 6.63465 167.132 6.23998C166.908 5.84532 and etc" fill="#00FF00"/>
<path d="M145.766 27H149.686V28.2H147.046V34.36H145.766ZM150.092 30.68C150.092 29.9333 150.258 29.272 150.588 28.696C150.93 28.12 151.388 27.6667 151.964 27.336C152.54 27.0053 153.186 26.84 153.9 26.84C154.626 26.84 155.271 27.0053 155.836 27.336C156.412 27.6667 156.866 28.12 157.196 28.696C157.538 29.272 157.708 29.9333 157.708 30.68C157.708 31.416 157.538 32.0773 157.196 32.664C156.866 33.24 156.412 33.6933 155.836 34.024C155.271 34.3547 154.626 34.52 153.9 34.52C153.186 34.52 152.54 34.3547 151.964 34.024C151.388 33.6933 150.93 33.24 150.588 32.664C150.258 32.0773 150.092 31.416 150.092 30.68ZM151.388 30.68C151.388 31.192 151.495 31.6453 151.708 32.04C151.932 32.4347 152.231 32.7493 152.604 32.984C152.988 33.208 153.42 33.32 153.9 33.32C154.38 33.32 154.807 33.208 155.18 32.984C155.564 32.7493 155.863 32.4347 156.076 32.04C156.3 31.6453 156.412 31.192 156.412 30.68C156.412 30.168 156.3 29.7147 156.076 29.32C155.863 28.9147 155.564 28.6 155.18 28.376C154.807 28.152 154.38 28.04 153.9 28.04C153.42 28.04 152.988 28.152 152.604 28.376C152.231 28.6 151.932 28.9147 151.708 29.32C151.495 29.7147 151.388 30.168 151.388 30.68ZM160.043 30.68C160.043 31.192 160.15 31.6453 160.363 32.04C160.587 32.4347 160.886 32.7493 161.259 32.984C161.643 33.208 162.075 33.32 162.555 33.32C162.95 33.32 163.318 33.2613 163.659 33.144C164.011 33.016 164.315 32.8507 164.571 32.648C164.827 32.4347 165.008 32.2107 165.115 31.976V33.576C164.859 33.8747 164.491 34.1093 164.011 34.28C163.542 34.44 163.056 34.52 162.555 34.52C161.84 34.52 161.195 34.3547 160.619 34.024C160.043 33.6933 159.584 33.24 159.243 32.664C158.912 32.0773 158.747 31.416 158.747 30.68C158.747 29.9333 158.912 29.272 159.243 28.696C159.584 28.12 160.043 27.6667 160.619 27.336C161.195 27.0053 161.84 26.84 162.555 26.84C163.056 26.84 163.542 26.9253 164.011 27.096C164.491 27.256 164.859 27.4853 165.115 27.784V29.384C165.008 29.1387 164.827 28.9147 164.571 28.712C164.315 28.5093 164.011 28.3493 163.659 28.232C163.318 28.104 162.95 28.04 162.555 28.04C162.075 28.04 161.643 28.152 161.259 28.376C160.886 28.6 160.587 28.9147 160.363 29.32C160.15 29.7147 160.043 30.168 160.043 30.68ZM165.987 27H170.307V28.2H165.987V27ZM167.507 27.32H168.787V34.36H167.507V27.32ZM171.533 31V29.912H176.445C176.403 29.528 176.296 29.192 176.125 28.904C175.965 28.6053 175.736 28.376 175.437 28.216C175.149 28.0453 174.792 27.96 174.365 27.96C173.939 27.96 173.549 28.0507 173.197 28.232C172.845 28.4133 172.563 28.6747 172.349 29.016C172.147 29.3467 172.045 29.7413 172.045 30.2L172.013 30.68C172.013 31.2453 172.109 31.7253 172.301 32.12C172.493 32.5147 172.765 32.8133 173.117 33.016C173.469 33.2187 173.885 33.32 174.365 33.32C174.728 33.32 175.048 33.2667 175.325 33.16C175.613 33.0427 175.869 32.888 176.093 32.696C176.317 32.4933 176.509 32.2587 176.669 31.992L177.709 32.648C177.464 33.0213 177.192 33.352 176.893 33.64C176.595 33.9173 176.232 34.136 175.805 34.296C175.379 34.4453 174.845 34.52 174.205 34.52C173.544 34.52 172.947 34.3547 172.413 34.024C171.891 33.6933 171.475 33.24 171.165 32.664C170.867 32.0773 170.717 31.416 170.717 30.68C170.717 30.5413 170.723 30.408 170.733 30.28C170.744 30.152 170.76 30.024 170.781 29.896C170.888 29.288 171.101 28.7547 171.421 28.296C171.741 27.8373 172.152 27.48 172.653 27.224C173.165 26.968 173.736 26.84 174.365 26.84C175.059 26.84 175.667 26.9947 176.189 27.304C176.712 27.6133 177.117 28.0507 177.405 28.616C177.693 29.1707 177.837 29.8373 177.837 30.616C177.837 30.68 177.837 30.744 177.837 30.808C177.837 30.872 177.832 30.936 177.821 31H171.533ZM186.584 34.36L185.384 28.52L186.104 26.44L188.024 34.36H186.584ZM182.744 33.256L186.104 26.44L186.264 29L183.224 34.856L182.744 33.256ZM183.224 34.856L180.232 29L180.392 26.44L183.704 33.256L183.224 34.856ZM178.472 34.36L180.392 26.44L181.112 28.52L179.912 34.36H178.472Z" fill="#8000FF"/>
</svg>
