<svg width="329" height="97" viewBox="0 0 329 97" fill="none" xmlns="http://www.w3.org/2000/svg">
<path d="M329 62.3368C329 81.4633 313.495 96.9684 294.368 96.9684C275.242 96.9684 259.737 81.4633 259.737 62.3368C259.737 43.2104 275.242 27.7053 294.368 27.7053C313.495 27.7053 329 43.2104 329 62.3368ZM277.053 62.3368C277.053 71.9001 284.805 79.6526 294.368 79.6526C303.932 79.6526 311.684 71.9001 311.684 62.3368C311.684 52.7736 303.932 45.0211 294.368 45.0211C284.805 45.0211 277.053 52.7736 277.053 62.3368Z" fill="black"/>
<rect x="294.368" y="45.0211" width="17.3158" height="34.6316" fill="black"/>
<path d="M239.204 86.8251C234.361 91.6684 228.19 94.9667 221.472 96.303C214.754 97.6393 207.791 96.9534 201.463 94.3323C195.135 91.7111 189.726 87.2723 185.921 81.5771C182.115 75.882 180.084 69.1863 180.084 62.3369C180.084 55.4874 182.115 48.7917 185.921 43.0966C189.726 37.4014 195.135 32.9626 201.463 30.3414C207.791 27.7203 214.754 27.0344 221.472 28.3707C228.19 29.707 234.361 33.0053 239.204 37.8486L226.96 50.0927C224.538 47.6711 221.453 46.0219 218.094 45.3538C214.735 44.6856 211.253 45.0286 208.089 46.3391C204.925 47.6497 202.221 49.8691 200.318 52.7167C198.416 55.5643 197.4 58.9121 197.4 62.3369C197.4 65.7616 198.416 69.1094 200.318 71.957C202.221 74.8046 204.925 77.024 208.089 78.3345C211.253 79.6451 214.735 79.9881 218.094 79.3199C221.453 78.6518 224.538 77.0026 226.96 74.581L239.204 86.8251Z" fill="black"/>
<path d="M169.695 62.3368C169.695 81.4633 154.19 96.9684 135.063 96.9684C115.937 96.9684 100.432 81.4633 100.432 62.3368C100.432 43.2104 115.937 27.7053 135.063 27.7053C154.19 27.7053 169.695 43.2104 169.695 62.3368ZM117.747 62.3368C117.747 71.9001 125.5 79.6526 135.063 79.6526C144.626 79.6526 152.379 71.9001 152.379 62.3368C152.379 52.7736 144.626 45.0211 135.063 45.0211C125.5 45.0211 117.747 52.7736 117.747 62.3368Z" fill="black"/>
<rect x="135.063" y="45.0211" width="17.3158" height="34.6316" fill="black"/>
<path d="M20.7789 27.7053L55.4105 96.9684L90.042 27.7053H72.7263L55.4105 62.3369L38.0947 27.7053H20.7789Z" fill="black"/>
<rect x="20.7789" y="27.7053" width="13.8526" height="17.3158" fill="black"/>
<rect x="27.7053" y="45.0211" width="13.8526" height="17.3158" fill="black"/>
<rect x="34.6315" y="62.3369" width="13.8526" height="17.3158" fill="black"/>
<rect x="41.5579" y="79.6527" width="13.8526" height="17.3158" fill="black"/>
<rect x="6.92627" y="27.7053" width="6.92631" height="17.3158" fill="#0077FF"/>
<rect x="13.8526" y="45.0211" width="6.92631" height="17.3158" fill="#0077FF"/>
<rect x="27.7053" y="79.6527" width="6.92631" height="17.3158" fill="#0077FF"/>
<rect x="20.7789" y="62.3369" width="6.92631" height="17.3158" fill="#0077FF"/>
<rect y="27.7053" width="6.92631" height="17.3158" fill="#00FF00"/>
<rect x="6.92627" y="45.0211" width="6.92631" height="17.3158" fill="#00FF00"/>
<rect x="13.8526" y="62.3369" width="6.92631" height="17.3158" fill="#00FF00"/>
<rect x="20.7789" y="79.6527" width="6.92631" height="17.3158" fill="#00FF00"/>
<rect x="20.7789" y="45.0211" width="6.92631" height="17.3158" fill="#8000FF"/>
<rect x="34.6315" y="79.6527" width="6.92631" height="17.3158" fill="#8000FF"/>
<rect x="27.7053" y="62.3369" width="6.92631" height="17.3158" fill="#8000FF"/>
<rect x="13.8526" y="27.7053" width="6.92631" height="17.3158" fill="#8000FF"/>
<rect x="259.737" width="69.2631" height="17.3158" fill="black"/>
<rect x="266.663" width="6.92631" height="17.3158" fill="#0077FF"/>
<rect x="259.737" width="6.92631" height="17.3158" fill="#00FF00"/>
<rect x="273.589" width="6.92631" height="17.3158" fill="#8000FF"/>
<rect x="100.432" width="69.2631" height="17.3158" fill="black"/>
<rect x="100.432" width="6.92631" height="17.3158" fill="#00FF00"/>
<rect x="107.358" width="6.92631" height="17.3158" fill="#0077FF"/>
<rect x="114.284" width="6.92631" height="17.3158" fill="#8000FF"/>
</svg>
