<svg width="167" height="36" viewBox="0 0 167 36" fill="none" xmlns="http://www.w3.org/2000/svg">
<path d="M9.04 0.159985L3.776 11.36H2.256L3.696 8.04799L0 0.159985H1.68L4.976 7.67999L4.128 7.61599L7.52 0.159985H9.04ZM17.13 3.99999H18.73L15.37 7.19999L19.05 11.36H17.45L13.93 7.03999L17.13 3.99999ZM14.25 3.99999V11.36H13.05V3.99999H14.25ZM10.17 3.99999L13.37 7.03999L9.85 11.36H8.25L11.93 7.19999L8.57 3.99999H10.17ZM20.1885 7.99999V6.91198H25.1005C25.0578 6.52799 24.9512 6.19199 24.7805 5.90399C24.6205 5.60532 24.3912 5.37599 24.0925 5.21599C23.8045 5.04532 23.4472 4.95999 23.0205 4.95999C22.5938 4.95999 22.2045 5.05065 21.8525 5.23199C21.5005 5.41332 21.2178 5.67465 21.0045 6.01599C20.8018 6.34665 20.7005 6.74132 20.7005 7.19999L20.6685 7.67999C20.6685 8.24532 20.7645 8.72532 20.9565 9.11999C21.1485 9.51465 21.4205 9.81332 21.7725 10.016C22.1245 10.2187 22.5405 10.32 23.0205 10.32C23.3832 10.32 23.7032 10.2667 23.9805 10.16C24.2685 10.0427 24.5245 9.88799 24.7485 9.69599C24.9725 9.49332 25.1645 9.25865 25.3245 8.99199L26.3645 9.64799C26.1192 10.0213 25.8472 10.352 25.5485 10.64C25.2498 10.9173 24.8872 11.136 24.4605 11.296C24.0338 11.4453 23.5005 11.52 22.8605 11.52C22.1992 11.52 21.6018 11.3547 21.0685 11.024C20.5458 10.6933 20.1298 10.24 19.8205 9.66399C19.5218 9.07732 19.3725 8.41599 19.3725 7.67999C19.3725 7.54132 19.3778 7.40799 19.3885 7.27998C19.3992 7.15199 19.4152 7.02399 19.4365 6.89599C19.5432 6.28799 19.7565 5.75465 20.0765 5.29599C20.3965 4.83732 20.8072 4.47999 21.3085 4.22399C21.8205 3.96798 22.3912 3.83998 23.0205 3.83998C23.7138 3.83998 24.3218 3.99465 24.8445 4.30399C25.3672 4.61332 25.7725 5.05065 26.0605 5.61598C26.3485 6.17065 26.4925 6.83732 26.4925 7.61599C26.4925 7.67999 26.4925 7.74399 26.4925 7.80799C26.4925 7.87199 26.4872 7.93599 26.4765 7.99999H20.1885ZM33.2198 7.99999V6.91198H38.1318C38.0891 6.52799 37.9824 6.19199 37.8118 5.90399C37.6518 5.60532 37.4224 5.37599 37.1238 5.21599C36.8358 5.04532 36.4784 4.95999 36.0518 4.95999C35.6251 4.95999 35.2358 5.05065 34.8838 5.23199C34.5318 5.41332 34.2491 5.67465 34.0358 6.01599C33.8331 6.34665 33.7318 6.74132 33.7318 7.19999L33.6998 7.67999C33.6998 8.24532 33.7958 8.72532 33.9878 9.11999C34.1798 9.51465 34.4518 9.81332 34.8038 10.016C35.1558 10.2187 35.5718 10.32 36.0518 10.32C36.4144 10.32 36.7344 10.2667 37.0118 10.16C37.2998 10.0427 37.5558 9.88799 37.7798 9.69599C38.0038 9.49332 38.1958 9.25865 38.3558 8.99199L39.3958 9.64799C39.1504 10.0213 38.8784 10.352 38.5798 10.64C38.2811 10.9173 37.9184 11.136 37.4918 11.296C37.0651 11.4453 36.5318 11.52 35.8918 11.52C35.2304 11.52 34.6331 11.3547 34.0998 11.024C33.5771 10.6933 33.1611 10.24 32.8518 9.66399C32.5531 9.07732 32.4038 8.41599 32.4038 7.67999C32.4038 7.54132 32.4091 7.40799 32.4198 7.27998C32.4304 7.15199 32.4464 7.02399 32.4678 6.89599C32.5744 6.28799 32.7878 5.75465 33.1078 5.29599C33.4278 4.83732 33.8384 4.47999 34.3398 4.22399C34.8518 3.96798 35.4224 3.83998 36.0518 3.83998C36.7451 3.83998 37.3531 3.99465 37.8758 4.30399C38.3984 4.61332 38.8038 5.05065 39.0918 5.61598C39.3798 6.17065 39.5238 6.83732 39.5238 7.61599C39.5238 7.67999 39.5238 7.74399 39.5238 7.80799C39.5238 7.87199 39.5184 7.93599 39.5078 7.99999H33.2198ZM41.8541 7.67999C41.8541 8.19199 41.9608 8.64532 42.1741 9.03999C42.3981 9.43465 42.6968 9.74932 43.0701 9.98399C43.4541 10.208 43.8861 10.32 44.3661 10.32C44.7608 10.32 45.1288 10.2613 45.4701 10.144C45.8221 10.016 46.1261 9.85065 46.3821 9.64799C46.6381 9.43465 46.8195 9.21065 46.9261 8.97599V10.576C46.6701 10.8747 46.3021 11.1093 45.8221 11.28C45.3528 11.44 44.8675 11.52 44.3661 11.52C43.6515 11.52 43.0061 11.3547 42.4301 11.024C41.8541 10.6933 41.3955 10.24 41.0541 9.66399C40.7235 9.07732 40.5581 8.41599 40.5581 7.67999C40.5581 6.93332 40.7235 6.27199 41.0541 5.69599C41.3955 5.11999 41.8541 4.66665 42.4301 4.33599C43.0061 4.00532 43.6515 3.83998 44.3661 3.83998C44.8675 3.83998 45.3528 3.92532 45.8221 4.09598C46.3021 4.25599 46.6701 4.48532 46.9261 4.78399V6.38399C46.8195 6.13865 46.6381 5.91465 46.3821 5.71199C46.1261 5.50932 45.8221 5.34932 45.4701 5.23199C45.1288 5.10399 44.7608 5.03999 44.3661 5.03999C43.8861 5.03999 43.4541 5.15199 43.0701 5.37599C42.6968 5.59999 42.3981 5.91465 42.1741 6.31998C41.9608 6.71465 41.8541 7.16799 41.8541 7.67999ZM47.7988 3.99999H52.1188V5.19999H47.7988V3.99999ZM49.3188 4.31998H50.5988V11.36H49.3188V4.31998ZM53.4031 3.99999H54.6831V11.36H53.4031V3.99999ZM54.1551 7.90399V6.78399H56.4431C57.2005 6.78399 57.8351 6.97065 58.3471 7.34399C58.8698 7.70665 59.1311 8.28265 59.1311 9.07199C59.1311 9.59465 59.0138 10.0267 58.7791 10.368C58.5445 10.7093 58.2245 10.96 57.8191 11.12C57.4138 11.28 56.9551 11.36 56.4431 11.36H54.1551V10.24H56.4431C56.7525 10.24 57.0085 10.1973 57.2111 10.112C57.4245 10.016 57.5845 9.88265 57.6911 9.71199C57.7978 9.53065 57.8511 9.31732 57.8511 9.07199C57.8511 8.69865 57.7338 8.41065 57.4991 8.20799C57.2645 8.00532 56.9125 7.90399 56.4431 7.90399H54.1551ZM66.5104 9.19999C66.5104 9.45599 66.5797 9.67465 66.7184 9.85599C66.857 10.0267 67.0437 10.16 67.2784 10.256C67.513 10.3413 67.7744 10.384 68.0624 10.384C68.489 10.384 68.8677 10.32 69.1984 10.192C69.529 10.064 69.785 9.86132 69.9664 9.58399C70.1584 9.30665 70.2544 8.93865 70.2544 8.47999L70.5104 9.27999C70.5104 9.74932 70.3824 10.1547 70.1264 10.496C69.881 10.8267 69.5504 11.0827 69.1344 11.264C68.7184 11.4347 68.2544 11.52 67.7424 11.52C67.2837 11.52 66.8624 11.4347 66.4784 11.264C66.0944 11.0933 65.785 10.8427 65.5504 10.512C65.3264 10.1707 65.2144 9.74932 65.2144 9.24799C65.2144 8.72532 65.3424 8.28265 65.5984 7.91999C65.8544 7.55732 66.217 7.27999 66.6864 7.08799C67.1557 6.88532 67.7104 6.78399 68.3504 6.78399C68.8197 6.78399 69.2197 6.84799 69.5504 6.97599C69.8917 7.09332 70.1637 7.23199 70.3664 7.39199C70.569 7.54132 70.7077 7.66399 70.7824 7.75999V8.51199C70.4197 8.25599 70.0517 8.06932 69.6784 7.95199C69.305 7.82399 68.8837 7.75999 68.4144 7.75999C67.9877 7.75999 67.6304 7.81865 67.3424 7.93599C67.065 8.05332 66.857 8.21865 66.7184 8.43199C66.5797 8.64532 66.5104 8.90132 66.5104 9.19999ZM66.5104 5.72798L65.8864 4.75199C66.1637 4.54932 66.537 4.34665 67.0064 4.14398C67.4757 3.94132 68.041 3.83998 68.7024 3.83998C69.2677 3.83998 69.7584 3.93065 70.1744 4.11199C70.601 4.28265 70.9317 4.53332 71.1664 4.86399C71.4117 5.19465 71.5344 5.59998 71.5344 6.07999V11.36H70.2544V6.07999C70.2544 5.70665 70.0944 5.42932 69.7744 5.24798C69.465 5.05599 69.1077 4.95999 68.7024 4.95999C68.3504 4.95999 68.0304 5.00799 67.7424 5.10398C67.4544 5.18932 67.2037 5.29599 66.9904 5.42399C66.7877 5.54132 66.6277 5.64265 66.5104 5.72798ZM73.62 3.99999H74.9V11.36H73.62V3.99999ZM77.62 3.99999H79.22L76.02 7.03999L79.54 11.36H77.94L74.42 7.03999L77.62 3.99999ZM80.6669 3.99999H81.9469V11.36H80.6669V3.99999ZM84.6669 3.99999H86.2669L83.0669 7.03999L86.5869 11.36H84.9869L81.4669 7.03999L84.6669 3.99999ZM88.3698 9.19999C88.3698 9.45599 88.4391 9.67465 88.5778 9.85599C88.7164 10.0267 88.9031 10.16 89.1378 10.256C89.3724 10.3413 89.6338 10.384 89.9218 10.384C90.3484 10.384 90.7271 10.32 91.0578 10.192C91.3884 10.064 91.6444 9.86132 91.8258 9.58399C92.0178 9.30665 92.1138 8.93865 92.1138 8.47999L92.3698 9.27999C92.3698 9.74932 92.2418 10.1547 91.9858 10.496C91.7404 10.8267 91.4098 11.0827 90.9938 11.264C90.5778 11.4347 90.1138 11.52 89.6018 11.52C89.1431 11.52 88.7218 11.4347 88.3378 11.264C87.9538 11.0933 87.6444 10.8427 87.4098 10.512C87.1858 10.1707 87.0738 9.74932 87.0738 9.24799C87.0738 8.72532 87.2018 8.28265 87.4578 7.91999C87.7138 7.55732 88.0764 7.27999 88.5458 7.08799C89.0151 6.88532 89.5698 6.78399 90.2098 6.78399C90.6791 6.78399 91.0791 6.84799 91.4098 6.97599C91.7511 7.09332 92.0231 7.23199 92.2258 7.39199C92.4284 7.54132 92.5671 7.66399 92.6418 7.75999V8.51199C92.2791 8.25599 91.9111 8.06932 91.5378 7.95199C91.1644 7.82399 90.7431 7.75999 90.2738 7.75999C89.8471 7.75999 89.4898 7.81865 89.2018 7.93599C88.9244 8.05332 88.7164 8.21865 88.5778 8.43199C88.4391 8.64532 88.3698 8.90132 88.3698 9.19999ZM88.3698 5.72798L87.7458 4.75199C88.0231 4.54932 88.3964 4.34665 88.8658 4.14398C89.3351 3.94132 89.9004 3.83998 90.5618 3.83998C91.1271 3.83998 91.6178 3.93065 92.0338 4.11199C92.4604 4.28265 92.7911 4.53332 93.0258 4.86399C93.2711 5.19465 93.3938 5.59998 93.3938 6.07999V11.36H92.1138V6.07999C92.1138 5.70665 91.9538 5.42932 91.6338 5.24798C91.3244 5.05599 90.9671 4.95999 90.5618 4.95999C90.2098 4.95999 89.8898 5.00799 89.6018 5.10398C89.3138 5.18932 89.0631 5.29599 88.8498 5.42399C88.6471 5.54132 88.4871 5.64265 88.3698 5.72798ZM101.321 3.99999L96.5213 14.88H95.0813L97.0973 10.32L94.2812 3.99999H95.8013L98.1373 9.75999L97.6093 9.69599L99.8813 3.99999H101.321ZM103.28 8.07999V6.87999H108.72V8.07999H103.28ZM107.888 3.99999H109.168V11.36H107.888V3.99999ZM102.528 3.99999H103.808V11.36H102.528V3.99999ZM110.455 3.99999H114.775V5.19999H110.455V3.99999ZM111.975 4.31998H113.255V11.36H111.975V4.31998ZM121.515 3.35999C121.515 2.90132 121.419 2.51198 121.227 2.19199C121.035 1.87198 120.763 1.62665 120.411 1.45599C120.059 1.28532 119.643 1.19998 119.163 1.19998C118.63 1.19998 118.171 1.32265 117.787 1.56798C117.414 1.80265 117.105 2.12265 116.859 2.52798L115.819 1.87198C116.065 1.49865 116.337 1.17332 116.635 0.895985C116.934 0.607985 117.297 0.389318 117.723 0.239985C118.161 0.0799847 118.694 -1.52588e-05 119.323 -1.52588e-05C119.825 -1.52588e-05 120.283 0.0853182 120.699 0.255985C121.126 0.426652 121.494 0.666651 121.803 0.975985C122.123 1.27465 122.369 1.62665 122.539 2.03199C122.721 2.43732 122.811 2.87999 122.811 3.35999C122.811 3.96799 122.651 4.52265 122.331 5.02398C122.011 5.51465 121.595 5.91465 121.083 6.22399C120.571 6.52265 120.017 6.68799 119.419 6.71999L119.307 8.63999H118.347L118.027 5.83998H118.443C119.083 5.83998 119.633 5.71732 120.091 5.47198C120.55 5.22665 120.902 4.91732 121.147 4.54398C121.393 4.15999 121.515 3.76532 121.515 3.35999ZM117.979 10.72C117.979 10.4747 118.065 10.2667 118.235 10.096C118.417 9.92532 118.625 9.83999 118.859 9.83999C119.105 9.83999 119.313 9.92532 119.483 10.096C119.654 10.2667 119.739 10.4747 119.739 10.72C119.739 10.9547 119.654 11.1627 119.483 11.344C119.313 11.5147 119.105 11.6 118.859 11.6C118.625 11.6 118.417 11.5147 118.235 11.344C118.065 11.1627 117.979 10.9547 117.979 10.72ZM25.6259 24.68L15.8659 34.92L15.9459 32.84L25.7059 22.6L25.6259 24.68ZM17.2259 23.16V33.16L15.8659 34.92V23.16H17.2259ZM25.7059 22.6V34.36H24.3459V24.36L25.7059 22.6ZM34.6402 27V34.36H33.3602V28.2H29.6002V31.8C29.6002 32.376 29.5095 32.856 29.3282 33.24C29.1575 33.6133 28.8909 33.896 28.5282 34.088C28.1655 34.2693 27.7069 34.36 27.1522 34.36V33.192C27.4722 33.192 27.7442 33.0907 27.9682 32.888C28.2029 32.6853 28.3202 32.3227 28.3202 31.8V27H34.6402ZM43.2741 28.28L37.1941 34.92L37.2741 33.08L43.3541 26.44L43.2741 28.28ZM38.4741 27V33.16L37.1941 34.92V27H38.4741ZM43.3541 26.44V34.36H42.0741V28.2L43.3541 26.44ZM53.2377 30.68V29.88C53.7284 29.88 54.0804 29.7893 54.2937 29.608C54.507 29.416 54.6137 29.1867 54.6137 28.92C54.6137 28.632 54.507 28.408 54.2937 28.248C54.0804 28.0773 53.7817 27.992 53.3977 27.992C53.0777 27.992 52.811 28.056 52.5977 28.184C52.395 28.3013 52.2457 28.4507 52.1497 28.632C52.0537 28.8027 52.0057 28.9733 52.0057 29.144H50.7097C50.7097 28.728 50.827 28.344 51.0617 27.992C51.2964 27.64 51.6164 27.3627 52.0217 27.16C52.427 26.9467 52.8857 26.84 53.3977 26.84C53.8777 26.84 54.3097 26.9307 54.6937 27.112C55.0777 27.2933 55.3764 27.5333 55.5897 27.832C55.8137 28.1307 55.9257 28.4613 55.9257 28.824C55.9257 29.3573 55.6857 29.8 55.2057 30.152C54.7364 30.504 54.0804 30.68 53.2377 30.68ZM53.3657 34.52C52.5017 34.52 51.8084 34.2853 51.2857 33.816C50.7737 33.3467 50.475 32.7547 50.3897 32.04H51.6857C51.7604 32.392 51.9204 32.7067 52.1657 32.984C52.411 33.2613 52.811 33.4 53.3657 33.4C53.707 33.4 53.995 33.352 54.2297 33.256C54.475 33.16 54.6617 33.0213 54.7897 32.84C54.9177 32.6587 54.9817 32.4507 54.9817 32.216C54.9817 31.96 54.9124 31.7413 54.7737 31.56C54.6457 31.3787 54.4484 31.24 54.1817 31.144C53.9257 31.048 53.611 31 53.2377 31V30.2C54.155 30.2 54.8857 30.36 55.4297 30.68C55.9737 31 56.2457 31.5067 56.2457 32.2C56.2457 32.68 56.1124 33.096 55.8457 33.448C55.5897 33.7893 55.243 34.056 54.8057 34.248C54.3684 34.4293 53.8884 34.52 53.3657 34.52ZM58.7369 32.2C58.7369 32.456 58.8063 32.6747 58.9449 32.856C59.0836 33.0267 59.2703 33.16 59.5049 33.256C59.7396 33.3413 60.0009 33.384 60.2889 33.384C60.7156 33.384 61.0943 33.32 61.4249 33.192C61.7556 33.064 62.0116 32.8613 62.1929 32.584C62.3849 32.3067 62.4809 31.9387 62.4809 31.48L62.7369 32.28C62.7369 32.7493 62.6089 33.1547 62.3529 33.496C62.1076 33.8267 61.7769 34.0827 61.3609 34.264C60.9449 34.4347 60.4809 34.52 59.9689 34.52C59.5103 34.52 59.0889 34.4347 58.7049 34.264C58.3209 34.0933 58.0116 33.8427 57.7769 33.512C57.5529 33.1707 57.4409 32.7493 57.4409 32.248C57.4409 31.7253 57.5689 31.2827 57.8249 30.92C58.0809 30.5573 58.4436 30.28 58.9129 30.088C59.3823 29.8853 59.9369 29.784 60.5769 29.784C61.0463 29.784 61.4463 29.848 61.7769 29.976C62.1183 30.0933 62.3903 30.232 62.5929 30.392C62.7956 30.5413 62.9343 30.664 63.0089 30.76V31.512C62.6463 31.256 62.2783 31.0693 61.9049 30.952C61.5316 30.824 61.1103 30.76 60.6409 30.76C60.2143 30.76 59.8569 30.8187 59.5689 30.936C59.2916 31.0533 59.0836 31.2187 58.9449 31.432C58.8063 31.6453 58.7369 31.9013 58.7369 32.2ZM58.7369 28.728L58.1129 27.752C58.3903 27.5493 58.7636 27.3467 59.2329 27.144C59.7023 26.9413 60.2676 26.84 60.9289 26.84C61.4943 26.84 61.9849 26.9307 62.4009 27.112C62.8276 27.2827 63.1583 27.5333 63.3929 27.864C63.6383 28.1947 63.7609 28.6 63.7609 29.08V34.36H62.4809V29.08C62.4809 28.7067 62.3209 28.4293 62.0009 28.248C61.6916 28.056 61.3343 27.96 60.9289 27.96C60.5769 27.96 60.2569 28.008 59.9689 28.104C59.6809 28.1893 59.4303 28.296 59.2169 28.424C59.0143 28.5413 58.8543 28.6427 58.7369 28.728ZM72.0866 28.28L66.0066 34.92L66.0866 33.08L72.1666 26.44L72.0866 28.28ZM67.2866 27V33.16L66.0066 34.92V27H67.2866ZM72.1666 26.44V34.36H70.8866V28.2L72.1666 26.44ZM66.5986 23.24H67.7346C67.7346 23.3787 67.7719 23.544 67.8466 23.736C67.9212 23.9173 68.0599 24.0827 68.2626 24.232C68.4652 24.3707 68.7532 24.44 69.1266 24.44C69.4999 24.44 69.7879 24.3707 69.9906 24.232C70.1932 24.0827 70.3319 23.9173 70.4066 23.736C70.4812 23.544 70.5186 23.3787 70.5186 23.24H71.6546C71.6546 23.6027 71.5586 23.96 71.3666 24.312C71.1852 24.6533 70.9079 24.936 70.5346 25.16C70.1612 25.3733 69.6919 25.48 69.1266 25.48C68.5719 25.48 68.1026 25.3733 67.7186 25.16C67.3452 24.936 67.0626 24.6533 66.8706 24.312C66.6892 23.96 66.5986 23.6027 66.5986 23.24ZM78.6453 29.208L76.4853 33.88H75.0453L78.6453 26.44L82.2453 33.88H80.8053L78.6453 29.208ZM81.9253 34.36H75.4453V35.8H74.0853V33.16H83.2053V35.8H81.9253V34.36ZM91.2897 28.28L85.2097 34.92L85.2897 33.08L91.3697 26.44L91.2897 28.28ZM86.4897 27V33.16L85.2097 34.92V27H86.4897ZM91.3697 26.44V34.36H90.0897V28.2L91.3697 26.44ZM92.7284 27H97.0484V28.2H92.7284V27ZM94.2484 27.32H95.5284V34.36H94.2484V27.32ZM98.2744 31V29.912H103.186C103.144 29.528 103.037 29.192 102.866 28.904C102.706 28.6053 102.477 28.376 102.178 28.216C101.89 28.0453 101.533 27.96 101.106 27.96C100.68 27.96 100.29 28.0507 99.9384 28.232C99.5864 28.4133 99.3038 28.6747 99.0904 29.016C98.8878 29.3467 98.7864 29.7413 98.7864 30.2L98.7544 30.68C98.7544 31.2453 98.8504 31.7253 99.0424 32.12C99.2344 32.5147 99.5064 32.8133 99.8584 33.016C100.21 33.2187 100.626 33.32 101.106 33.32C101.469 33.32 101.789 33.2667 102.066 33.16C102.354 33.0427 102.61 32.888 102.834 32.696C103.058 32.4933 103.25 32.2587 103.41 31.992L104.45 32.648C104.205 33.0213 103.933 33.352 103.634 33.64C103.336 33.9173 102.973 34.136 102.546 34.296C102.12 34.4453 101.586 34.52 100.946 34.52C100.285 34.52 99.6878 34.3547 99.1544 34.024C98.6318 33.6933 98.2158 33.24 97.9064 32.664C97.6078 32.0773 97.4584 31.416 97.4584 30.68C97.4584 30.5413 97.4638 30.408 97.4744 30.28C97.4851 30.152 97.5011 30.024 97.5224 29.896C97.6291 29.288 97.8424 28.7547 98.1624 28.296C98.4824 27.8373 98.8931 27.48 99.3944 27.224C99.9064 26.968 100.477 26.84 101.106 26.84C101.8 26.84 102.408 26.9947 102.93 27.304C103.453 27.6133 103.858 28.0507 104.146 28.616C104.434 29.1707 104.578 29.8373 104.578 30.616C104.578 30.68 104.578 30.744 104.578 30.808C104.578 30.872 104.573 30.936 104.562 31H98.2744Z" fill="white"/>
<path d="M130.914 5.43999V4.68798H132.723C133.096 4.68798 133.432 4.62398 133.731 4.49599C134.029 4.36799 134.264 4.18132 134.435 3.93599C134.605 3.69065 134.691 3.39198 134.691 3.03998C134.691 2.50665 134.504 2.09598 134.131 1.80799C133.757 1.50932 133.288 1.35999 132.723 1.35999H131.203V10.16H132.883C133.363 10.16 133.784 10.0747 134.147 9.90399C134.52 9.73332 134.808 9.48799 135.011 9.16799C135.224 8.84799 135.331 8.45865 135.331 7.99999C135.331 7.65865 135.272 7.35465 135.155 7.08799C135.037 6.82132 134.867 6.59732 134.643 6.41599C134.429 6.23465 134.173 6.10132 133.875 6.01599C133.576 5.91998 133.245 5.87198 132.883 5.87198H130.914V5.11999H132.883C133.427 5.11999 133.928 5.17865 134.387 5.29599C134.845 5.41332 135.245 5.59465 135.587 5.83998C135.939 6.07465 136.211 6.37865 136.403 6.75199C136.595 7.12532 136.691 7.56799 136.691 8.07999C136.691 8.81599 136.52 9.42932 136.179 9.91999C135.848 10.4 135.395 10.7627 134.819 11.008C134.253 11.2427 133.608 11.36 132.883 11.36H129.843V0.159985H132.723C133.395 0.159985 133.976 0.261318 134.467 0.463984C134.968 0.666651 135.357 0.975985 135.635 1.39198C135.912 1.79732 136.051 2.31998 136.051 2.95998C136.051 3.48265 135.912 3.93065 135.635 4.30399C135.357 4.67732 134.968 4.95999 134.467 5.15199C133.976 5.34399 133.395 5.43999 132.723 5.43999H130.914ZM138.044 7.67999C138.044 6.93332 138.21 6.27199 138.54 5.69599C138.882 5.11999 139.34 4.66665 139.916 4.33599C140.492 4.00532 141.138 3.83998 141.852 3.83998C142.578 3.83998 143.223 4.00532 143.788 4.33599C144.364 4.66665 144.818 5.11999 145.148 5.69599C145.49 6.27199 145.66 6.93332 145.66 7.67999C145.66 8.41599 145.49 9.07732 145.148 9.66399C144.818 10.24 144.364 10.6933 143.788 11.024C143.223 11.3547 142.578 11.52 141.852 11.52C141.138 11.52 140.492 11.3547 139.916 11.024C139.34 10.6933 138.882 10.24 138.54 9.66399C138.21 9.07732 138.044 8.41599 138.044 7.67999ZM139.34 7.67999C139.34 8.19199 139.447 8.64532 139.66 9.03999C139.884 9.43465 140.183 9.74932 140.556 9.98399C140.94 10.208 141.372 10.32 141.852 10.32C142.332 10.32 142.759 10.208 143.132 9.98399C143.516 9.74932 143.815 9.43465 144.028 9.03999C144.252 8.64532 144.364 8.19199 144.364 7.67999C144.364 7.16799 144.252 6.71465 144.028 6.31998C143.815 5.91465 143.516 5.59999 143.132 5.37599C142.759 5.15199 142.332 5.03999 141.852 5.03999C141.372 5.03999 140.94 5.15199 140.556 5.37599C140.183 5.59999 139.884 5.91465 139.66 6.31998C139.447 6.71465 139.34 7.16799 139.34 7.67999ZM153.579 5.27998L147.499 11.92L147.579 10.08L153.659 3.43998L153.579 5.27998ZM148.779 3.99999V10.16L147.499 11.92V3.99999H148.779ZM153.659 3.43998V11.36H152.379V5.19999L153.659 3.43998ZM148.091 0.239985H149.227C149.227 0.378651 149.264 0.543985 149.339 0.735985C149.413 0.917318 149.552 1.08265 149.755 1.23199C149.957 1.37065 150.245 1.43999 150.619 1.43999C150.992 1.43999 151.28 1.37065 151.483 1.23199C151.685 1.08265 151.824 0.917318 151.899 0.735985C151.973 0.543985 152.011 0.378651 152.011 0.239985H153.147C153.147 0.602652 153.051 0.959985 152.859 1.31199C152.677 1.65332 152.4 1.93598 152.027 2.15998C151.653 2.37332 151.184 2.47999 150.619 2.47999C150.064 2.47999 149.595 2.37332 149.211 2.15998C148.837 1.93598 148.555 1.65332 148.363 1.31199C148.181 0.959985 148.091 0.602652 148.091 0.239985ZM155.018 3.99999H159.338V5.19999H155.018V3.99999ZM156.538 4.31998H157.818V11.36H156.538V4.31998ZM166.782 5.27998L160.702 11.92L160.782 10.08L166.862 3.43998L166.782 5.27998ZM161.982 3.99999V10.16L160.702 11.92V3.99999H161.982ZM166.862 3.43998V11.36H165.582V5.19999L166.862 3.43998Z" fill="#0077FF"/>
<path d="M111.21 27H115.13V28.2H112.49V34.36H111.21V27ZM115.537 30.68C115.537 29.9333 115.702 29.272 116.033 28.696C116.374 28.12 116.833 27.6667 117.409 27.336C117.985 27.0053 118.63 26.84 119.345 26.84C120.07 26.84 120.715 27.0053 121.281 27.336C121.857 27.6667 122.31 28.12 122.641 28.696C122.982 29.272 123.153 29.9333 123.153 30.68C123.153 31.416 122.982 32.0773 122.641 32.664C122.31 33.24 121.857 33.6933 121.281 34.024C120.715 34.3547 120.07 34.52 119.345 34.52C118.63 34.52 117.985 34.3547 117.409 34.024C116.833 33.6933 116.374 33.24 116.033 32.664C115.702 32.0773 115.537 31.416 115.537 30.68ZM116.833 30.68C116.833 31.192 116.939 31.6453 117.153 32.04C117.377 32.4347 117.675 32.7493 118.049 32.984C118.433 33.208 118.865 33.32 119.345 33.32C119.825 33.32 120.251 33.208 120.625 32.984C121.009 32.7493 121.307 32.4347 121.521 32.04C121.745 31.6453 121.857 31.192 121.857 30.68C121.857 30.168 121.745 29.7147 121.521 29.32C121.307 28.9147 121.009 28.6 120.625 28.376C120.251 28.152 119.825 28.04 119.345 28.04C118.865 28.04 118.433 28.152 118.049 28.376C117.675 28.6 117.377 28.9147 117.153 29.32C116.939 29.7147 116.833 30.168 116.833 30.68ZM125.487 30.68C125.487 31.192 125.594 31.6453 125.807 32.04C126.031 32.4347 126.33 32.7493 126.703 32.984C127.087 33.208 127.519 33.32 127.999 33.32C128.394 33.32 128.762 33.2613 129.103 33.144C129.455 33.016 129.759 32.8507 130.015 32.648C130.271 32.4347 130.452 32.2107 130.559 31.976V33.576C130.303 33.8747 129.935 34.1093 129.455 34.28C128.986 34.44 128.5 34.52 127.999 34.52C127.284 34.52 126.639 34.3547 126.063 34.024C125.487 33.6933 125.028 33.24 124.687 32.664C124.356 32.0773 124.191 31.416 124.191 30.68C124.191 29.9333 124.356 29.272 124.687 28.696C125.028 28.12 125.487 27.6667 126.063 27.336C126.639 27.0053 127.284 26.84 127.999 26.84C128.5 26.84 128.986 26.9253 129.455 27.096C129.935 27.256 130.303 27.4853 130.559 27.784V29.384C130.452 29.1387 130.271 28.9147 130.015 28.712C129.759 28.5093 129.455 28.3493 129.103 28.232C128.762 28.104 128.394 28.04 127.999 28.04C127.519 28.04 127.087 28.152 126.703 28.376C126.33 28.6 126.031 28.9147 125.807 29.32C125.594 29.7147 125.487 30.168 125.487 30.68ZM131.432 27H135.752V28.2H131.432V27ZM132.952 27.32H134.232V34.36H132.952V27.32ZM136.978 31V29.912H141.89C141.847 29.528 141.74 29.192 141.57 28.904C141.41 28.6053 141.18 28.376 140.882 28.216C140.594 28.0453 140.236 27.96 139.81 27.96C139.383 27.96 138.994 28.0507 138.642 28.232C138.29 28.4133 138.007 28.6747 137.794 29.016C137.591 29.3467 137.49 29.7413 137.49 30.2L137.458 30.68C137.458 31.2453 137.554 31.7253 137.746 32.12C137.938 32.5147 138.21 32.8133 138.562 33.016C138.914 33.2187 139.33 33.32 139.81 33.32C140.172 33.32 140.492 33.2667 140.77 33.16C141.058 33.0427 141.314 32.888 141.538 32.696C141.762 32.4933 141.954 32.2587 142.114 31.992L143.154 32.648C142.908 33.0213 142.636 33.352 142.338 33.64C142.039 33.9173 141.676 34.136 141.25 34.296C140.823 34.4453 140.29 34.52 139.65 34.52C138.988 34.52 138.391 34.3547 137.858 34.024C137.335 33.6933 136.919 33.24 136.61 32.664C136.311 32.0773 136.162 31.416 136.162 30.68C136.162 30.5413 136.167 30.408 136.178 30.28C136.188 30.152 136.204 30.024 136.226 29.896C136.332 29.288 136.546 28.7547 136.866 28.296C137.186 27.8373 137.596 27.48 138.098 27.224C138.61 26.968 139.18 26.84 139.81 26.84C140.503 26.84 141.111 26.9947 141.634 27.304C142.156 27.6133 142.562 28.0507 142.85 28.616C143.138 29.1707 143.282 29.8373 143.282 30.616C143.282 30.68 143.282 30.744 143.282 30.808C143.282 30.872 143.276 30.936 143.266 31H136.978ZM152.028 34.36L150.828 28.52L151.548 26.44L153.468 34.36H152.028ZM148.188 33.256L151.548 26.44L151.708 29L148.668 34.856L148.188 33.256ZM148.668 34.856L145.676 29L145.836 26.44L149.148 33.256L148.668 34.856ZM143.916 34.36L145.836 26.44L146.556 28.52L145.356 34.36H143.916Z" fill="#8000FF"/>
</svg>
