<svg width="432" height="32" viewBox="0 0 432 32" fill="none" xmlns="http://www.w3.org/2000/svg">
<path d="M4.15988 13.088L4.38388 11.616H7.80789C8.53322 11.5733 9.20522 11.424 9.82388 11.168C10.4639 10.912 10.9972 10.5493 11.4239 10.08C11.8719 9.58929 12.1599 9.00263 12.2879 8.31996C12.4586 7.31729 12.2452 6.51729 11.6479 5.91996C11.0506 5.32263 10.2292 5.00263 9.18389 4.95996H6.14389L3.13588 22.56L6.20789 22.528C7.14655 22.5066 8.01055 22.3253 8.79988 21.984C9.58922 21.6426 10.2506 21.152 10.7839 20.512C11.3172 19.872 11.6692 19.1146 11.8399 18.24C11.9892 17.3653 11.9146 16.6186 11.6159 16C11.3386 15.3813 10.8799 14.9013 10.2399 14.56C9.59989 14.1973 8.83189 14.0053 7.93589 13.984L3.99989 13.952L4.22389 12.48H7.96789C8.94922 12.48 9.86655 12.608 10.7199 12.864C11.5732 13.0986 12.3092 13.4613 12.9279 13.952C13.5466 14.4213 13.9946 15.0293 14.2719 15.776C14.5706 16.5226 14.6452 17.3973 14.4959 18.4C14.3039 19.808 13.8026 21.0026 12.9919 21.984C12.2026 22.944 11.2106 23.6693 10.0159 24.16C8.82122 24.6506 7.51989 24.9173 6.11189 24.96H-0.000115156L3.83989 2.55996H9.31188C10.2292 2.58129 11.0612 2.71996 11.8079 2.97596C12.5759 3.21063 13.2159 3.56263 13.7279 4.03196C14.2612 4.47996 14.6452 5.05596 14.8799 5.75996C15.1146 6.44263 15.1572 7.24263 15.0079 8.15996C14.8372 9.24796 14.4106 10.1546 13.7279 10.88C13.0452 11.6053 12.1812 12.1493 11.1359 12.512C10.1119 12.8746 8.99189 13.0666 7.77589 13.088H4.15988ZM31.2956 12.896L17.0556 26.272L17.9836 22.304L32.2236 8.89596L31.2956 12.896ZM22.4636 10.24L20.2876 22.656L17.0556 26.272L19.8716 10.24H22.4636ZM32.2236 8.89596L29.3756 24.96H26.8156L28.9596 12.512L32.2236 8.89596ZM43.8171 14.656L37.9931 23.968H35.0171L44.6491 9.02396L49.0651 24H46.3771L43.8171 14.656ZM48.3931 24.96H35.7851L35.2731 27.84H32.5211L33.4811 22.56H51.2731L50.3131 27.84H47.8491L48.3931 24.96ZM56.2249 18.24L56.5449 16.064H66.0489C66.0916 15.3386 66.0062 14.688 65.7929 14.112C65.5796 13.5146 65.2169 13.0453 64.7049 12.704C64.2142 12.3413 63.5529 12.16 62.7209 12.16C61.8462 12.1386 61.0462 12.3306 60.3209 12.736C59.5956 13.1413 58.9769 13.6853 58.4649 14.368C57.9742 15.0293 57.6436 15.7866 57.4729 16.64L57.2489 17.6C57.1209 18.5386 57.1636 19.4133 57.3769 20.224C57.5902 21.0133 57.9849 21.6533 58.5609 22.144C59.1582 22.6133 59.9476 22.848 60.9289 22.848C61.6329 22.848 62.2729 22.7306 62.8489 22.496C63.4249 22.2613 63.9582 21.9413 64.4489 21.536C64.9396 21.1306 65.3876 20.6826 65.7929 20.192L67.7449 21.568C67.1476 22.272 66.4969 22.912 65.7929 23.488C65.1102 24.0426 64.3316 24.48 63.4569 24.8C62.5822 25.0986 61.5689 25.248 60.4169 25.248C59.0516 25.2266 57.9102 24.864 56.9929 24.16C56.0969 23.4346 55.4569 22.496 55.0729 21.344C54.6889 20.1706 54.5716 18.9226 54.7209 17.6C54.7636 17.3226 54.8062 17.056 54.8489 16.8C54.9129 16.544 54.9876 16.288 55.0729 16.032C55.4356 14.88 55.9902 13.8453 56.7369 12.928C57.4836 11.9893 58.3796 11.2533 59.4249 10.72C60.4916 10.1866 61.6542 9.91996 62.9129 9.91996C64.3209 9.91996 65.4729 10.272 66.3689 10.976C67.2649 11.6586 67.8942 12.5653 68.2569 13.696C68.6409 14.8266 68.7582 16.0853 68.6089 17.472C68.5876 17.6 68.5662 17.728 68.5449 17.856C68.5236 17.984 68.5022 18.112 68.4809 18.24H56.2249ZM70.4969 17.6C70.7102 16.1706 71.2222 14.88 72.0329 13.728C72.8436 12.576 73.8569 11.6586 75.0729 10.976C76.3102 10.272 77.6542 9.91996 79.1049 9.91996C80.5342 9.91996 81.7502 10.2826 82.7529 11.008C83.7556 11.712 84.4916 12.6506 84.9609 13.824C85.4302 14.976 85.5689 16.2346 85.3769 17.6C85.1636 19.008 84.6409 20.288 83.8089 21.44C82.9982 22.592 81.9849 23.52 80.7689 24.224C79.5529 24.9066 78.2196 25.248 76.7689 25.248C75.3396 25.248 74.1236 24.896 73.1209 24.192C72.1182 23.488 71.3822 22.56 70.9129 21.408C70.4436 20.2346 70.3049 18.9653 70.4969 17.6ZM73.0889 17.6C72.9396 18.4746 72.9822 19.3173 73.2169 20.128C73.4729 20.9173 73.9102 21.568 74.5289 22.08C75.1476 22.5706 75.9369 22.8266 76.8969 22.848C77.8782 22.848 78.7742 22.6133 79.5849 22.144C80.4169 21.6746 81.1102 21.0346 81.6649 20.224C82.2409 19.4133 82.6142 18.5386 82.7849 17.6C82.9342 16.704 82.8809 15.8613 82.6249 15.072C82.3689 14.2613 81.9316 13.6 81.3129 13.088C80.7156 12.576 79.9369 12.32 78.9769 12.32C77.9956 12.2986 77.0889 12.5333 76.2569 13.024C75.4249 13.5146 74.7316 14.1653 74.1769 14.976C73.6222 15.7653 73.2596 16.64 73.0889 17.6ZM89.7696 10.24H92.4256L89.8336 24.96H87.3696L89.7696 10.24ZM97.4816 10.24H100.874L93.4496 16.416L98.7616 24.96H95.7856L90.3776 16.192L97.4816 10.24ZM100.653 17.6C100.866 16.1706 101.378 14.88 102.189 13.728C103 12.576 104.013 11.6586 105.229 10.976C106.466 10.272 107.81 9.91996 109.261 9.91996C110.69 9.91996 111.906 10.2826 112.909 11.008C113.912 11.712 114.648 12.6506 115.117 13.824C115.586 14.976 115.725 16.2346 115.533 17.6C115.32 19.008 114.797 20.288 113.965 21.44C113.154 22.592 112.141 23.52 110.925 24.224C109.709 24.9066 108.376 25.248 106.925 25.248C105.496 25.248 104.28 24.896 103.277 24.192C102.274 23.488 101.538 22.56 101.069 21.408C100.6 20.2346 100.461 18.9653 100.653 17.6ZM103.245 17.6C103.096 18.4746 103.138 19.3173 103.373 20.128C103.629 20.9173 104.066 21.568 104.685 22.08C105.304 22.5706 106.093 22.8266 107.053 22.848C108.034 22.848 108.93 22.6133 109.741 22.144C110.573 21.6746 111.266 21.0346 111.821 20.224C112.397 19.4133 112.77 18.5386 112.941 17.6C113.09 16.704 113.037 15.8613 112.781 15.072C112.525 14.2613 112.088 13.6 111.469 13.088C110.872 12.576 110.093 12.32 109.133 12.32C108.152 12.2986 107.245 12.5333 106.413 13.024C105.581 13.5146 104.888 14.1653 104.333 14.976C103.778 15.7653 103.416 16.64 103.245 17.6ZM120.246 18.368L120.63 16H131.254L130.87 18.368H120.246ZM130.486 10.24H133.142L130.55 24.96H128.086L130.486 10.24ZM120.086 10.24H122.742L120.15 24.96H117.654L120.086 10.24ZM143.697 7.03996H146.321L142.641 28.128H140.177L143.697 7.03996ZM135.153 17.6C135.388 16.128 135.932 14.816 136.785 13.664C137.638 12.4906 138.716 11.5733 140.017 10.912C141.34 10.2293 142.79 9.89863 144.369 9.91996C145.926 9.91996 147.26 10.2613 148.369 10.944C149.478 11.6266 150.289 12.5546 150.801 13.728C151.313 14.88 151.462 16.1706 151.249 17.6C151.036 19.0506 150.502 20.3626 149.649 21.536C148.796 22.688 147.708 23.6053 146.385 24.288C145.084 24.9493 143.633 25.28 142.033 25.28C140.497 25.2586 139.174 24.9066 138.065 24.224C136.956 23.5413 136.145 22.624 135.633 21.472C135.121 20.2986 134.961 19.008 135.153 17.6ZM137.745 17.6C137.574 18.56 137.638 19.4346 137.937 20.224C138.236 21.0133 138.737 21.6426 139.441 22.112C140.166 22.5813 141.073 22.8266 142.161 22.848C143.292 22.848 144.316 22.624 145.233 22.176C146.15 21.7066 146.908 21.0773 147.505 20.288C148.124 19.4773 148.518 18.5813 148.689 17.6C148.86 16.64 148.796 15.7653 148.497 14.976C148.198 14.1653 147.686 13.5253 146.961 13.056C146.257 12.5653 145.35 12.32 144.241 12.32C143.132 12.2986 142.118 12.5226 141.201 12.992C140.284 13.4613 139.526 14.1013 138.929 14.912C138.332 15.7013 137.937 16.5973 137.745 17.6ZM155.1 18.24L155.42 16.064H164.924C164.967 15.3386 164.881 14.688 164.668 14.112C164.455 13.5146 164.092 13.0453 163.58 12.704C163.089 12.3413 162.428 12.16 161.596 12.16C160.721 12.1386 159.921 12.3306 159.196 12.736C158.471 13.1413 157.852 13.6853 157.34 14.368C156.849 15.0293 156.519 15.7866 156.348 16.64L156.124 17.6C155.996 18.5386 156.039 19.4133 156.252 20.224C156.465 21.0133 156.86 21.6533 157.436 22.144C158.033 22.6133 158.823 22.848 159.804 22.848C160.508 22.848 161.148 22.7306 161.724 22.496C162.3 22.2613 162.833 21.9413 163.324 21.536C163.815 21.1306 164.263 20.6826 164.668 20.192L166.62 21.568C166.023 22.272 165.372 22.912 164.668 23.488C163.985 24.0426 163.207 24.48 162.332 24.8C161.457 25.0986 160.444 25.248 159.292 25.248C157.927 25.2266 156.785 24.864 155.868 24.16C154.972 23.4346 154.332 22.496 153.948 21.344C153.564 20.1706 153.447 18.9226 153.596 17.6C153.639 17.3226 153.681 17.056 153.724 16.8C153.788 16.544 153.863 16.288 153.948 16.032C154.311 14.88 154.865 13.8453 155.612 12.928C156.359 11.9893 157.255 11.2533 158.3 10.72C159.367 10.1866 160.529 9.91996 161.788 9.91996C163.196 9.91996 164.348 10.272 165.244 10.976C166.14 11.6586 166.769 12.5653 167.132 13.696C167.516 14.8266 167.633 16.0853 167.484 17.472C167.463 17.6 167.441 17.728 167.42 17.856C167.399 17.984 167.377 18.112 167.356 18.24H155.1ZM170.62 31.968L167.964 32L171.74 10.24H174.236L170.62 31.968ZM184.988 17.6C184.796 19.0293 184.305 20.3306 183.516 21.504C182.727 22.6773 181.735 23.6053 180.54 24.288C179.367 24.9493 178.087 25.28 176.7 25.28C175.719 25.28 174.887 25.0666 174.204 24.64C173.521 24.2133 172.977 23.6373 172.572 22.912C172.188 22.1866 171.932 21.3653 171.804 20.448C171.697 19.5306 171.708 18.5813 171.836 17.6C171.964 16.5546 172.231 15.5733 172.636 14.656C173.041 13.7173 173.553 12.896 174.172 12.192C174.791 11.488 175.505 10.9333 176.316 10.528C177.148 10.1226 178.055 9.91996 179.036 9.91996C180.423 9.89863 181.585 10.24 182.524 10.944C183.484 11.648 184.177 12.5866 184.604 13.76C185.052 14.912 185.18 16.192 184.988 17.6ZM182.396 17.6C182.545 16.64 182.492 15.7653 182.236 14.976C181.98 14.1653 181.543 13.5253 180.924 13.056C180.327 12.5653 179.548 12.32 178.588 12.32C177.948 12.32 177.319 12.4586 176.7 12.736C176.103 12.992 175.548 13.3653 175.036 13.856C174.524 14.3253 174.087 14.88 173.724 15.52C173.383 16.16 173.148 16.8533 173.02 17.6C172.913 18.2826 172.913 18.944 173.02 19.584C173.148 20.2026 173.361 20.7573 173.66 21.248C173.98 21.7173 174.375 22.1013 174.844 22.4C175.335 22.6773 175.889 22.8266 176.508 22.848C177.468 22.8693 178.364 22.656 179.196 22.208C180.028 21.7386 180.732 21.1093 181.308 20.32C181.884 19.5093 182.247 18.6026 182.396 17.6ZM188.787 18.24L189.107 16.064H198.611C198.654 15.3386 198.569 14.688 198.355 14.112C198.142 13.5146 197.779 13.0453 197.267 12.704C196.777 12.3413 196.115 12.16 195.283 12.16C194.409 12.1386 193.609 12.3306 192.883 12.736C192.158 13.1413 191.539 13.6853 191.027 14.368C190.537 15.0293 190.206 15.7866 190.035 16.64L189.811 17.6C189.683 18.5386 189.726 19.4133 189.939 20.224C190.153 21.0133 190.547 21.6533 191.123 22.144C191.721 22.6133 192.51 22.848 193.491 22.848C194.195 22.848 194.835 22.7306 195.411 22.496C195.987 22.2613 196.521 21.9413 197.011 21.536C197.502 21.1306 197.95 20.6826 198.355 20.192L200.307 21.568C199.71 22.272 199.059 22.912 198.355 23.488C197.673 24.0426 196.894 24.48 196.019 24.8C195.145 25.0986 194.131 25.248 192.979 25.248C191.614 25.2266 190.473 24.864 189.555 24.16C188.659 23.4346 188.019 22.496 187.635 21.344C187.251 20.1706 187.134 18.9226 187.283 17.6C187.326 17.3226 187.369 17.056 187.411 16.8C187.475 16.544 187.55 16.288 187.635 16.032C187.998 14.88 188.553 13.8453 189.299 12.928C190.046 11.9893 190.942 11.2533 191.987 10.72C193.054 10.1866 194.217 9.91996 195.475 9.91996C196.883 9.91996 198.035 10.272 198.931 10.976C199.827 11.6586 200.457 12.5653 200.819 13.696C201.203 14.8266 201.321 16.0853 201.171 17.472C201.15 17.6 201.129 17.728 201.107 17.856C201.086 17.984 201.065 18.112 201.043 18.24H188.787ZM205.683 18.368L206.067 16H216.691L216.307 18.368H205.683ZM215.923 10.24H218.579L215.987 24.96H213.523L215.923 10.24ZM205.523 10.24H208.179L205.587 24.96H203.091L205.523 10.24ZM232.655 22.56H235.247L234.319 27.808H232.079L232.559 24.96H220.559L223.119 10.24H225.679L223.535 22.56H230.127L232.303 10.24H234.767L232.655 22.56ZM252.202 12.896L237.962 26.272L238.89 22.304L253.13 8.89596L252.202 12.896ZM243.37 10.24L241.194 22.656L237.962 26.272L240.778 10.24H243.37ZM253.13 8.89596L250.282 24.96H247.722L249.866 12.512L253.13 8.89596ZM269.139 12.896L254.899 26.272L255.827 22.304L270.067 8.89596L269.139 12.896ZM260.307 10.24L258.131 22.656L254.899 26.272L257.715 10.24H260.307ZM270.067 8.89596L267.219 24.96H264.659L266.803 12.512L270.067 8.89596ZM290.038 12.32L290.422 9.91996C291.83 9.91996 293.035 10.272 294.038 10.976C295.041 11.6586 295.777 12.5866 296.246 13.76C296.737 14.912 296.886 16.192 296.694 17.6C296.502 19.008 296.001 20.2986 295.19 21.472C294.401 22.624 293.398 23.552 292.182 24.256C290.987 24.9386 289.665 25.28 288.214 25.28C286.699 25.28 285.473 24.9066 284.534 24.16C283.617 23.392 282.945 22.4106 282.518 21.216C282.113 20.0213 281.91 18.7733 281.91 17.472L284.31 18.432C284.31 19.136 284.449 19.8293 284.726 20.512C285.003 21.1733 285.441 21.728 286.038 22.176C286.635 22.624 287.393 22.848 288.31 22.848C289.291 22.848 290.187 22.6133 290.998 22.144C291.83 21.6746 292.513 21.0346 293.046 20.224C293.601 19.4133 293.953 18.5386 294.102 17.6C294.273 16.6186 294.209 15.7333 293.91 14.944C293.611 14.1333 293.131 13.4933 292.47 13.024C291.809 12.5546 290.998 12.32 290.038 12.32ZM283.19 17.568C283.382 16.48 283.67 15.4666 284.054 14.528C284.459 13.5893 284.961 12.7786 285.558 12.096C286.177 11.4133 286.891 10.88 287.702 10.496C288.513 10.112 289.419 9.91996 290.422 9.91996L290.038 12.32C289.377 12.32 288.705 12.4586 288.022 12.736C287.361 13.0133 286.742 13.4186 286.166 13.952C285.611 14.464 285.163 15.104 284.822 15.872C284.481 16.6186 284.31 17.472 284.31 18.432L283.19 17.568ZM281.91 17.472C281.91 15.872 282.091 14.368 282.454 12.96C282.838 11.5306 283.393 10.2293 284.118 9.05596C284.843 7.86129 285.718 6.83729 286.742 5.98396C287.787 5.10929 288.961 4.43729 290.262 3.96796C291.542 3.47729 292.587 2.91196 293.398 2.27196C294.23 1.63196 294.87 0.874627 295.318 -4.00543e-05L297.878 0.0319595C297.387 1.52529 296.502 2.75196 295.222 3.71196C293.963 4.65063 292.491 5.42929 290.806 6.04796C289.846 6.38929 288.961 6.89063 288.15 7.55196C287.339 8.21329 286.635 8.98129 286.038 9.85596C285.441 10.7306 284.971 11.6586 284.63 12.64C284.31 13.6 284.15 14.56 284.15 15.52V18.336L281.91 17.472ZM300.319 18.24L300.639 16.064H310.143C310.185 15.3386 310.1 14.688 309.887 14.112C309.673 13.5146 309.311 13.0453 308.799 12.704C308.308 12.3413 307.647 12.16 306.815 12.16C305.94 12.1386 305.14 12.3306 304.415 12.736C303.689 13.1413 303.071 13.6853 302.559 14.368C302.068 15.0293 301.737 15.7866 301.567 16.64L301.343 17.6C301.215 18.5386 301.257 19.4133 301.471 20.224C301.684 21.0133 302.079 21.6533 302.655 22.144C303.252 22.6133 304.041 22.848 305.023 22.848C305.727 22.848 306.367 22.7306 306.943 22.496C307.519 22.2613 308.052 21.9413 308.543 21.536C309.033 21.1306 309.481 20.6826 309.887 20.192L311.839 21.568C311.241 22.272 310.591 22.912 309.887 23.488C309.204 24.0426 308.425 24.48 307.551 24.8C306.676 25.0986 305.663 25.248 304.511 25.248C303.145 25.2266 302.004 24.864 301.087 24.16C300.191 23.4346 299.551 22.496 299.167 21.344C298.783 20.1706 298.665 18.9226 298.815 17.6C298.857 17.3226 298.9 17.056 298.943 16.8C299.007 16.544 299.081 16.288 299.167 16.032C299.529 14.88 300.084 13.8453 300.831 12.928C301.577 11.9893 302.473 11.2533 303.519 10.72C304.585 10.1866 305.748 9.91996 307.007 9.91996C308.415 9.91996 309.567 10.272 310.463 10.976C311.359 11.6586 311.988 12.5653 312.351 13.696C312.735 14.8266 312.852 16.0853 312.703 17.472C312.681 17.6 312.66 17.728 312.639 17.856C312.617 17.984 312.596 18.112 312.575 18.24H300.319ZM320.991 17.568L321.215 16C322.025 15.9573 322.719 15.776 323.295 15.456C323.871 15.136 324.212 14.6666 324.319 14.048C324.361 13.6853 324.297 13.376 324.127 13.12C323.977 12.8426 323.753 12.6293 323.455 12.48C323.156 12.3306 322.793 12.256 322.367 12.256C321.791 12.2346 321.3 12.3413 320.895 12.576C320.489 12.8106 320.159 13.0986 319.903 13.44C319.647 13.7813 319.444 14.1333 319.295 14.496L316.703 14.464C316.895 13.6533 317.247 12.9066 317.759 12.224C318.292 11.52 318.953 10.9653 319.743 10.56C320.553 10.1333 321.449 9.91996 322.431 9.91996C323.305 9.91996 324.095 10.112 324.799 10.496C325.524 10.8586 326.079 11.36 326.463 12C326.847 12.6186 326.975 13.3226 326.847 14.112C326.719 14.9013 326.367 15.552 325.791 16.064C325.236 16.5546 324.532 16.928 323.679 17.184C322.847 17.4186 321.951 17.5466 320.991 17.568ZM320.031 25.248C318.409 25.248 317.161 24.7893 316.287 23.872C315.412 22.9333 314.953 21.7493 314.911 20.32H317.407C317.513 21.0453 317.748 21.6746 318.111 22.208C318.495 22.72 319.177 22.9866 320.159 23.008C320.756 23.008 321.321 22.9226 321.855 22.752C322.388 22.56 322.825 22.2826 323.167 21.92C323.529 21.5573 323.753 21.1306 323.839 20.64C323.945 20.0853 323.871 19.6373 323.615 19.296C323.359 18.9546 322.985 18.6986 322.495 18.528C322.025 18.3573 321.481 18.2613 320.863 18.24L321.119 16.64C322.121 16.6613 323.039 16.8106 323.871 17.088C324.724 17.3653 325.385 17.792 325.855 18.368C326.345 18.9226 326.516 19.68 326.367 20.64C326.239 21.5786 325.855 22.4 325.215 23.104C324.575 23.7866 323.796 24.32 322.879 24.704C321.961 25.0666 321.012 25.248 320.031 25.248ZM341.495 10.24H349.271L348.823 12.64H343.735L341.591 24.96H339.095L341.495 10.24ZM350.401 31.968L347.745 32L351.521 10.24H354.017L350.401 31.968ZM364.769 17.6C364.577 19.0293 364.086 20.3306 363.297 21.504C362.508 22.6773 361.516 23.6053 360.321 24.288C359.148 24.9493 357.868 25.28 356.481 25.28C355.5 25.28 354.668 25.0666 353.985 24.64C353.302 24.2133 352.758 23.6373 352.353 22.912C351.969 22.1866 351.713 21.3653 351.585 20.448C351.478 19.5306 351.489 18.5813 351.617 17.6C351.745 16.5546 352.012 15.5733 352.417 14.656C352.822 13.7173 353.334 12.896 353.953 12.192C354.572 11.488 355.286 10.9333 356.097 10.528C356.929 10.1226 357.836 9.91996 358.817 9.91996C360.204 9.89863 361.366 10.24 362.305 10.944C363.265 11.648 363.958 12.5866 364.385 13.76C364.833 14.912 364.961 16.192 364.769 17.6ZM362.177 17.6C362.326 16.64 362.273 15.7653 362.017 14.976C361.761 14.1653 361.324 13.5253 360.705 13.056C360.108 12.5653 359.329 12.32 358.369 12.32C357.729 12.32 357.1 12.4586 356.481 12.736C355.884 12.992 355.329 13.3653 354.817 13.856C354.305 14.3253 353.868 14.88 353.505 15.52C353.164 16.16 352.929 16.8533 352.801 17.6C352.694 18.2826 352.694 18.944 352.801 19.584C352.929 20.2026 353.142 20.7573 353.441 21.248C353.761 21.7173 354.156 22.1013 354.625 22.4C355.116 22.6773 355.67 22.8266 356.289 22.848C357.249 22.8693 358.145 22.656 358.977 22.208C359.809 21.7386 360.513 21.1093 361.089 20.32C361.665 19.5093 362.028 18.6026 362.177 17.6ZM368.729 20.64C368.622 21.3866 368.825 21.9626 369.337 22.368C369.849 22.752 370.489 22.9546 371.257 22.976C372.11 22.9973 372.867 22.8586 373.529 22.56C374.211 22.2613 374.787 21.8346 375.257 21.28C375.726 20.704 376.057 20.0106 376.249 19.2L376.473 20.832C376.259 21.728 375.865 22.5066 375.289 23.168C374.713 23.8293 374.009 24.3413 373.177 24.704C372.345 25.0666 371.427 25.248 370.425 25.248C369.507 25.248 368.707 25.0666 368.025 24.704C367.342 24.32 366.83 23.7866 366.489 23.104C366.147 22.4213 366.041 21.6213 366.169 20.704C366.339 19.6586 366.745 18.7733 367.385 18.048C368.025 17.3226 368.835 16.768 369.817 16.384C370.798 16 371.875 15.808 373.049 15.808C374.179 15.8293 375.107 16.0426 375.833 16.448C376.579 16.8533 377.145 17.2906 377.529 17.76L377.305 19.232C376.643 18.7413 375.971 18.3786 375.289 18.144C374.606 17.888 373.838 17.76 372.985 17.76C372.259 17.76 371.587 17.8773 370.969 18.112C370.371 18.3253 369.87 18.6453 369.465 19.072C369.081 19.4773 368.835 20 368.729 20.64ZM369.945 13.696L369.017 11.68C369.742 11.2533 370.574 10.8586 371.513 10.496C372.473 10.112 373.539 9.91996 374.713 9.91996C375.481 9.91996 376.185 10.0266 376.825 10.24C377.465 10.432 378.009 10.72 378.457 11.104C378.905 11.488 379.225 11.9573 379.417 12.512C379.63 13.0666 379.673 13.696 379.545 14.4L377.753 24.96H375.193L377.081 14.4C377.166 13.9306 377.091 13.536 376.857 13.216C376.643 12.896 376.323 12.6506 375.897 12.48C375.491 12.288 375.022 12.192 374.489 12.192C373.55 12.1706 372.697 12.3413 371.929 12.704C371.161 13.0453 370.499 13.376 369.945 13.696ZM384.527 18.368L384.911 16H395.535L395.151 18.368H384.527ZM394.767 10.24H397.423L394.831 24.96H392.367L394.767 10.24ZM384.367 10.24H387.023L384.431 24.96H381.935L384.367 10.24ZM413.514 12.896L399.274 26.272L400.202 22.304L414.442 8.89596L413.514 12.896ZM404.682 10.24L402.506 22.656L399.274 26.272L402.09 10.24H404.682ZM414.442 8.89596L411.594 24.96H409.034L411.178 12.512L414.442 8.89596ZM428.436 22.56H431.028L430.1 27.808H427.86L428.34 24.96H416.34L418.9 10.24H421.46L419.316 22.56H425.908L428.084 10.24H430.548L428.436 22.56Z" fill="white"/>
</svg>
