<svg width="370" height="109" viewBox="0 0 370 109" fill="none" xmlns="http://www.w3.org/2000/svg">
<path d="M370 69.9348C370 91.3926 352.562 108.788 331.052 108.788C309.542 108.788 292.105 91.3926 292.105 69.9348C292.105 48.477 309.542 31.082 331.052 31.082C352.562 31.082 370 48.477 370 69.9348ZM311.579 69.9348C311.579 80.6637 320.297 89.3612 331.052 89.3612C341.807 89.3612 350.526 80.6637 350.526 69.9348C350.526 59.2059 341.807 50.5084 331.052 50.5084C320.297 50.5084 311.579 59.2059 311.579 69.9348Z" fill="#000000"/>
<rect x="331.052" y="47.5368" width="31.1579" height="45.1789" fill="#000000"/>
<path d="M269.013 97.4079C263.567 102.842 256.627 106.542 249.072 108.041C241.517 109.54 233.686 108.771 226.569 105.83C219.452 102.889 213.37 97.9096 209.09 91.5203C204.81 85.131 202.526 77.6192 202.526 69.9348C202.526 62.2505 204.81 54.7387 209.09 48.3494C213.37 41.9601 219.452 36.9802 226.569 34.0395C233.686 31.0988 241.517 30.3294 249.072 31.8286C256.627 33.3277 263.567 37.0281 269.013 42.4617L255.244 56.1983C252.52 53.4815 249.05 51.6313 245.273 50.8817C241.495 50.1321 237.58 50.5168 234.021 51.9872C230.463 53.4575 227.422 55.9474 225.282 59.1421C223.142 62.3368 222 66.0927 222 69.9348C222 73.777 223.142 77.5329 225.282 80.7276C227.422 83.9222 230.463 86.4121 234.021 87.8825C237.58 89.3528 241.495 89.7375 245.273 88.988C249.05 88.2384 252.52 86.3882 255.244 83.6714L269.013 97.4079Z" fill="#000000"/>
<path d="M190.842 69.9348C190.842 91.3926 173.405 108.788 151.895 108.788C130.385 108.788 112.947 91.3926 112.947 69.9348C112.947 48.477 130.385 31.082 151.895 31.082C173.405 31.082 190.842 48.477 190.842 69.9348ZM132.421 69.9348C132.421 80.6637 141.14 89.3612 151.895 89.3612C162.65 89.3612 171.368 80.6637 171.368 69.9348C171.368 59.2059 162.65 50.5084 151.895 50.5084C141.14 50.5084 132.421 59.2059 132.421 69.9348Z" fill="#000000"/>
<rect x="151.895" y="47.5368" width="31.1579" height="45.1789" fill="#000000"/>
<path d="M23.3684 31.082L62.3158 108.788L101.263 31.082H81.7894L62.3158 69.9348L42.8421 31.082H23.3684Z" fill="#000000"/>
<rect x="23.3684" y="31.082" width="15.5789" height="77.8947" fill="#000000"/>
<rect x="31.1579" y="38.8715" width="15.5789" height="70.1053" fill="#000000"/>
<rect x="38.9473" y="58.3452" width="15.5789" height="50.6316" fill="#000000"/>
<rect x="46.7369" y="77.725" width="15.5789" height="31.1579" fill="#000000"/>
<rect x="7.78946" y="31.082" width="7.78947" height="19.4264" fill="#0077FF"/>
<rect x="15.5789" y="50.5098" width="15.5789" height="19.4264" fill="#0077FF"/>
<rect x="23.3685" y="69.9355" width="15.5789" height="19.4264" fill="#0077FF"/>
<rect x="31.1579" y="89.3618" width="15.5789" height="19.4264" fill="#0077FF"/>
<rect y="31.082" width="23.3684" height="19.4264" fill="#00FF00"/>
<rect x="7.78949" y="50.5098" width="23.3684" height="19.4264" fill="#00FF00"/>
<rect x="15.5789" y="69.9355" width="23.3684" height="19.4264" fill="#00FF00"/>
<rect x="23.3685" y="89.3618" width="23.3684" height="19.4264" fill="#00FF00"/>
<rect x="23.3685" y="50.5098" width="7.78947" height="19.4264" fill="#8000FF"/>
<rect x="38.9473" y="89.3618" width="7.78947" height="19.4264" fill="#8000FF"/>
<rect x="31.1579" y="69.9355" width="7.78947" height="19.4264" fill="#8000FF"/>
<rect x="15.5789" y="31.082" width="7.78947" height="19.4264" fill="#8000FF"/>
<rect x="292.105" width="77.8947" height="19.4264" fill="#000000"/>
<rect x="315.474" width="15.5789" height="19.4264" fill="#0077FF"/>
<rect x="292.105" width="23.3684" height="19.4264" fill="#00FF00"/>
<rect x="331.053" width="7.78947" height="19.4264" fill="#8000FF"/>
<rect x="112.947" width="77.8947" height="19.4264" fill="#000000"/>
<rect x="112.947" width="23.3684" height="19.4264" fill="#00FF00"/>
<rect x="136.316" width="15.5789" height="19.4264" fill="#0077FF"/>
<rect x="151.895" width="7.78947" height="19.4264" fill="#8000FF"/>
</svg>
