<svg width="102" height="744" viewBox="0 0 102 744" fill="none" xmlns="http://www.w3.org/2000/svg">
<rect y="744" width="397" height="101" transform="rotate(-90 0 744)" fill="url(#paint0_linear_206_1065)"/>
<path d="M30.5588 455.161C30.5588 455.809 30.7028 456.381 30.9908 456.877C31.2868 457.373 31.6708 457.761 32.1428 458.041C32.6148 458.321 33.1268 458.461 33.6788 458.461C34.0788 458.461 34.4428 458.409 34.7708 458.305C35.1068 458.201 35.4108 458.057 35.6828 457.873C35.9548 457.681 36.1868 457.461 36.3788 457.213V458.557C36.0268 458.869 35.6428 459.101 35.2268 459.253C34.8108 459.405 34.2948 459.481 33.6788 459.481C33.0948 459.481 32.5468 459.377 32.0348 459.169C31.5308 458.953 31.0868 458.653 30.7028 458.269C30.3188 457.877 30.0188 457.417 29.8028 456.889C29.5868 456.361 29.4788 455.785 29.4788 455.161C29.4788 454.537 29.5868 453.961 29.8028 453.433C30.0188 452.905 30.3188 452.449 30.7028 452.065C31.0868 451.673 31.5308 451.373 32.0348 451.165C32.5468 450.949 33.0948 450.841 33.6788 450.841C34.2948 450.841 34.8108 450.917 35.2268 451.069C35.6428 451.221 36.0268 451.453 36.3788 451.765V453.109C36.1868 452.861 35.9548 452.645 35.6828 452.461C35.4108 452.269 35.1068 452.121 34.7708 452.017C34.4428 451.913 34.0788 451.861 33.6788 451.861C33.1268 451.861 32.6148 452.001 32.1428 452.281C31.6708 452.561 31.2868 452.949 30.9908 453.445C30.7028 453.933 30.5588 454.505 30.5588 455.161ZM37.6337 456.601C37.6337 456.041 37.7577 455.545 38.0057 455.113C38.2617 454.681 38.6057 454.341 39.0377 454.093C39.4697 453.845 39.9537 453.721 40.4897 453.721C41.0337 453.721 41.5177 453.845 41.9417 454.093C42.3737 454.341 42.7137 454.681 42.9617 455.113C43.2177 455.545 43.3457 456.041 43.3457 456.601C43.3457 457.153 43.2177 457.649 42.9617 458.089C42.7137 458.521 42.3737 458.861 41.9417 459.109C41.5177 459.357 41.0337 459.481 40.4897 459.481C39.9537 459.481 39.4697 459.357 39.0377 459.109C38.6057 458.861 38.2617 458.521 38.0057 458.089C37.7577 457.649 37.6337 457.153 37.6337 456.601ZM38.6057 456.601C38.6057 456.985 38.6857 457.325 38.8457 457.621C39.0137 457.917 39.2377 458.153 39.5177 458.329C39.8057 458.497 40.1297 458.581 40.4897 458.581C40.8497 458.581 41.1697 458.497 41.4497 458.329C41.7377 458.153 41.9617 457.917 42.1217 457.621C42.2897 457.325 42.3737 456.985 42.3737 456.601C42.3737 456.217 42.2897 455.877 42.1217 455.581C41.9617 455.277 41.7377 455.041 41.4497 454.873C41.1697 454.705 40.8497 454.621 40.4897 454.621C40.1297 454.621 39.8057 454.705 39.5177 454.873C39.2377 455.041 39.0137 455.277 38.8457 455.581C38.6857 455.877 38.6057 456.217 38.6057 456.601Z" fill="white"/>
<path d="M70.1053 366.77C70.1053 369.32 70.6092 371.846 71.5877 374.203C72.5663 376.56 74.0011 378.702 75.8094 380.506C77.6176 382.31 79.7642 383.741 82.1268 384.717C84.4894 385.693 87.0216 386.195 89.5789 386.195V405.622C84.4644 405.622 79.3998 404.617 74.6746 402.665C69.9493 400.713 65.6555 397.85 62.0389 394.242C58.4224 390.634 55.5537 386.351 53.5965 381.638C51.6393 376.924 50.6317 371.872 50.6317 366.77H70.1053Z" fill="#00FF00"/>
<path d="M89.5789 425.049C87.0216 425.049 84.4894 425.551 82.1268 426.527C79.7642 427.504 77.6176 428.934 75.8094 430.738C74.0011 432.542 72.5664 434.684 71.5877 437.041C70.6092 439.398 70.1053 441.924 70.1053 444.475H50.6317C50.6317 439.372 51.6392 434.32 53.5965 429.606C55.5538 424.893 58.4224 420.61 62.0389 417.002C65.6555 413.394 69.9493 410.532 74.6746 408.579C79.3998 406.627 84.4644 405.622 89.5789 405.622V425.049Z" fill="#00FF00"/>
<path d="M31.158 444.475C31.158 441.924 30.6541 439.398 29.6756 437.041C28.697 434.684 27.2622 432.542 25.4539 430.738C23.6457 428.934 21.4991 427.504 19.1365 426.527C16.7739 425.551 14.2417 425.049 11.6844 425.049V405.622C16.7989 405.622 21.8635 406.627 26.5887 408.579C31.314 410.532 35.6078 413.394 39.2244 417.002C42.8409 420.61 45.7096 424.893 47.6668 429.606C49.624 434.32 50.6316 439.373 50.6317 444.475H31.158Z" fill="#00FF00"/>
<path d="M11.6844 386.195C14.2417 386.195 16.7739 385.693 19.1365 384.717C21.4991 383.741 23.6457 382.31 25.4539 380.506C27.2622 378.702 28.697 376.56 29.6756 374.203C30.6541 371.846 31.158 369.32 31.158 366.77H50.6317C50.6316 371.872 49.6241 376.924 47.6668 381.638C45.7095 386.351 42.8409 390.634 39.2244 394.242C35.6078 397.85 31.314 400.713 26.5887 402.665C21.8635 404.617 16.7989 405.622 11.6844 405.622V386.195Z" fill="#00FF00"/>
<rect width="199.703" height="101.263" transform="matrix(0 1 1 0 0 0)" fill="url(#paint1_linear_206_1065)"/>
<defs>
<linearGradient id="paint0_linear_206_1065" x1="0" y1="794.5" x2="397" y2="794.5" gradientUnits="userSpaceOnUse">
<stop stop-color="#00FF00"/>
<stop offset="1" stop-opacity="0"/>
</linearGradient>
<linearGradient id="paint1_linear_206_1065" x1="0" y1="50.6315" x2="199.703" y2="50.6315" gradientUnits="userSpaceOnUse">
<stop stop-color="#00FF00"/>
<stop offset="1" stop-opacity="0"/>
</linearGradient>
</defs>
</svg>
