<svg width="78" height="744" viewBox="0 0 78 744" fill="none" xmlns="http://www.w3.org/2000/svg">
<rect y="744" width="397" height="78" transform="rotate(-90 0 744)" fill="url(#paint0_linear_206_990)"/>
<path d="M12.9496 464.281V463.321H18.7096V464.281H12.9496ZM18.0256 459.961H19.0456V468.361H18.0256V459.961ZM12.3856 459.961H13.4056V468.361H12.3856V459.961ZM21.3357 466.741C21.3357 466.933 21.3877 467.097 21.4917 467.233C21.5957 467.361 21.7357 467.461 21.9117 467.533C22.0877 467.597 22.2837 467.629 22.4997 467.629C22.8197 467.629 23.1037 467.581 23.3517 467.485C23.5997 467.389 23.7917 467.237 23.9277 467.029C24.0717 466.821 24.1437 466.545 24.1437 466.201L24.3357 466.801C24.3357 467.153 24.2397 467.457 24.0477 467.713C23.8637 467.961 23.6157 468.153 23.3037 468.289C22.9917 468.417 22.6437 468.481 22.2597 468.481C21.9157 468.481 21.5997 468.417 21.3117 468.289C21.0237 468.161 20.7917 467.973 20.6157 467.725C20.4477 467.469 20.3637 467.153 20.3637 466.777C20.3637 466.385 20.4597 466.053 20.6517 465.781C20.8437 465.509 21.1157 465.301 21.4677 465.157C21.8197 465.005 22.2357 464.929 22.7157 464.929C23.0677 464.929 23.3677 464.977 23.6157 465.073C23.8717 465.161 24.0757 465.265 24.2277 465.385C24.3797 465.497 24.4837 465.589 24.5397 465.661V466.225C24.2677 466.033 23.9917 465.893 23.7117 465.805C23.4317 465.709 23.1157 465.661 22.7637 465.661C22.4437 465.661 22.1757 465.705 21.9597 465.793C21.7517 465.881 21.5957 466.005 21.4917 466.165C21.3877 466.325 21.3357 466.517 21.3357 466.741Z" fill="white"/>
<path d="M0.10527 425.05C2.66256 425.05 5.19479 425.553 7.55742 426.529C9.91995 427.505 12.0666 428.936 13.8748 430.74C15.6831 432.544 17.1178 434.686 18.0965 437.042C19.075 439.399 19.5789 441.925 19.5789 444.476H39.0525C39.0525 439.374 38.0449 434.322 36.0877 429.608C34.1304 424.894 31.2618 420.611 27.6453 417.003C24.0287 413.396 19.7349 410.533 15.0096 408.581C10.2844 406.628 5.21977 405.624 0.10527 405.624V425.05Z" fill="white"/>
<path d="M39.0526 425.049C41.6099 425.049 44.1421 424.547 46.5048 423.571C48.8673 422.595 51.0139 421.164 52.8221 419.36C54.6304 417.556 56.0652 415.414 57.0438 413.057C58.0224 410.7 58.5262 408.174 58.5262 405.624H77.9999C77.9998 410.726 76.9923 415.778 75.035 420.492C73.0778 425.205 70.2091 429.488 66.5927 433.096C62.9761 436.704 58.6822 439.567 53.9569 441.519C49.2317 443.471 44.1671 444.476 39.0526 444.476V425.049Z" fill="white"/>
<path d="M39.0525 386.197C36.4952 386.197 33.963 386.699 31.6003 387.675C29.2378 388.652 27.0911 390.082 25.2829 391.886C23.4747 393.69 22.0398 395.832 21.0612 398.189C20.0828 400.546 19.5789 403.072 19.5788 405.623H0.105194C0.105228 400.521 1.1129 395.468 3.07004 390.754C5.02725 386.041 7.89605 381.758 11.5124 378.15C15.129 374.542 19.4229 371.68 24.1482 369.727C28.8734 367.775 33.9379 366.77 39.0525 366.77V386.197Z" fill="white"/>
<path d="M77.9998 386.197C75.4425 386.197 72.9103 385.695 70.5477 384.718C68.1851 383.742 66.0385 382.311 64.2303 380.507C62.422 378.703 60.9872 376.561 60.0086 374.205C59.0301 371.848 58.5262 369.322 58.5262 366.771H39.0525C39.0526 371.873 40.0601 376.925 42.0174 381.639C43.9746 386.353 46.8433 390.636 50.4598 394.244C54.0763 397.851 58.3702 400.714 63.0955 402.667C67.8207 404.619 72.8853 405.624 77.9998 405.624V386.197Z" fill="white"/>
<rect width="199.703" height="77.8947" transform="matrix(0 1 1 0 0.105087 0)" fill="url(#paint1_linear_206_990)"/>
<defs>
<linearGradient id="paint0_linear_206_990" x1="0" y1="783" x2="397" y2="783" gradientUnits="userSpaceOnUse">
<stop stop-color="white"/>
<stop offset="1" stop-opacity="0"/>
</linearGradient>
<linearGradient id="paint1_linear_206_990" x1="0" y1="38.9473" x2="199.703" y2="38.9473" gradientUnits="userSpaceOnUse">
<stop stop-color="white"/>
<stop offset="1" stop-opacity="0"/>
</linearGradient>
</defs>
</svg>
