<svg width="79" height="744" viewBox="0 0 79 744" fill="none" xmlns="http://www.w3.org/2000/svg">
<rect x="0.0525513" y="744" width="397" height="78" transform="rotate(-90 0.0525513 744)" fill="url(#paint0_linear_206_1040)"/>
<path d="M7.35591 460.921H2.73591V468.361H1.71591V459.961H8.37591V468.361H7.35591V460.921ZM9.75403 465.601C9.75403 465.041 9.87803 464.545 10.126 464.113C10.382 463.681 10.726 463.341 11.158 463.093C11.59 462.845 12.074 462.721 12.61 462.721C13.154 462.721 13.638 462.845 14.062 463.093C14.494 463.341 14.834 463.681 15.082 464.113C15.338 464.545 15.466 465.041 15.466 465.601C15.466 466.153 15.338 466.649 15.082 467.089C14.834 467.521 14.494 467.861 14.062 468.109C13.638 468.357 13.154 468.481 12.61 468.481C12.074 468.481 11.59 468.357 11.158 468.109C10.726 467.861 10.382 467.521 10.126 467.089C9.87803 466.649 9.75403 466.153 9.75403 465.601Z" fill="white"/>
<path d="M77.8946 386.195C75.3373 386.195 72.805 385.693 70.4424 384.717C68.0799 383.741 65.9333 382.31 64.125 380.506C62.3167 378.702 60.882 376.56 59.9034 374.203C58.9248 371.846 58.421 369.32 58.4209 366.77H38.9473C38.9473 371.872 39.9549 376.924 41.9121 381.638C43.8694 386.351 46.738 390.634 50.3545 394.242C53.9711 397.85 58.265 400.713 62.9903 402.665C67.7155 404.617 72.7801 405.622 77.8946 405.622V386.195Z" fill="#0077FF"/>
<path d="M3.05176e-05 386.195C2.55733 386.195 5.08954 385.693 7.45218 384.717C9.81473 383.741 11.9613 382.31 13.7696 380.506C15.5779 378.702 17.0126 376.56 17.9912 374.203C18.9698 371.846 19.4736 369.32 19.4737 366.77H38.9473C38.9473 371.872 37.9397 376.924 35.9825 381.638C34.0252 386.351 31.1566 390.634 27.5401 394.242C23.9235 397.85 19.6296 400.713 14.9043 402.665C10.1791 404.617 5.11455 405.622 3.05176e-05 405.622V386.195Z" fill="#0077FF"/>
<path d="M3.05176e-05 425.048C2.55731 425.048 5.08956 424.546 7.45218 423.57C9.81472 422.594 11.9613 421.163 13.7696 419.359C15.5778 417.555 17.0126 415.413 17.9912 413.056C18.9698 410.699 19.4736 408.173 19.4737 405.623H38.9473C38.9472 410.725 37.9397 415.777 35.9825 420.491C34.0252 425.204 31.1565 429.487 27.5401 433.095C23.9235 436.703 19.6296 439.566 14.9043 441.518C10.1791 443.471 5.11453 444.475 3.05176e-05 444.475V425.048Z" fill="#0077FF"/>
<path d="M77.8946 425.048C75.3373 425.048 72.805 424.546 70.4424 423.57C68.0799 422.594 65.9333 421.163 64.125 419.359C62.3168 417.555 60.882 415.413 59.9034 413.056C58.9248 410.699 58.421 408.173 58.4209 405.623H38.9473C38.9473 410.725 39.9549 415.777 41.9121 420.491C43.8694 425.204 46.7381 429.487 50.3545 433.095C53.9711 436.703 58.265 439.566 62.9903 441.518C67.7155 443.471 72.7801 444.475 77.8946 444.475V425.048Z" fill="#0077FF"/>
<rect width="204.366" height="77.8947" transform="matrix(0 1 1 0 0.000579834 0)" fill="url(#paint1_linear_206_1040)"/>
<defs>
<linearGradient id="paint0_linear_206_1040" x1="0.0525513" y1="783" x2="397.053" y2="783" gradientUnits="userSpaceOnUse">
<stop stop-color="#0077FF"/>
<stop offset="1" stop-opacity="0"/>
</linearGradient>
<linearGradient id="paint1_linear_206_1040" x1="0" y1="38.9473" x2="204.366" y2="38.9473" gradientUnits="userSpaceOnUse">
<stop stop-color="#0077FF"/>
<stop offset="1" stop-opacity="0"/>
</linearGradient>
</defs>
</svg>
